M48
; DRILL file KiCad 10.0.3 date 2026-05-15T20:42:56
; FORMAT={-:-/ absolute / metric / decimal}
; #@! TF.CreationDate,2026-05-15T20:42:56+03:00
; #@! TF.GenerationSoftware,Kicad,Pcbnew,10.0.3
; #@! TF.FileFunction,Plated,1,2,PTH
FMAT,2
METRIC
; #@! TA.AperFunction,Plated,PTH,ViaDrill
T1C0.300
; #@! TA.AperFunction,Plated,PTH,ComponentDrill
T2C0.750
; #@! TA.AperFunction,Plated,PTH,ComponentDrill
T3C0.800
; #@! TA.AperFunction,Plated,PTH,ComponentDrill
T4C1.000
; #@! TA.AperFunction,Plated,PTH,ComponentDrill
T5C1.016
; #@! TA.AperFunction,Plated,PTH,ComponentDrill
T6C1.100
; #@! TA.AperFunction,Plated,PTH,ComponentDrill
T7C1.200
; #@! TA.AperFunction,Plated,PTH,ComponentDrill
T8C2.500
%
G90
G05
T1
X116.74Y-66.74
T2
X99.46Y-104.0
X100.73Y-104.0
X102.0Y-104.0
X221.46Y-92.0
X222.73Y-92.0
X224.0Y-92.0
T3
X83.0Y-114.0
X83.0Y-124.16
X159.597Y-129.0
X164.597Y-129.0
X169.46Y-116.0
X172.0Y-116.0
X174.54Y-116.0
X177.08Y-116.0
X188.0Y-118.92
X188.0Y-129.08
X200.92Y-100.0
X211.08Y-100.0
X212.0Y-121.0
X212.0Y-126.0
X217.0Y-65.0
X220.0Y-65.0
X231.0Y-63.92
X231.0Y-74.08
T4
X82.5Y-103.76
X85.0Y-108.76
X87.5Y-103.76
X155.0Y-121.0
X155.0Y-126.0
X157.0Y-104.0
X162.0Y-104.0
X203.2Y-88.0
X210.8Y-88.0
X231.0Y-109.11
X231.0Y-111.65
X231.0Y-114.19
X231.0Y-116.73
X231.0Y-119.27
X231.0Y-121.81
X231.0Y-124.35
X231.0Y-126.89
T5
X168.57Y-63.3
X168.57Y-65.84
X168.57Y-68.38
X168.57Y-70.92
X168.57Y-73.46
X168.57Y-76.0
X168.57Y-78.54
X168.57Y-81.08
X168.57Y-83.62
X168.57Y-86.16
X168.57Y-88.7
X168.57Y-91.24
X168.57Y-93.78
X168.57Y-96.32
X168.57Y-98.86
X168.57Y-101.4
X168.57Y-103.94
X168.57Y-106.48
X168.57Y-109.02
X191.43Y-63.3
X191.43Y-65.84
X191.43Y-68.38
X191.43Y-70.92
X191.43Y-73.46
X191.43Y-76.0
X191.43Y-78.54
X191.43Y-81.08
X191.43Y-83.62
X191.43Y-86.16
X191.43Y-88.7
X191.43Y-91.24
X191.43Y-93.78
X191.43Y-96.32
X191.43Y-98.86
X191.43Y-101.4
X191.43Y-103.94
X191.43Y-106.48
X191.43Y-109.02
T6
X91.0Y-116.75
X91.0Y-121.25
X97.5Y-116.75
X97.5Y-121.25
X106.0Y-116.75
X106.0Y-121.25
X112.5Y-116.75
X112.5Y-121.25
X121.0Y-116.75
X121.0Y-121.25
X127.5Y-116.75
X127.5Y-121.25
X136.0Y-116.75
X136.0Y-121.25
X142.5Y-116.75
X142.5Y-121.25
X213.92Y-81.0
X224.08Y-81.0
T7
X90.0Y-64.642
X92.54Y-64.642
X95.08Y-64.642
X97.62Y-64.642
X100.16Y-64.642
X102.7Y-64.642
X105.24Y-64.642
X107.78Y-64.642
X110.32Y-64.642
X112.86Y-64.642
X115.4Y-64.642
X117.94Y-64.642
X120.48Y-64.642
X123.02Y-64.642
X125.56Y-64.642
X128.1Y-64.642
T8
X84.501Y-64.642
X84.501Y-95.643
X159.499Y-95.643
X159.5Y-64.642
M30
