M48
; DRILL file KiCad 10.0.1 date 2026-05-10T21:39:03
; FORMAT={-:-/ absolute / metric / decimal}
; #@! TF.CreationDate,2026-05-10T21:39:03+03:00
; #@! TF.GenerationSoftware,Kicad,Pcbnew,10.0.1
; #@! TF.FileFunction,Plated,1,2,PTH
FMAT,2
METRIC
; #@! TA.AperFunction,Plated,PTH,ComponentDrill
T1C0.600
; #@! TA.AperFunction,Plated,PTH,ComponentDrill
T2C0.750
; #@! TA.AperFunction,Plated,PTH,ComponentDrill
T3C0.800
; #@! TA.AperFunction,Plated,PTH,ComponentDrill
T4C0.840
; #@! TA.AperFunction,Plated,PTH,ComponentDrill
T5C0.900
; #@! TA.AperFunction,Plated,PTH,ComponentDrill
T6C1.000
; #@! TA.AperFunction,Plated,PTH,ComponentDrill
T7C1.100
; #@! TA.AperFunction,Plated,PTH,ComponentDrill
T8C1.300
%
G90
G05
T1
X136.25Y-91.0
X136.25Y-104.0
T2
X190.0Y-82.0
X191.27Y-82.0
X192.54Y-82.0
T3
X110.3Y-55.0
X120.46Y-55.0
X122.0Y-75.0
X127.0Y-75.0
X135.84Y-110.0
X146.0Y-110.0
X152.0Y-94.597
X152.0Y-99.597
X167.0Y-60.5
X167.0Y-70.66
X181.84Y-91.0
X192.0Y-91.0
X208.0Y-60.5
X208.0Y-70.66
T4
X160.38Y-83.12
X160.38Y-85.66
X160.38Y-88.2
X160.38Y-90.74
X160.38Y-93.28
X160.38Y-95.82
X160.38Y-98.36
X160.38Y-100.9
X175.62Y-83.12
X175.62Y-85.66
X175.62Y-88.2
X175.62Y-90.74
X175.62Y-93.28
X175.62Y-95.82
X175.62Y-98.36
X175.62Y-100.9
T5
X180.0Y-60.46
X180.0Y-63.0
X195.0Y-60.46
X195.0Y-63.0
T6
X110.0Y-66.22
X110.0Y-68.76
X110.0Y-71.3
X110.0Y-73.84
X110.0Y-76.38
X110.0Y-78.92
X110.0Y-81.46
X110.0Y-84.0
X153.5Y-109.0
X158.5Y-109.0
X200.05Y-86.95
X212.05Y-86.95
T7
X126.0Y-55.0
X131.08Y-55.0
X192.92Y-110.0
X198.0Y-110.0
X201.0Y-80.0
X211.16Y-80.0
T8
X130.0Y-95.0
X130.0Y-100.0
X142.5Y-95.0
X142.5Y-100.0
X200.0Y-99.2
X206.0Y-85.0
X212.05Y-99.15
M30
