%TF.GenerationSoftware,KiCad,Pcbnew,10.0.1*%
%TF.CreationDate,2026-05-10T20:22:37+03:00*%
%TF.ProjectId,termostat-v2,7465726d-6f73-4746-9174-2d76322e6b69,rev?*%
%TF.SameCoordinates,Original*%
%TF.FileFunction,Soldermask,Top*%
%TF.FilePolarity,Negative*%
%FSLAX46Y46*%
G04 Gerber Fmt 4.6, Leading zero omitted, Abs format (unit mm)*
G04 Created by KiCad (PCBNEW 10.0.1) date 2026-05-10 20:22:37*
%MOMM*%
%LPD*%
G01*
G04 APERTURE LIST*
G04 Aperture macros list*
%AMRoundRect*
0 Rectangle with rounded corners*
0 $1 Rounding radius*
0 $2 $3 $4 $5 $6 $7 $8 $9 X,Y pos of 4 corners*
0 Add a 4 corners polygon primitive as box body*
4,1,4,$2,$3,$4,$5,$6,$7,$8,$9,$2,$3,0*
0 Add four circle primitives for the rounded corners*
1,1,$1+$1,$2,$3*
1,1,$1+$1,$4,$5*
1,1,$1+$1,$6,$7*
1,1,$1+$1,$8,$9*
0 Add four rect primitives between the rounded corners*
20,1,$1+$1,$2,$3,$4,$5,0*
20,1,$1+$1,$4,$5,$6,$7,0*
20,1,$1+$1,$6,$7,$8,$9,0*
20,1,$1+$1,$8,$9,$2,$3,0*%
G04 Aperture macros list end*
%ADD10C,2.000000*%
%ADD11C,3.500000*%
%ADD12C,1.600000*%
%ADD13RoundRect,0.249999X-0.850001X-0.850001X0.850001X-0.850001X0.850001X0.850001X-0.850001X0.850001X0*%
%ADD14C,2.200000*%
%ADD15R,1.700000X1.700000*%
%ADD16C,1.700000*%
%ADD17R,1.050000X1.500000*%
%ADD18O,1.050000X1.500000*%
%ADD19R,1.560000X1.560000*%
%ADD20C,1.560000*%
%ADD21C,3.000000*%
%ADD22R,1.800000X2.600000*%
%ADD23O,1.800000X2.600000*%
%ADD24C,1.728000*%
%ADD25R,2.000000X2.000000*%
%ADD26R,1.500000X1.500000*%
%ADD27C,1.500000*%
%ADD28RoundRect,0.250000X-0.550000X-0.550000X0.550000X-0.550000X0.550000X0.550000X-0.550000X0.550000X0*%
%ADD29RoundRect,0.250000X-0.550000X0.550000X-0.550000X-0.550000X0.550000X-0.550000X0.550000X0.550000X0*%
G04 APERTURE END LIST*
D10*
%TO.C,C4*%
X155000000Y-126000000D03*
X155000000Y-121000000D03*
%TD*%
D11*
%TO.C,REF\u002A\u002A*%
X76000000Y-135000000D03*
%TD*%
%TO.C,REF\u002A\u002A*%
X237000000Y-135000000D03*
%TD*%
D12*
%TO.C,R4*%
X211080000Y-100000000D03*
X200920000Y-100000000D03*
%TD*%
D13*
%TO.C,D1*%
X213920000Y-81000000D03*
D14*
X224080000Y-81000000D03*
%TD*%
D15*
%TO.C,J1*%
X231000000Y-109110000D03*
D16*
X231000000Y-111650000D03*
X231000000Y-114190000D03*
X231000000Y-116730000D03*
X231000000Y-119270000D03*
X231000000Y-121810000D03*
X231000000Y-124350000D03*
X231000000Y-126890000D03*
%TD*%
D12*
%TO.C,R1*%
X220000000Y-65000000D03*
X217000000Y-65000000D03*
%TD*%
%TO.C,R2*%
X231000000Y-63920000D03*
X231000000Y-74080000D03*
%TD*%
D10*
%TO.C,SW2*%
X106000000Y-116750000D03*
X112500000Y-116750000D03*
X106000000Y-121250000D03*
X112500000Y-121250000D03*
%TD*%
D17*
%TO.C,Q2*%
X99460000Y-104000000D03*
D18*
X100730000Y-104000000D03*
X102000000Y-104000000D03*
%TD*%
D10*
%TO.C,SW1*%
X91000000Y-116750000D03*
X97500000Y-116750000D03*
X91000000Y-121250000D03*
X97500000Y-121250000D03*
%TD*%
D12*
%TO.C,R3*%
X188000000Y-118920000D03*
X188000000Y-129080000D03*
%TD*%
D11*
%TO.C,REF\u002A\u002A*%
X76000000Y-56000000D03*
%TD*%
D19*
%TO.C,RV3*%
X82500000Y-103760000D03*
D20*
X85000000Y-108760000D03*
X87500000Y-103760000D03*
%TD*%
D11*
%TO.C,REF\u002A\u002A*%
X237000000Y-56000000D03*
%TD*%
D10*
%TO.C,SW4*%
X136000000Y-116750000D03*
X142500000Y-116750000D03*
X136000000Y-121250000D03*
X142500000Y-121250000D03*
%TD*%
%TO.C,SW3*%
X121000000Y-116750000D03*
X127500000Y-116750000D03*
X121000000Y-121250000D03*
X127500000Y-121250000D03*
%TD*%
D12*
%TO.C,R7*%
X83000000Y-114000000D03*
X83000000Y-124160000D03*
%TD*%
D21*
%TO.C,DS2*%
X84500900Y-64642500D03*
X84500900Y-95643200D03*
X159499480Y-95643200D03*
X159500000Y-64642500D03*
D22*
X90000000Y-64642500D03*
D23*
X92540000Y-64642500D03*
X95080000Y-64642500D03*
X97620000Y-64642500D03*
X100160000Y-64642500D03*
X102700000Y-64642500D03*
X105240000Y-64642500D03*
X107780000Y-64642500D03*
X110320000Y-64642500D03*
X112860000Y-64642500D03*
X115400000Y-64642500D03*
X117940000Y-64642500D03*
X120480000Y-64642500D03*
X123020000Y-64642500D03*
X125560000Y-64642500D03*
X128100000Y-64642500D03*
%TD*%
D24*
%TO.C,U1*%
X168570000Y-63300000D03*
X168570000Y-65840000D03*
X168570000Y-68380000D03*
X168570000Y-70920000D03*
X168570000Y-73460000D03*
X168570000Y-76000000D03*
X168570000Y-78540000D03*
X168570000Y-81080000D03*
X168570000Y-83620000D03*
X168570000Y-86160000D03*
X168570000Y-88700000D03*
X168570000Y-91240000D03*
X168570000Y-93780000D03*
X168570000Y-96320000D03*
X168570000Y-98860000D03*
X168570000Y-101400000D03*
X168570000Y-103940000D03*
X168570000Y-106480000D03*
X168570000Y-109020000D03*
X191430000Y-63300000D03*
X191430000Y-65840000D03*
X191430000Y-68380000D03*
X191430000Y-70920000D03*
X191430000Y-73460000D03*
X191430000Y-76000000D03*
X191430000Y-78540000D03*
X191430000Y-81080000D03*
X191430000Y-83620000D03*
X191430000Y-86160000D03*
X191430000Y-88700000D03*
X191430000Y-91240000D03*
X191430000Y-93780000D03*
X191430000Y-96320000D03*
X191430000Y-98860000D03*
X191430000Y-101400000D03*
X191430000Y-103940000D03*
X191430000Y-106480000D03*
X191430000Y-109020000D03*
%TD*%
D17*
%TO.C,Q1*%
X221460000Y-92000000D03*
D18*
X222730000Y-92000000D03*
X224000000Y-92000000D03*
%TD*%
D25*
%TO.C,BZ1*%
X203200000Y-88000000D03*
D10*
X210800000Y-88000000D03*
%TD*%
%TO.C,C2*%
X162000000Y-104000000D03*
X157000000Y-104000000D03*
%TD*%
D26*
%TO.C,U2*%
X169460000Y-116000000D03*
D27*
X172000000Y-116000000D03*
X174540000Y-116000000D03*
X177080000Y-116000000D03*
%TD*%
D28*
%TO.C,C3*%
X159597349Y-129000000D03*
D12*
X164597349Y-129000000D03*
%TD*%
D29*
%TO.C,C1*%
X212000000Y-121000000D03*
D12*
X212000000Y-126000000D03*
%TD*%
M02*
