%TF.GenerationSoftware,KiCad,Pcbnew,10.0.1*%
%TF.CreationDate,2026-05-10T20:22:37+03:00*%
%TF.ProjectId,termostat-v2,7465726d-6f73-4746-9174-2d76322e6b69,rev?*%
%TF.SameCoordinates,Original*%
%TF.FileFunction,Legend,Bot*%
%TF.FilePolarity,Positive*%
%FSLAX46Y46*%
G04 Gerber Fmt 4.6, Leading zero omitted, Abs format (unit mm)*
G04 Created by KiCad (PCBNEW 10.0.1) date 2026-05-10 20:22:37*
%MOMM*%
%LPD*%
G01*
G04 APERTURE LIST*
%ADD10C,0.200000*%
%ADD11C,0.100000*%
%ADD12C,0.150000*%
%ADD13C,0.120000*%
G04 APERTURE END LIST*
D10*
X149459520Y-82251723D02*
X148716663Y-82251723D01*
X149088091Y-83551723D02*
X149088091Y-82251723D01*
X147788092Y-83489819D02*
X147911901Y-83551723D01*
X147911901Y-83551723D02*
X148159520Y-83551723D01*
X148159520Y-83551723D02*
X148283330Y-83489819D01*
X148283330Y-83489819D02*
X148345234Y-83366009D01*
X148345234Y-83366009D02*
X148345234Y-82870771D01*
X148345234Y-82870771D02*
X148283330Y-82746961D01*
X148283330Y-82746961D02*
X148159520Y-82685057D01*
X148159520Y-82685057D02*
X147911901Y-82685057D01*
X147911901Y-82685057D02*
X147788092Y-82746961D01*
X147788092Y-82746961D02*
X147726187Y-82870771D01*
X147726187Y-82870771D02*
X147726187Y-82994580D01*
X147726187Y-82994580D02*
X148345234Y-83118390D01*
X147169044Y-83551723D02*
X147169044Y-82685057D01*
X147169044Y-82932676D02*
X147107139Y-82808866D01*
X147107139Y-82808866D02*
X147045234Y-82746961D01*
X147045234Y-82746961D02*
X146921425Y-82685057D01*
X146921425Y-82685057D02*
X146797615Y-82685057D01*
X146364282Y-83551723D02*
X146364282Y-82685057D01*
X146364282Y-82808866D02*
X146302377Y-82746961D01*
X146302377Y-82746961D02*
X146178567Y-82685057D01*
X146178567Y-82685057D02*
X145992853Y-82685057D01*
X145992853Y-82685057D02*
X145869044Y-82746961D01*
X145869044Y-82746961D02*
X145807139Y-82870771D01*
X145807139Y-82870771D02*
X145807139Y-83551723D01*
X145807139Y-82870771D02*
X145745234Y-82746961D01*
X145745234Y-82746961D02*
X145621425Y-82685057D01*
X145621425Y-82685057D02*
X145435710Y-82685057D01*
X145435710Y-82685057D02*
X145311901Y-82746961D01*
X145311901Y-82746961D02*
X145249996Y-82870771D01*
X145249996Y-82870771D02*
X145249996Y-83551723D01*
X144445234Y-83551723D02*
X144569044Y-83489819D01*
X144569044Y-83489819D02*
X144630949Y-83427914D01*
X144630949Y-83427914D02*
X144692853Y-83304104D01*
X144692853Y-83304104D02*
X144692853Y-82932676D01*
X144692853Y-82932676D02*
X144630949Y-82808866D01*
X144630949Y-82808866D02*
X144569044Y-82746961D01*
X144569044Y-82746961D02*
X144445234Y-82685057D01*
X144445234Y-82685057D02*
X144259520Y-82685057D01*
X144259520Y-82685057D02*
X144135711Y-82746961D01*
X144135711Y-82746961D02*
X144073806Y-82808866D01*
X144073806Y-82808866D02*
X144011901Y-82932676D01*
X144011901Y-82932676D02*
X144011901Y-83304104D01*
X144011901Y-83304104D02*
X144073806Y-83427914D01*
X144073806Y-83427914D02*
X144135711Y-83489819D01*
X144135711Y-83489819D02*
X144259520Y-83551723D01*
X144259520Y-83551723D02*
X144445234Y-83551723D01*
X143454759Y-83551723D02*
X143454759Y-82251723D01*
X143454759Y-82251723D02*
X142959521Y-82251723D01*
X142959521Y-82251723D02*
X142835711Y-82313628D01*
X142835711Y-82313628D02*
X142773806Y-82375533D01*
X142773806Y-82375533D02*
X142711902Y-82499342D01*
X142711902Y-82499342D02*
X142711902Y-82685057D01*
X142711902Y-82685057D02*
X142773806Y-82808866D01*
X142773806Y-82808866D02*
X142835711Y-82870771D01*
X142835711Y-82870771D02*
X142959521Y-82932676D01*
X142959521Y-82932676D02*
X143454759Y-82932676D01*
X142154759Y-83551723D02*
X142154759Y-82685057D01*
X142154759Y-82932676D02*
X142092854Y-82808866D01*
X142092854Y-82808866D02*
X142030949Y-82746961D01*
X142030949Y-82746961D02*
X141907140Y-82685057D01*
X141907140Y-82685057D02*
X141783330Y-82685057D01*
X141164282Y-83551723D02*
X141288092Y-83489819D01*
X141288092Y-83489819D02*
X141349997Y-83427914D01*
X141349997Y-83427914D02*
X141411901Y-83304104D01*
X141411901Y-83304104D02*
X141411901Y-82932676D01*
X141411901Y-82932676D02*
X141349997Y-82808866D01*
X141349997Y-82808866D02*
X141288092Y-82746961D01*
X141288092Y-82746961D02*
X141164282Y-82685057D01*
X141164282Y-82685057D02*
X140978568Y-82685057D01*
X140978568Y-82685057D02*
X140854759Y-82746961D01*
X140854759Y-82746961D02*
X140792854Y-82808866D01*
X140792854Y-82808866D02*
X140730949Y-82932676D01*
X140730949Y-82932676D02*
X140730949Y-83304104D01*
X140730949Y-83304104D02*
X140792854Y-83427914D01*
X140792854Y-83427914D02*
X140854759Y-83489819D01*
X140854759Y-83489819D02*
X140978568Y-83551723D01*
X140978568Y-83551723D02*
X141164282Y-83551723D01*
X139369045Y-82251723D02*
X138935712Y-83551723D01*
X138935712Y-83551723D02*
X138502378Y-82251723D01*
X138130949Y-82375533D02*
X138069045Y-82313628D01*
X138069045Y-82313628D02*
X137945235Y-82251723D01*
X137945235Y-82251723D02*
X137635711Y-82251723D01*
X137635711Y-82251723D02*
X137511902Y-82313628D01*
X137511902Y-82313628D02*
X137449997Y-82375533D01*
X137449997Y-82375533D02*
X137388092Y-82499342D01*
X137388092Y-82499342D02*
X137388092Y-82623152D01*
X137388092Y-82623152D02*
X137449997Y-82808866D01*
X137449997Y-82808866D02*
X138192854Y-83551723D01*
X138192854Y-83551723D02*
X137388092Y-83551723D01*
X135840474Y-83551723D02*
X135840474Y-82251723D01*
X135840474Y-82746961D02*
X135716664Y-82685057D01*
X135716664Y-82685057D02*
X135469045Y-82685057D01*
X135469045Y-82685057D02*
X135345236Y-82746961D01*
X135345236Y-82746961D02*
X135283331Y-82808866D01*
X135283331Y-82808866D02*
X135221426Y-82932676D01*
X135221426Y-82932676D02*
X135221426Y-83304104D01*
X135221426Y-83304104D02*
X135283331Y-83427914D01*
X135283331Y-83427914D02*
X135345236Y-83489819D01*
X135345236Y-83489819D02*
X135469045Y-83551723D01*
X135469045Y-83551723D02*
X135716664Y-83551723D01*
X135716664Y-83551723D02*
X135840474Y-83489819D01*
X134788093Y-82685057D02*
X134478569Y-83551723D01*
X134169046Y-82685057D02*
X134478569Y-83551723D01*
X134478569Y-83551723D02*
X134602379Y-83861247D01*
X134602379Y-83861247D02*
X134664284Y-83923152D01*
X134664284Y-83923152D02*
X134788093Y-83985057D01*
X132683332Y-83551723D02*
X132683332Y-82251723D01*
X132683332Y-82251723D02*
X132249998Y-83180295D01*
X132249998Y-83180295D02*
X131816665Y-82251723D01*
X131816665Y-82251723D02*
X131816665Y-83551723D01*
X131197618Y-83551723D02*
X131197618Y-82685057D01*
X131197618Y-82251723D02*
X131259522Y-82313628D01*
X131259522Y-82313628D02*
X131197618Y-82375533D01*
X131197618Y-82375533D02*
X131135713Y-82313628D01*
X131135713Y-82313628D02*
X131197618Y-82251723D01*
X131197618Y-82251723D02*
X131197618Y-82375533D01*
X130578570Y-83551723D02*
X130578570Y-82251723D01*
X130021427Y-83551723D02*
X130021427Y-82870771D01*
X130021427Y-82870771D02*
X130083332Y-82746961D01*
X130083332Y-82746961D02*
X130207141Y-82685057D01*
X130207141Y-82685057D02*
X130392855Y-82685057D01*
X130392855Y-82685057D02*
X130516665Y-82746961D01*
X130516665Y-82746961D02*
X130578570Y-82808866D01*
X128845237Y-83551723D02*
X128845237Y-82870771D01*
X128845237Y-82870771D02*
X128907142Y-82746961D01*
X128907142Y-82746961D02*
X129030951Y-82685057D01*
X129030951Y-82685057D02*
X129278570Y-82685057D01*
X129278570Y-82685057D02*
X129402380Y-82746961D01*
X128845237Y-83489819D02*
X128969046Y-83551723D01*
X128969046Y-83551723D02*
X129278570Y-83551723D01*
X129278570Y-83551723D02*
X129402380Y-83489819D01*
X129402380Y-83489819D02*
X129464284Y-83366009D01*
X129464284Y-83366009D02*
X129464284Y-83242199D01*
X129464284Y-83242199D02*
X129402380Y-83118390D01*
X129402380Y-83118390D02*
X129278570Y-83056485D01*
X129278570Y-83056485D02*
X128969046Y-83056485D01*
X128969046Y-83056485D02*
X128845237Y-82994580D01*
X128040475Y-83551723D02*
X128164285Y-83489819D01*
X128164285Y-83489819D02*
X128226190Y-83366009D01*
X128226190Y-83366009D02*
X128226190Y-82251723D01*
X126988095Y-83489819D02*
X127111904Y-83551723D01*
X127111904Y-83551723D02*
X127359523Y-83551723D01*
X127359523Y-83551723D02*
X127483333Y-83489819D01*
X127483333Y-83489819D02*
X127545238Y-83427914D01*
X127545238Y-83427914D02*
X127607142Y-83304104D01*
X127607142Y-83304104D02*
X127607142Y-82932676D01*
X127607142Y-82932676D02*
X127545238Y-82808866D01*
X127545238Y-82808866D02*
X127483333Y-82746961D01*
X127483333Y-82746961D02*
X127359523Y-82685057D01*
X127359523Y-82685057D02*
X127111904Y-82685057D01*
X127111904Y-82685057D02*
X126988095Y-82746961D01*
X125935714Y-83489819D02*
X126059523Y-83551723D01*
X126059523Y-83551723D02*
X126307142Y-83551723D01*
X126307142Y-83551723D02*
X126430952Y-83489819D01*
X126430952Y-83489819D02*
X126492856Y-83366009D01*
X126492856Y-83366009D02*
X126492856Y-82870771D01*
X126492856Y-82870771D02*
X126430952Y-82746961D01*
X126430952Y-82746961D02*
X126307142Y-82685057D01*
X126307142Y-82685057D02*
X126059523Y-82685057D01*
X126059523Y-82685057D02*
X125935714Y-82746961D01*
X125935714Y-82746961D02*
X125873809Y-82870771D01*
X125873809Y-82870771D02*
X125873809Y-82994580D01*
X125873809Y-82994580D02*
X126492856Y-83118390D01*
X124759523Y-83551723D02*
X124759523Y-82870771D01*
X124759523Y-82870771D02*
X124821428Y-82746961D01*
X124821428Y-82746961D02*
X124945237Y-82685057D01*
X124945237Y-82685057D02*
X125192856Y-82685057D01*
X125192856Y-82685057D02*
X125316666Y-82746961D01*
X124759523Y-83489819D02*
X124883332Y-83551723D01*
X124883332Y-83551723D02*
X125192856Y-83551723D01*
X125192856Y-83551723D02*
X125316666Y-83489819D01*
X125316666Y-83489819D02*
X125378570Y-83366009D01*
X125378570Y-83366009D02*
X125378570Y-83242199D01*
X125378570Y-83242199D02*
X125316666Y-83118390D01*
X125316666Y-83118390D02*
X125192856Y-83056485D01*
X125192856Y-83056485D02*
X124883332Y-83056485D01*
X124883332Y-83056485D02*
X124759523Y-82994580D01*
X122407143Y-83427914D02*
X122469047Y-83489819D01*
X122469047Y-83489819D02*
X122654762Y-83551723D01*
X122654762Y-83551723D02*
X122778571Y-83551723D01*
X122778571Y-83551723D02*
X122964285Y-83489819D01*
X122964285Y-83489819D02*
X123088095Y-83366009D01*
X123088095Y-83366009D02*
X123150000Y-83242199D01*
X123150000Y-83242199D02*
X123211904Y-82994580D01*
X123211904Y-82994580D02*
X123211904Y-82808866D01*
X123211904Y-82808866D02*
X123150000Y-82561247D01*
X123150000Y-82561247D02*
X123088095Y-82437438D01*
X123088095Y-82437438D02*
X122964285Y-82313628D01*
X122964285Y-82313628D02*
X122778571Y-82251723D01*
X122778571Y-82251723D02*
X122654762Y-82251723D01*
X122654762Y-82251723D02*
X122469047Y-82313628D01*
X122469047Y-82313628D02*
X122407143Y-82375533D01*
X121292857Y-83551723D02*
X121292857Y-82870771D01*
X121292857Y-82870771D02*
X121354762Y-82746961D01*
X121354762Y-82746961D02*
X121478571Y-82685057D01*
X121478571Y-82685057D02*
X121726190Y-82685057D01*
X121726190Y-82685057D02*
X121850000Y-82746961D01*
X121292857Y-83489819D02*
X121416666Y-83551723D01*
X121416666Y-83551723D02*
X121726190Y-83551723D01*
X121726190Y-83551723D02*
X121850000Y-83489819D01*
X121850000Y-83489819D02*
X121911904Y-83366009D01*
X121911904Y-83366009D02*
X121911904Y-83242199D01*
X121911904Y-83242199D02*
X121850000Y-83118390D01*
X121850000Y-83118390D02*
X121726190Y-83056485D01*
X121726190Y-83056485D02*
X121416666Y-83056485D01*
X121416666Y-83056485D02*
X121292857Y-82994580D01*
X120859524Y-82685057D02*
X120364286Y-82685057D01*
X120673810Y-82251723D02*
X120673810Y-83366009D01*
X120673810Y-83366009D02*
X120611905Y-83489819D01*
X120611905Y-83489819D02*
X120488095Y-83551723D01*
X120488095Y-83551723D02*
X120364286Y-83551723D01*
X119373810Y-83551723D02*
X119373810Y-82870771D01*
X119373810Y-82870771D02*
X119435715Y-82746961D01*
X119435715Y-82746961D02*
X119559524Y-82685057D01*
X119559524Y-82685057D02*
X119807143Y-82685057D01*
X119807143Y-82685057D02*
X119930953Y-82746961D01*
X119373810Y-83489819D02*
X119497619Y-83551723D01*
X119497619Y-83551723D02*
X119807143Y-83551723D01*
X119807143Y-83551723D02*
X119930953Y-83489819D01*
X119930953Y-83489819D02*
X119992857Y-83366009D01*
X119992857Y-83366009D02*
X119992857Y-83242199D01*
X119992857Y-83242199D02*
X119930953Y-83118390D01*
X119930953Y-83118390D02*
X119807143Y-83056485D01*
X119807143Y-83056485D02*
X119497619Y-83056485D01*
X119497619Y-83056485D02*
X119373810Y-82994580D01*
X118569048Y-83551723D02*
X118692858Y-83489819D01*
X118692858Y-83489819D02*
X118754763Y-83366009D01*
X118754763Y-83366009D02*
X118754763Y-82251723D01*
X118073811Y-83551723D02*
X118073811Y-82685057D01*
X118073811Y-82251723D02*
X118135715Y-82313628D01*
X118135715Y-82313628D02*
X118073811Y-82375533D01*
X118073811Y-82375533D02*
X118011906Y-82313628D01*
X118011906Y-82313628D02*
X118073811Y-82251723D01*
X118073811Y-82251723D02*
X118073811Y-82375533D01*
X117454763Y-82685057D02*
X117454763Y-83551723D01*
X117454763Y-82808866D02*
X117392858Y-82746961D01*
X117392858Y-82746961D02*
X117269048Y-82685057D01*
X117269048Y-82685057D02*
X117083334Y-82685057D01*
X117083334Y-82685057D02*
X116959525Y-82746961D01*
X116959525Y-82746961D02*
X116897620Y-82870771D01*
X116897620Y-82870771D02*
X116897620Y-83551723D01*
X115350001Y-83180295D02*
X114730954Y-83180295D01*
X115473811Y-83551723D02*
X115040478Y-82251723D01*
X115040478Y-82251723D02*
X114607144Y-83551723D01*
X114173811Y-82685057D02*
X114173811Y-83551723D01*
X114173811Y-82808866D02*
X114111906Y-82746961D01*
X114111906Y-82746961D02*
X113988096Y-82685057D01*
X113988096Y-82685057D02*
X113802382Y-82685057D01*
X113802382Y-82685057D02*
X113678573Y-82746961D01*
X113678573Y-82746961D02*
X113616668Y-82870771D01*
X113616668Y-82870771D02*
X113616668Y-83551723D01*
X113183335Y-82685057D02*
X112688097Y-82685057D01*
X112997621Y-82251723D02*
X112997621Y-83366009D01*
X112997621Y-83366009D02*
X112935716Y-83489819D01*
X112935716Y-83489819D02*
X112811906Y-83551723D01*
X112811906Y-83551723D02*
X112688097Y-83551723D01*
X112069049Y-83551723D02*
X112192859Y-83489819D01*
X112192859Y-83489819D02*
X112254764Y-83427914D01*
X112254764Y-83427914D02*
X112316668Y-83304104D01*
X112316668Y-83304104D02*
X112316668Y-82932676D01*
X112316668Y-82932676D02*
X112254764Y-82808866D01*
X112254764Y-82808866D02*
X112192859Y-82746961D01*
X112192859Y-82746961D02*
X112069049Y-82685057D01*
X112069049Y-82685057D02*
X111883335Y-82685057D01*
X111883335Y-82685057D02*
X111759526Y-82746961D01*
X111759526Y-82746961D02*
X111697621Y-82808866D01*
X111697621Y-82808866D02*
X111635716Y-82932676D01*
X111635716Y-82932676D02*
X111635716Y-83304104D01*
X111635716Y-83304104D02*
X111697621Y-83427914D01*
X111697621Y-83427914D02*
X111759526Y-83489819D01*
X111759526Y-83489819D02*
X111883335Y-83551723D01*
X111883335Y-83551723D02*
X112069049Y-83551723D01*
X111078574Y-82685057D02*
X111078574Y-83551723D01*
X111078574Y-82808866D02*
X111016669Y-82746961D01*
X111016669Y-82746961D02*
X110892859Y-82685057D01*
X110892859Y-82685057D02*
X110707145Y-82685057D01*
X110707145Y-82685057D02*
X110583336Y-82746961D01*
X110583336Y-82746961D02*
X110521431Y-82870771D01*
X110521431Y-82870771D02*
X110521431Y-83551723D01*
X109902384Y-83551723D02*
X109902384Y-82685057D01*
X109902384Y-82251723D02*
X109964288Y-82313628D01*
X109964288Y-82313628D02*
X109902384Y-82375533D01*
X109902384Y-82375533D02*
X109840479Y-82313628D01*
X109840479Y-82313628D02*
X109902384Y-82251723D01*
X109902384Y-82251723D02*
X109902384Y-82375533D01*
X109097621Y-83551723D02*
X109221431Y-83489819D01*
X109221431Y-83489819D02*
X109283336Y-83427914D01*
X109283336Y-83427914D02*
X109345240Y-83304104D01*
X109345240Y-83304104D02*
X109345240Y-82932676D01*
X109345240Y-82932676D02*
X109283336Y-82808866D01*
X109283336Y-82808866D02*
X109221431Y-82746961D01*
X109221431Y-82746961D02*
X109097621Y-82685057D01*
X109097621Y-82685057D02*
X108911907Y-82685057D01*
X108911907Y-82685057D02*
X108788098Y-82746961D01*
X108788098Y-82746961D02*
X108726193Y-82808866D01*
X108726193Y-82808866D02*
X108664288Y-82932676D01*
X108664288Y-82932676D02*
X108664288Y-83304104D01*
X108664288Y-83304104D02*
X108726193Y-83427914D01*
X108726193Y-83427914D02*
X108788098Y-83489819D01*
X108788098Y-83489819D02*
X108911907Y-83551723D01*
X108911907Y-83551723D02*
X109097621Y-83551723D01*
X144073807Y-84344650D02*
X143330950Y-84344650D01*
X143702378Y-85644650D02*
X143702378Y-84344650D01*
X142897617Y-85644650D02*
X142897617Y-84344650D01*
X142340474Y-85644650D02*
X142340474Y-84963698D01*
X142340474Y-84963698D02*
X142402379Y-84839888D01*
X142402379Y-84839888D02*
X142526188Y-84777984D01*
X142526188Y-84777984D02*
X142711902Y-84777984D01*
X142711902Y-84777984D02*
X142835712Y-84839888D01*
X142835712Y-84839888D02*
X142897617Y-84901793D01*
X141721427Y-85644650D02*
X141721427Y-84777984D01*
X141721427Y-84344650D02*
X141783331Y-84406555D01*
X141783331Y-84406555D02*
X141721427Y-84468460D01*
X141721427Y-84468460D02*
X141659522Y-84406555D01*
X141659522Y-84406555D02*
X141721427Y-84344650D01*
X141721427Y-84344650D02*
X141721427Y-84468460D01*
X141164283Y-85582746D02*
X141040474Y-85644650D01*
X141040474Y-85644650D02*
X140792855Y-85644650D01*
X140792855Y-85644650D02*
X140669045Y-85582746D01*
X140669045Y-85582746D02*
X140607141Y-85458936D01*
X140607141Y-85458936D02*
X140607141Y-85397031D01*
X140607141Y-85397031D02*
X140669045Y-85273222D01*
X140669045Y-85273222D02*
X140792855Y-85211317D01*
X140792855Y-85211317D02*
X140978569Y-85211317D01*
X140978569Y-85211317D02*
X141102379Y-85149412D01*
X141102379Y-85149412D02*
X141164283Y-85025603D01*
X141164283Y-85025603D02*
X141164283Y-84963698D01*
X141164283Y-84963698D02*
X141102379Y-84839888D01*
X141102379Y-84839888D02*
X140978569Y-84777984D01*
X140978569Y-84777984D02*
X140792855Y-84777984D01*
X140792855Y-84777984D02*
X140669045Y-84839888D01*
X139059522Y-85644650D02*
X139059522Y-84777984D01*
X139059522Y-84344650D02*
X139121426Y-84406555D01*
X139121426Y-84406555D02*
X139059522Y-84468460D01*
X139059522Y-84468460D02*
X138997617Y-84406555D01*
X138997617Y-84406555D02*
X139059522Y-84344650D01*
X139059522Y-84344650D02*
X139059522Y-84468460D01*
X138502378Y-85582746D02*
X138378569Y-85644650D01*
X138378569Y-85644650D02*
X138130950Y-85644650D01*
X138130950Y-85644650D02*
X138007140Y-85582746D01*
X138007140Y-85582746D02*
X137945236Y-85458936D01*
X137945236Y-85458936D02*
X137945236Y-85397031D01*
X137945236Y-85397031D02*
X138007140Y-85273222D01*
X138007140Y-85273222D02*
X138130950Y-85211317D01*
X138130950Y-85211317D02*
X138316664Y-85211317D01*
X138316664Y-85211317D02*
X138440474Y-85149412D01*
X138440474Y-85149412D02*
X138502378Y-85025603D01*
X138502378Y-85025603D02*
X138502378Y-84963698D01*
X138502378Y-84963698D02*
X138440474Y-84839888D01*
X138440474Y-84839888D02*
X138316664Y-84777984D01*
X138316664Y-84777984D02*
X138130950Y-84777984D01*
X138130950Y-84777984D02*
X138007140Y-84839888D01*
X136583331Y-84777984D02*
X136088093Y-84777984D01*
X136397617Y-84344650D02*
X136397617Y-85458936D01*
X136397617Y-85458936D02*
X136335712Y-85582746D01*
X136335712Y-85582746D02*
X136211902Y-85644650D01*
X136211902Y-85644650D02*
X136088093Y-85644650D01*
X135654760Y-85644650D02*
X135654760Y-84344650D01*
X135097617Y-85644650D02*
X135097617Y-84963698D01*
X135097617Y-84963698D02*
X135159522Y-84839888D01*
X135159522Y-84839888D02*
X135283331Y-84777984D01*
X135283331Y-84777984D02*
X135469045Y-84777984D01*
X135469045Y-84777984D02*
X135592855Y-84839888D01*
X135592855Y-84839888D02*
X135654760Y-84901793D01*
X133983332Y-85582746D02*
X134107141Y-85644650D01*
X134107141Y-85644650D02*
X134354760Y-85644650D01*
X134354760Y-85644650D02*
X134478570Y-85582746D01*
X134478570Y-85582746D02*
X134540474Y-85458936D01*
X134540474Y-85458936D02*
X134540474Y-84963698D01*
X134540474Y-84963698D02*
X134478570Y-84839888D01*
X134478570Y-84839888D02*
X134354760Y-84777984D01*
X134354760Y-84777984D02*
X134107141Y-84777984D01*
X134107141Y-84777984D02*
X133983332Y-84839888D01*
X133983332Y-84839888D02*
X133921427Y-84963698D01*
X133921427Y-84963698D02*
X133921427Y-85087507D01*
X133921427Y-85087507D02*
X134540474Y-85211317D01*
X132559522Y-84777984D02*
X132064284Y-84777984D01*
X132373808Y-84344650D02*
X132373808Y-85458936D01*
X132373808Y-85458936D02*
X132311903Y-85582746D01*
X132311903Y-85582746D02*
X132188093Y-85644650D01*
X132188093Y-85644650D02*
X132064284Y-85644650D01*
X131135713Y-85582746D02*
X131259522Y-85644650D01*
X131259522Y-85644650D02*
X131507141Y-85644650D01*
X131507141Y-85644650D02*
X131630951Y-85582746D01*
X131630951Y-85582746D02*
X131692855Y-85458936D01*
X131692855Y-85458936D02*
X131692855Y-84963698D01*
X131692855Y-84963698D02*
X131630951Y-84839888D01*
X131630951Y-84839888D02*
X131507141Y-84777984D01*
X131507141Y-84777984D02*
X131259522Y-84777984D01*
X131259522Y-84777984D02*
X131135713Y-84839888D01*
X131135713Y-84839888D02*
X131073808Y-84963698D01*
X131073808Y-84963698D02*
X131073808Y-85087507D01*
X131073808Y-85087507D02*
X131692855Y-85211317D01*
X130516665Y-85644650D02*
X130516665Y-84777984D01*
X130516665Y-85025603D02*
X130454760Y-84901793D01*
X130454760Y-84901793D02*
X130392855Y-84839888D01*
X130392855Y-84839888D02*
X130269046Y-84777984D01*
X130269046Y-84777984D02*
X130145236Y-84777984D01*
X129711903Y-85644650D02*
X129711903Y-84777984D01*
X129711903Y-84901793D02*
X129649998Y-84839888D01*
X129649998Y-84839888D02*
X129526188Y-84777984D01*
X129526188Y-84777984D02*
X129340474Y-84777984D01*
X129340474Y-84777984D02*
X129216665Y-84839888D01*
X129216665Y-84839888D02*
X129154760Y-84963698D01*
X129154760Y-84963698D02*
X129154760Y-85644650D01*
X129154760Y-84963698D02*
X129092855Y-84839888D01*
X129092855Y-84839888D02*
X128969046Y-84777984D01*
X128969046Y-84777984D02*
X128783331Y-84777984D01*
X128783331Y-84777984D02*
X128659522Y-84839888D01*
X128659522Y-84839888D02*
X128597617Y-84963698D01*
X128597617Y-84963698D02*
X128597617Y-85644650D01*
X127792855Y-85644650D02*
X127916665Y-85582746D01*
X127916665Y-85582746D02*
X127978570Y-85520841D01*
X127978570Y-85520841D02*
X128040474Y-85397031D01*
X128040474Y-85397031D02*
X128040474Y-85025603D01*
X128040474Y-85025603D02*
X127978570Y-84901793D01*
X127978570Y-84901793D02*
X127916665Y-84839888D01*
X127916665Y-84839888D02*
X127792855Y-84777984D01*
X127792855Y-84777984D02*
X127607141Y-84777984D01*
X127607141Y-84777984D02*
X127483332Y-84839888D01*
X127483332Y-84839888D02*
X127421427Y-84901793D01*
X127421427Y-84901793D02*
X127359522Y-85025603D01*
X127359522Y-85025603D02*
X127359522Y-85397031D01*
X127359522Y-85397031D02*
X127421427Y-85520841D01*
X127421427Y-85520841D02*
X127483332Y-85582746D01*
X127483332Y-85582746D02*
X127607141Y-85644650D01*
X127607141Y-85644650D02*
X127792855Y-85644650D01*
X126864284Y-85582746D02*
X126740475Y-85644650D01*
X126740475Y-85644650D02*
X126492856Y-85644650D01*
X126492856Y-85644650D02*
X126369046Y-85582746D01*
X126369046Y-85582746D02*
X126307142Y-85458936D01*
X126307142Y-85458936D02*
X126307142Y-85397031D01*
X126307142Y-85397031D02*
X126369046Y-85273222D01*
X126369046Y-85273222D02*
X126492856Y-85211317D01*
X126492856Y-85211317D02*
X126678570Y-85211317D01*
X126678570Y-85211317D02*
X126802380Y-85149412D01*
X126802380Y-85149412D02*
X126864284Y-85025603D01*
X126864284Y-85025603D02*
X126864284Y-84963698D01*
X126864284Y-84963698D02*
X126802380Y-84839888D01*
X126802380Y-84839888D02*
X126678570Y-84777984D01*
X126678570Y-84777984D02*
X126492856Y-84777984D01*
X126492856Y-84777984D02*
X126369046Y-84839888D01*
X125935713Y-84777984D02*
X125440475Y-84777984D01*
X125749999Y-84344650D02*
X125749999Y-85458936D01*
X125749999Y-85458936D02*
X125688094Y-85582746D01*
X125688094Y-85582746D02*
X125564284Y-85644650D01*
X125564284Y-85644650D02*
X125440475Y-85644650D01*
X124449999Y-85644650D02*
X124449999Y-84963698D01*
X124449999Y-84963698D02*
X124511904Y-84839888D01*
X124511904Y-84839888D02*
X124635713Y-84777984D01*
X124635713Y-84777984D02*
X124883332Y-84777984D01*
X124883332Y-84777984D02*
X125007142Y-84839888D01*
X124449999Y-85582746D02*
X124573808Y-85644650D01*
X124573808Y-85644650D02*
X124883332Y-85644650D01*
X124883332Y-85644650D02*
X125007142Y-85582746D01*
X125007142Y-85582746D02*
X125069046Y-85458936D01*
X125069046Y-85458936D02*
X125069046Y-85335126D01*
X125069046Y-85335126D02*
X125007142Y-85211317D01*
X125007142Y-85211317D02*
X124883332Y-85149412D01*
X124883332Y-85149412D02*
X124573808Y-85149412D01*
X124573808Y-85149412D02*
X124449999Y-85087507D01*
X124016666Y-84777984D02*
X123521428Y-84777984D01*
X123830952Y-84344650D02*
X123830952Y-85458936D01*
X123830952Y-85458936D02*
X123769047Y-85582746D01*
X123769047Y-85582746D02*
X123645237Y-85644650D01*
X123645237Y-85644650D02*
X123521428Y-85644650D01*
X121540476Y-84777984D02*
X121540476Y-85644650D01*
X122097619Y-84777984D02*
X122097619Y-85458936D01*
X122097619Y-85458936D02*
X122035714Y-85582746D01*
X122035714Y-85582746D02*
X121911904Y-85644650D01*
X121911904Y-85644650D02*
X121726190Y-85644650D01*
X121726190Y-85644650D02*
X121602381Y-85582746D01*
X121602381Y-85582746D02*
X121540476Y-85520841D01*
X120921429Y-84777984D02*
X120921429Y-85644650D01*
X120921429Y-84901793D02*
X120859524Y-84839888D01*
X120859524Y-84839888D02*
X120735714Y-84777984D01*
X120735714Y-84777984D02*
X120550000Y-84777984D01*
X120550000Y-84777984D02*
X120426191Y-84839888D01*
X120426191Y-84839888D02*
X120364286Y-84963698D01*
X120364286Y-84963698D02*
X120364286Y-85644650D01*
X119745239Y-85644650D02*
X119745239Y-84777984D01*
X119745239Y-84344650D02*
X119807143Y-84406555D01*
X119807143Y-84406555D02*
X119745239Y-84468460D01*
X119745239Y-84468460D02*
X119683334Y-84406555D01*
X119683334Y-84406555D02*
X119745239Y-84344650D01*
X119745239Y-84344650D02*
X119745239Y-84468460D01*
X119311905Y-84777984D02*
X118816667Y-84777984D01*
X119126191Y-84344650D02*
X119126191Y-85458936D01*
X119126191Y-85458936D02*
X119064286Y-85582746D01*
X119064286Y-85582746D02*
X118940476Y-85644650D01*
X118940476Y-85644650D02*
X118816667Y-85644650D01*
X117392858Y-85644650D02*
X117392858Y-84344650D01*
X117392858Y-84344650D02*
X116897620Y-84344650D01*
X116897620Y-84344650D02*
X116773810Y-84406555D01*
X116773810Y-84406555D02*
X116711905Y-84468460D01*
X116711905Y-84468460D02*
X116650001Y-84592269D01*
X116650001Y-84592269D02*
X116650001Y-84777984D01*
X116650001Y-84777984D02*
X116711905Y-84901793D01*
X116711905Y-84901793D02*
X116773810Y-84963698D01*
X116773810Y-84963698D02*
X116897620Y-85025603D01*
X116897620Y-85025603D02*
X117392858Y-85025603D01*
X115350001Y-85520841D02*
X115411905Y-85582746D01*
X115411905Y-85582746D02*
X115597620Y-85644650D01*
X115597620Y-85644650D02*
X115721429Y-85644650D01*
X115721429Y-85644650D02*
X115907143Y-85582746D01*
X115907143Y-85582746D02*
X116030953Y-85458936D01*
X116030953Y-85458936D02*
X116092858Y-85335126D01*
X116092858Y-85335126D02*
X116154762Y-85087507D01*
X116154762Y-85087507D02*
X116154762Y-84901793D01*
X116154762Y-84901793D02*
X116092858Y-84654174D01*
X116092858Y-84654174D02*
X116030953Y-84530365D01*
X116030953Y-84530365D02*
X115907143Y-84406555D01*
X115907143Y-84406555D02*
X115721429Y-84344650D01*
X115721429Y-84344650D02*
X115597620Y-84344650D01*
X115597620Y-84344650D02*
X115411905Y-84406555D01*
X115411905Y-84406555D02*
X115350001Y-84468460D01*
X114359524Y-84963698D02*
X114173810Y-85025603D01*
X114173810Y-85025603D02*
X114111905Y-85087507D01*
X114111905Y-85087507D02*
X114050001Y-85211317D01*
X114050001Y-85211317D02*
X114050001Y-85397031D01*
X114050001Y-85397031D02*
X114111905Y-85520841D01*
X114111905Y-85520841D02*
X114173810Y-85582746D01*
X114173810Y-85582746D02*
X114297620Y-85644650D01*
X114297620Y-85644650D02*
X114792858Y-85644650D01*
X114792858Y-85644650D02*
X114792858Y-84344650D01*
X114792858Y-84344650D02*
X114359524Y-84344650D01*
X114359524Y-84344650D02*
X114235715Y-84406555D01*
X114235715Y-84406555D02*
X114173810Y-84468460D01*
X114173810Y-84468460D02*
X114111905Y-84592269D01*
X114111905Y-84592269D02*
X114111905Y-84716079D01*
X114111905Y-84716079D02*
X114173810Y-84839888D01*
X114173810Y-84839888D02*
X114235715Y-84901793D01*
X114235715Y-84901793D02*
X114359524Y-84963698D01*
X114359524Y-84963698D02*
X114792858Y-84963698D01*
X151873805Y-87056625D02*
X152307139Y-87056625D01*
X152307139Y-87737577D02*
X152307139Y-86437577D01*
X152307139Y-86437577D02*
X151688091Y-86437577D01*
X151007138Y-87737577D02*
X151130948Y-87675673D01*
X151130948Y-87675673D02*
X151192853Y-87613768D01*
X151192853Y-87613768D02*
X151254757Y-87489958D01*
X151254757Y-87489958D02*
X151254757Y-87118530D01*
X151254757Y-87118530D02*
X151192853Y-86994720D01*
X151192853Y-86994720D02*
X151130948Y-86932815D01*
X151130948Y-86932815D02*
X151007138Y-86870911D01*
X151007138Y-86870911D02*
X150821424Y-86870911D01*
X150821424Y-86870911D02*
X150697615Y-86932815D01*
X150697615Y-86932815D02*
X150635710Y-86994720D01*
X150635710Y-86994720D02*
X150573805Y-87118530D01*
X150573805Y-87118530D02*
X150573805Y-87489958D01*
X150573805Y-87489958D02*
X150635710Y-87613768D01*
X150635710Y-87613768D02*
X150697615Y-87675673D01*
X150697615Y-87675673D02*
X150821424Y-87737577D01*
X150821424Y-87737577D02*
X151007138Y-87737577D01*
X150016663Y-87737577D02*
X150016663Y-86870911D01*
X150016663Y-87118530D02*
X149954758Y-86994720D01*
X149954758Y-86994720D02*
X149892853Y-86932815D01*
X149892853Y-86932815D02*
X149769044Y-86870911D01*
X149769044Y-86870911D02*
X149645234Y-86870911D01*
X148221425Y-87737577D02*
X148221425Y-86437577D01*
X147664282Y-87737577D02*
X147664282Y-87056625D01*
X147664282Y-87056625D02*
X147726187Y-86932815D01*
X147726187Y-86932815D02*
X147849996Y-86870911D01*
X147849996Y-86870911D02*
X148035710Y-86870911D01*
X148035710Y-86870911D02*
X148159520Y-86932815D01*
X148159520Y-86932815D02*
X148221425Y-86994720D01*
X146549997Y-87675673D02*
X146673806Y-87737577D01*
X146673806Y-87737577D02*
X146921425Y-87737577D01*
X146921425Y-87737577D02*
X147045235Y-87675673D01*
X147045235Y-87675673D02*
X147107139Y-87551863D01*
X147107139Y-87551863D02*
X147107139Y-87056625D01*
X147107139Y-87056625D02*
X147045235Y-86932815D01*
X147045235Y-86932815D02*
X146921425Y-86870911D01*
X146921425Y-86870911D02*
X146673806Y-86870911D01*
X146673806Y-86870911D02*
X146549997Y-86932815D01*
X146549997Y-86932815D02*
X146488092Y-87056625D01*
X146488092Y-87056625D02*
X146488092Y-87180434D01*
X146488092Y-87180434D02*
X147107139Y-87304244D01*
X145745234Y-87737577D02*
X145869044Y-87675673D01*
X145869044Y-87675673D02*
X145930949Y-87551863D01*
X145930949Y-87551863D02*
X145930949Y-86437577D01*
X145249997Y-86870911D02*
X145249997Y-88170911D01*
X145249997Y-86932815D02*
X145126187Y-86870911D01*
X145126187Y-86870911D02*
X144878568Y-86870911D01*
X144878568Y-86870911D02*
X144754759Y-86932815D01*
X144754759Y-86932815D02*
X144692854Y-86994720D01*
X144692854Y-86994720D02*
X144630949Y-87118530D01*
X144630949Y-87118530D02*
X144630949Y-87489958D01*
X144630949Y-87489958D02*
X144692854Y-87613768D01*
X144692854Y-87613768D02*
X144754759Y-87675673D01*
X144754759Y-87675673D02*
X144878568Y-87737577D01*
X144878568Y-87737577D02*
X145126187Y-87737577D01*
X145126187Y-87737577D02*
X145249997Y-87675673D01*
X142526188Y-87737577D02*
X142526188Y-87056625D01*
X142526188Y-87056625D02*
X142588093Y-86932815D01*
X142588093Y-86932815D02*
X142711902Y-86870911D01*
X142711902Y-86870911D02*
X142959521Y-86870911D01*
X142959521Y-86870911D02*
X143083331Y-86932815D01*
X142526188Y-87675673D02*
X142649997Y-87737577D01*
X142649997Y-87737577D02*
X142959521Y-87737577D01*
X142959521Y-87737577D02*
X143083331Y-87675673D01*
X143083331Y-87675673D02*
X143145235Y-87551863D01*
X143145235Y-87551863D02*
X143145235Y-87428053D01*
X143145235Y-87428053D02*
X143083331Y-87304244D01*
X143083331Y-87304244D02*
X142959521Y-87242339D01*
X142959521Y-87242339D02*
X142649997Y-87242339D01*
X142649997Y-87242339D02*
X142526188Y-87180434D01*
X141907141Y-86870911D02*
X141907141Y-87737577D01*
X141907141Y-86994720D02*
X141845236Y-86932815D01*
X141845236Y-86932815D02*
X141721426Y-86870911D01*
X141721426Y-86870911D02*
X141535712Y-86870911D01*
X141535712Y-86870911D02*
X141411903Y-86932815D01*
X141411903Y-86932815D02*
X141349998Y-87056625D01*
X141349998Y-87056625D02*
X141349998Y-87737577D01*
X140173808Y-87737577D02*
X140173808Y-86437577D01*
X140173808Y-87675673D02*
X140297617Y-87737577D01*
X140297617Y-87737577D02*
X140545236Y-87737577D01*
X140545236Y-87737577D02*
X140669046Y-87675673D01*
X140669046Y-87675673D02*
X140730951Y-87613768D01*
X140730951Y-87613768D02*
X140792855Y-87489958D01*
X140792855Y-87489958D02*
X140792855Y-87118530D01*
X140792855Y-87118530D02*
X140730951Y-86994720D01*
X140730951Y-86994720D02*
X140669046Y-86932815D01*
X140669046Y-86932815D02*
X140545236Y-86870911D01*
X140545236Y-86870911D02*
X140297617Y-86870911D01*
X140297617Y-86870911D02*
X140173808Y-86932815D01*
X138564285Y-87737577D02*
X138564285Y-86870911D01*
X138564285Y-86437577D02*
X138626189Y-86499482D01*
X138626189Y-86499482D02*
X138564285Y-86561387D01*
X138564285Y-86561387D02*
X138502380Y-86499482D01*
X138502380Y-86499482D02*
X138564285Y-86437577D01*
X138564285Y-86437577D02*
X138564285Y-86561387D01*
X137945237Y-86870911D02*
X137945237Y-87737577D01*
X137945237Y-86994720D02*
X137883332Y-86932815D01*
X137883332Y-86932815D02*
X137759522Y-86870911D01*
X137759522Y-86870911D02*
X137573808Y-86870911D01*
X137573808Y-86870911D02*
X137449999Y-86932815D01*
X137449999Y-86932815D02*
X137388094Y-87056625D01*
X137388094Y-87056625D02*
X137388094Y-87737577D01*
X136830951Y-87675673D02*
X136707142Y-87737577D01*
X136707142Y-87737577D02*
X136459523Y-87737577D01*
X136459523Y-87737577D02*
X136335713Y-87675673D01*
X136335713Y-87675673D02*
X136273809Y-87551863D01*
X136273809Y-87551863D02*
X136273809Y-87489958D01*
X136273809Y-87489958D02*
X136335713Y-87366149D01*
X136335713Y-87366149D02*
X136459523Y-87304244D01*
X136459523Y-87304244D02*
X136645237Y-87304244D01*
X136645237Y-87304244D02*
X136769047Y-87242339D01*
X136769047Y-87242339D02*
X136830951Y-87118530D01*
X136830951Y-87118530D02*
X136830951Y-87056625D01*
X136830951Y-87056625D02*
X136769047Y-86932815D01*
X136769047Y-86932815D02*
X136645237Y-86870911D01*
X136645237Y-86870911D02*
X136459523Y-86870911D01*
X136459523Y-86870911D02*
X136335713Y-86932815D01*
X135902380Y-86870911D02*
X135407142Y-86870911D01*
X135716666Y-86437577D02*
X135716666Y-87551863D01*
X135716666Y-87551863D02*
X135654761Y-87675673D01*
X135654761Y-87675673D02*
X135530951Y-87737577D01*
X135530951Y-87737577D02*
X135407142Y-87737577D01*
X134973809Y-87737577D02*
X134973809Y-86870911D01*
X134973809Y-87118530D02*
X134911904Y-86994720D01*
X134911904Y-86994720D02*
X134849999Y-86932815D01*
X134849999Y-86932815D02*
X134726190Y-86870911D01*
X134726190Y-86870911D02*
X134602380Y-86870911D01*
X133611904Y-86870911D02*
X133611904Y-87737577D01*
X134169047Y-86870911D02*
X134169047Y-87551863D01*
X134169047Y-87551863D02*
X134107142Y-87675673D01*
X134107142Y-87675673D02*
X133983332Y-87737577D01*
X133983332Y-87737577D02*
X133797618Y-87737577D01*
X133797618Y-87737577D02*
X133673809Y-87675673D01*
X133673809Y-87675673D02*
X133611904Y-87613768D01*
X132435714Y-87675673D02*
X132559523Y-87737577D01*
X132559523Y-87737577D02*
X132807142Y-87737577D01*
X132807142Y-87737577D02*
X132930952Y-87675673D01*
X132930952Y-87675673D02*
X132992857Y-87613768D01*
X132992857Y-87613768D02*
X133054761Y-87489958D01*
X133054761Y-87489958D02*
X133054761Y-87118530D01*
X133054761Y-87118530D02*
X132992857Y-86994720D01*
X132992857Y-86994720D02*
X132930952Y-86932815D01*
X132930952Y-86932815D02*
X132807142Y-86870911D01*
X132807142Y-86870911D02*
X132559523Y-86870911D01*
X132559523Y-86870911D02*
X132435714Y-86932815D01*
X132064285Y-86870911D02*
X131569047Y-86870911D01*
X131878571Y-86437577D02*
X131878571Y-87551863D01*
X131878571Y-87551863D02*
X131816666Y-87675673D01*
X131816666Y-87675673D02*
X131692856Y-87737577D01*
X131692856Y-87737577D02*
X131569047Y-87737577D01*
X131135714Y-87737577D02*
X131135714Y-86870911D01*
X131135714Y-86437577D02*
X131197618Y-86499482D01*
X131197618Y-86499482D02*
X131135714Y-86561387D01*
X131135714Y-86561387D02*
X131073809Y-86499482D01*
X131073809Y-86499482D02*
X131135714Y-86437577D01*
X131135714Y-86437577D02*
X131135714Y-86561387D01*
X130330951Y-87737577D02*
X130454761Y-87675673D01*
X130454761Y-87675673D02*
X130516666Y-87613768D01*
X130516666Y-87613768D02*
X130578570Y-87489958D01*
X130578570Y-87489958D02*
X130578570Y-87118530D01*
X130578570Y-87118530D02*
X130516666Y-86994720D01*
X130516666Y-86994720D02*
X130454761Y-86932815D01*
X130454761Y-86932815D02*
X130330951Y-86870911D01*
X130330951Y-86870911D02*
X130145237Y-86870911D01*
X130145237Y-86870911D02*
X130021428Y-86932815D01*
X130021428Y-86932815D02*
X129959523Y-86994720D01*
X129959523Y-86994720D02*
X129897618Y-87118530D01*
X129897618Y-87118530D02*
X129897618Y-87489958D01*
X129897618Y-87489958D02*
X129959523Y-87613768D01*
X129959523Y-87613768D02*
X130021428Y-87675673D01*
X130021428Y-87675673D02*
X130145237Y-87737577D01*
X130145237Y-87737577D02*
X130330951Y-87737577D01*
X129340476Y-86870911D02*
X129340476Y-87737577D01*
X129340476Y-86994720D02*
X129278571Y-86932815D01*
X129278571Y-86932815D02*
X129154761Y-86870911D01*
X129154761Y-86870911D02*
X128969047Y-86870911D01*
X128969047Y-86870911D02*
X128845238Y-86932815D01*
X128845238Y-86932815D02*
X128783333Y-87056625D01*
X128783333Y-87056625D02*
X128783333Y-87737577D01*
X128226190Y-87675673D02*
X128102381Y-87737577D01*
X128102381Y-87737577D02*
X127854762Y-87737577D01*
X127854762Y-87737577D02*
X127730952Y-87675673D01*
X127730952Y-87675673D02*
X127669048Y-87551863D01*
X127669048Y-87551863D02*
X127669048Y-87489958D01*
X127669048Y-87489958D02*
X127730952Y-87366149D01*
X127730952Y-87366149D02*
X127854762Y-87304244D01*
X127854762Y-87304244D02*
X128040476Y-87304244D01*
X128040476Y-87304244D02*
X128164286Y-87242339D01*
X128164286Y-87242339D02*
X128226190Y-87118530D01*
X128226190Y-87118530D02*
X128226190Y-87056625D01*
X128226190Y-87056625D02*
X128164286Y-86932815D01*
X128164286Y-86932815D02*
X128040476Y-86870911D01*
X128040476Y-86870911D02*
X127854762Y-86870911D01*
X127854762Y-86870911D02*
X127730952Y-86932815D01*
X126245238Y-86870911D02*
X125935714Y-87737577D01*
X125935714Y-87737577D02*
X125626191Y-86870911D01*
X125130953Y-87737577D02*
X125130953Y-86870911D01*
X125130953Y-86437577D02*
X125192857Y-86499482D01*
X125192857Y-86499482D02*
X125130953Y-86561387D01*
X125130953Y-86561387D02*
X125069048Y-86499482D01*
X125069048Y-86499482D02*
X125130953Y-86437577D01*
X125130953Y-86437577D02*
X125130953Y-86561387D01*
X124573809Y-87675673D02*
X124450000Y-87737577D01*
X124450000Y-87737577D02*
X124202381Y-87737577D01*
X124202381Y-87737577D02*
X124078571Y-87675673D01*
X124078571Y-87675673D02*
X124016667Y-87551863D01*
X124016667Y-87551863D02*
X124016667Y-87489958D01*
X124016667Y-87489958D02*
X124078571Y-87366149D01*
X124078571Y-87366149D02*
X124202381Y-87304244D01*
X124202381Y-87304244D02*
X124388095Y-87304244D01*
X124388095Y-87304244D02*
X124511905Y-87242339D01*
X124511905Y-87242339D02*
X124573809Y-87118530D01*
X124573809Y-87118530D02*
X124573809Y-87056625D01*
X124573809Y-87056625D02*
X124511905Y-86932815D01*
X124511905Y-86932815D02*
X124388095Y-86870911D01*
X124388095Y-86870911D02*
X124202381Y-86870911D01*
X124202381Y-86870911D02*
X124078571Y-86932815D01*
X123459524Y-87737577D02*
X123459524Y-86870911D01*
X123459524Y-86437577D02*
X123521428Y-86499482D01*
X123521428Y-86499482D02*
X123459524Y-86561387D01*
X123459524Y-86561387D02*
X123397619Y-86499482D01*
X123397619Y-86499482D02*
X123459524Y-86437577D01*
X123459524Y-86437577D02*
X123459524Y-86561387D01*
X123026190Y-86870911D02*
X122530952Y-86870911D01*
X122840476Y-86437577D02*
X122840476Y-87551863D01*
X122840476Y-87551863D02*
X122778571Y-87675673D01*
X122778571Y-87675673D02*
X122654761Y-87737577D01*
X122654761Y-87737577D02*
X122530952Y-87737577D01*
X121107143Y-87737577D02*
X121107143Y-86870911D01*
X121107143Y-86994720D02*
X121045238Y-86932815D01*
X121045238Y-86932815D02*
X120921428Y-86870911D01*
X120921428Y-86870911D02*
X120735714Y-86870911D01*
X120735714Y-86870911D02*
X120611905Y-86932815D01*
X120611905Y-86932815D02*
X120550000Y-87056625D01*
X120550000Y-87056625D02*
X120550000Y-87737577D01*
X120550000Y-87056625D02*
X120488095Y-86932815D01*
X120488095Y-86932815D02*
X120364286Y-86870911D01*
X120364286Y-86870911D02*
X120178571Y-86870911D01*
X120178571Y-86870911D02*
X120054762Y-86932815D01*
X120054762Y-86932815D02*
X119992857Y-87056625D01*
X119992857Y-87056625D02*
X119992857Y-87737577D01*
X119497619Y-86870911D02*
X119188095Y-87737577D01*
X118878572Y-86870911D02*
X119188095Y-87737577D01*
X119188095Y-87737577D02*
X119311905Y-88047101D01*
X119311905Y-88047101D02*
X119373810Y-88109006D01*
X119373810Y-88109006D02*
X119497619Y-88170911D01*
X116835715Y-86870911D02*
X116835715Y-87923292D01*
X116835715Y-87923292D02*
X116897620Y-88047101D01*
X116897620Y-88047101D02*
X116959524Y-88109006D01*
X116959524Y-88109006D02*
X117083334Y-88170911D01*
X117083334Y-88170911D02*
X117269048Y-88170911D01*
X117269048Y-88170911D02*
X117392858Y-88109006D01*
X116835715Y-87675673D02*
X116959524Y-87737577D01*
X116959524Y-87737577D02*
X117207143Y-87737577D01*
X117207143Y-87737577D02*
X117330953Y-87675673D01*
X117330953Y-87675673D02*
X117392858Y-87613768D01*
X117392858Y-87613768D02*
X117454762Y-87489958D01*
X117454762Y-87489958D02*
X117454762Y-87118530D01*
X117454762Y-87118530D02*
X117392858Y-86994720D01*
X117392858Y-86994720D02*
X117330953Y-86932815D01*
X117330953Y-86932815D02*
X117207143Y-86870911D01*
X117207143Y-86870911D02*
X116959524Y-86870911D01*
X116959524Y-86870911D02*
X116835715Y-86932815D01*
X116216668Y-87737577D02*
X116216668Y-86870911D01*
X116216668Y-86437577D02*
X116278572Y-86499482D01*
X116278572Y-86499482D02*
X116216668Y-86561387D01*
X116216668Y-86561387D02*
X116154763Y-86499482D01*
X116154763Y-86499482D02*
X116216668Y-86437577D01*
X116216668Y-86437577D02*
X116216668Y-86561387D01*
X115783334Y-86870911D02*
X115288096Y-86870911D01*
X115597620Y-86437577D02*
X115597620Y-87551863D01*
X115597620Y-87551863D02*
X115535715Y-87675673D01*
X115535715Y-87675673D02*
X115411905Y-87737577D01*
X115411905Y-87737577D02*
X115288096Y-87737577D01*
X114854763Y-87737577D02*
X114854763Y-86437577D01*
X114297620Y-87737577D02*
X114297620Y-87056625D01*
X114297620Y-87056625D02*
X114359525Y-86932815D01*
X114359525Y-86932815D02*
X114483334Y-86870911D01*
X114483334Y-86870911D02*
X114669048Y-86870911D01*
X114669048Y-86870911D02*
X114792858Y-86932815D01*
X114792858Y-86932815D02*
X114854763Y-86994720D01*
X113121430Y-86870911D02*
X113121430Y-87737577D01*
X113678573Y-86870911D02*
X113678573Y-87551863D01*
X113678573Y-87551863D02*
X113616668Y-87675673D01*
X113616668Y-87675673D02*
X113492858Y-87737577D01*
X113492858Y-87737577D02*
X113307144Y-87737577D01*
X113307144Y-87737577D02*
X113183335Y-87675673D01*
X113183335Y-87675673D02*
X113121430Y-87613768D01*
X112502383Y-87737577D02*
X112502383Y-86437577D01*
X112502383Y-86932815D02*
X112378573Y-86870911D01*
X112378573Y-86870911D02*
X112130954Y-86870911D01*
X112130954Y-86870911D02*
X112007145Y-86932815D01*
X112007145Y-86932815D02*
X111945240Y-86994720D01*
X111945240Y-86994720D02*
X111883335Y-87118530D01*
X111883335Y-87118530D02*
X111883335Y-87489958D01*
X111883335Y-87489958D02*
X111945240Y-87613768D01*
X111945240Y-87613768D02*
X112007145Y-87675673D01*
X112007145Y-87675673D02*
X112130954Y-87737577D01*
X112130954Y-87737577D02*
X112378573Y-87737577D01*
X112378573Y-87737577D02*
X112502383Y-87675673D01*
X110335717Y-86870911D02*
X110335717Y-88170911D01*
X110335717Y-86932815D02*
X110211907Y-86870911D01*
X110211907Y-86870911D02*
X109964288Y-86870911D01*
X109964288Y-86870911D02*
X109840479Y-86932815D01*
X109840479Y-86932815D02*
X109778574Y-86994720D01*
X109778574Y-86994720D02*
X109716669Y-87118530D01*
X109716669Y-87118530D02*
X109716669Y-87489958D01*
X109716669Y-87489958D02*
X109778574Y-87613768D01*
X109778574Y-87613768D02*
X109840479Y-87675673D01*
X109840479Y-87675673D02*
X109964288Y-87737577D01*
X109964288Y-87737577D02*
X110211907Y-87737577D01*
X110211907Y-87737577D02*
X110335717Y-87675673D01*
X108602384Y-87737577D02*
X108602384Y-87056625D01*
X108602384Y-87056625D02*
X108664289Y-86932815D01*
X108664289Y-86932815D02*
X108788098Y-86870911D01*
X108788098Y-86870911D02*
X109035717Y-86870911D01*
X109035717Y-86870911D02*
X109159527Y-86932815D01*
X108602384Y-87675673D02*
X108726193Y-87737577D01*
X108726193Y-87737577D02*
X109035717Y-87737577D01*
X109035717Y-87737577D02*
X109159527Y-87675673D01*
X109159527Y-87675673D02*
X109221431Y-87551863D01*
X109221431Y-87551863D02*
X109221431Y-87428053D01*
X109221431Y-87428053D02*
X109159527Y-87304244D01*
X109159527Y-87304244D02*
X109035717Y-87242339D01*
X109035717Y-87242339D02*
X108726193Y-87242339D01*
X108726193Y-87242339D02*
X108602384Y-87180434D01*
X107426194Y-86870911D02*
X107426194Y-87923292D01*
X107426194Y-87923292D02*
X107488099Y-88047101D01*
X107488099Y-88047101D02*
X107550003Y-88109006D01*
X107550003Y-88109006D02*
X107673813Y-88170911D01*
X107673813Y-88170911D02*
X107859527Y-88170911D01*
X107859527Y-88170911D02*
X107983337Y-88109006D01*
X107426194Y-87675673D02*
X107550003Y-87737577D01*
X107550003Y-87737577D02*
X107797622Y-87737577D01*
X107797622Y-87737577D02*
X107921432Y-87675673D01*
X107921432Y-87675673D02*
X107983337Y-87613768D01*
X107983337Y-87613768D02*
X108045241Y-87489958D01*
X108045241Y-87489958D02*
X108045241Y-87118530D01*
X108045241Y-87118530D02*
X107983337Y-86994720D01*
X107983337Y-86994720D02*
X107921432Y-86932815D01*
X107921432Y-86932815D02*
X107797622Y-86870911D01*
X107797622Y-86870911D02*
X107550003Y-86870911D01*
X107550003Y-86870911D02*
X107426194Y-86932815D01*
X106311909Y-87675673D02*
X106435718Y-87737577D01*
X106435718Y-87737577D02*
X106683337Y-87737577D01*
X106683337Y-87737577D02*
X106807147Y-87675673D01*
X106807147Y-87675673D02*
X106869051Y-87551863D01*
X106869051Y-87551863D02*
X106869051Y-87056625D01*
X106869051Y-87056625D02*
X106807147Y-86932815D01*
X106807147Y-86932815D02*
X106683337Y-86870911D01*
X106683337Y-86870911D02*
X106435718Y-86870911D01*
X106435718Y-86870911D02*
X106311909Y-86932815D01*
X106311909Y-86932815D02*
X106250004Y-87056625D01*
X106250004Y-87056625D02*
X106250004Y-87180434D01*
X106250004Y-87180434D02*
X106869051Y-87304244D01*
X105692861Y-87613768D02*
X105630956Y-87675673D01*
X105630956Y-87675673D02*
X105692861Y-87737577D01*
X105692861Y-87737577D02*
X105754765Y-87675673D01*
X105754765Y-87675673D02*
X105692861Y-87613768D01*
X105692861Y-87613768D02*
X105692861Y-87737577D01*
X105692861Y-86932815D02*
X105630956Y-86994720D01*
X105630956Y-86994720D02*
X105692861Y-87056625D01*
X105692861Y-87056625D02*
X105754765Y-86994720D01*
X105754765Y-86994720D02*
X105692861Y-86932815D01*
X105692861Y-86932815D02*
X105692861Y-87056625D01*
X153607141Y-89830504D02*
X153607141Y-88530504D01*
X153049998Y-89830504D02*
X153049998Y-89149552D01*
X153049998Y-89149552D02*
X153111903Y-89025742D01*
X153111903Y-89025742D02*
X153235712Y-88963838D01*
X153235712Y-88963838D02*
X153421426Y-88963838D01*
X153421426Y-88963838D02*
X153545236Y-89025742D01*
X153545236Y-89025742D02*
X153607141Y-89087647D01*
X152616665Y-88963838D02*
X152121427Y-88963838D01*
X152430951Y-88530504D02*
X152430951Y-89644790D01*
X152430951Y-89644790D02*
X152369046Y-89768600D01*
X152369046Y-89768600D02*
X152245236Y-89830504D01*
X152245236Y-89830504D02*
X152121427Y-89830504D01*
X151873808Y-88963838D02*
X151378570Y-88963838D01*
X151688094Y-88530504D02*
X151688094Y-89644790D01*
X151688094Y-89644790D02*
X151626189Y-89768600D01*
X151626189Y-89768600D02*
X151502379Y-89830504D01*
X151502379Y-89830504D02*
X151378570Y-89830504D01*
X150945237Y-88963838D02*
X150945237Y-90263838D01*
X150945237Y-89025742D02*
X150821427Y-88963838D01*
X150821427Y-88963838D02*
X150573808Y-88963838D01*
X150573808Y-88963838D02*
X150449999Y-89025742D01*
X150449999Y-89025742D02*
X150388094Y-89087647D01*
X150388094Y-89087647D02*
X150326189Y-89211457D01*
X150326189Y-89211457D02*
X150326189Y-89582885D01*
X150326189Y-89582885D02*
X150388094Y-89706695D01*
X150388094Y-89706695D02*
X150449999Y-89768600D01*
X150449999Y-89768600D02*
X150573808Y-89830504D01*
X150573808Y-89830504D02*
X150821427Y-89830504D01*
X150821427Y-89830504D02*
X150945237Y-89768600D01*
X149830951Y-89768600D02*
X149707142Y-89830504D01*
X149707142Y-89830504D02*
X149459523Y-89830504D01*
X149459523Y-89830504D02*
X149335713Y-89768600D01*
X149335713Y-89768600D02*
X149273809Y-89644790D01*
X149273809Y-89644790D02*
X149273809Y-89582885D01*
X149273809Y-89582885D02*
X149335713Y-89459076D01*
X149335713Y-89459076D02*
X149459523Y-89397171D01*
X149459523Y-89397171D02*
X149645237Y-89397171D01*
X149645237Y-89397171D02*
X149769047Y-89335266D01*
X149769047Y-89335266D02*
X149830951Y-89211457D01*
X149830951Y-89211457D02*
X149830951Y-89149552D01*
X149830951Y-89149552D02*
X149769047Y-89025742D01*
X149769047Y-89025742D02*
X149645237Y-88963838D01*
X149645237Y-88963838D02*
X149459523Y-88963838D01*
X149459523Y-88963838D02*
X149335713Y-89025742D01*
X148716666Y-89706695D02*
X148654761Y-89768600D01*
X148654761Y-89768600D02*
X148716666Y-89830504D01*
X148716666Y-89830504D02*
X148778570Y-89768600D01*
X148778570Y-89768600D02*
X148716666Y-89706695D01*
X148716666Y-89706695D02*
X148716666Y-89830504D01*
X148716666Y-89025742D02*
X148654761Y-89087647D01*
X148654761Y-89087647D02*
X148716666Y-89149552D01*
X148716666Y-89149552D02*
X148778570Y-89087647D01*
X148778570Y-89087647D02*
X148716666Y-89025742D01*
X148716666Y-89025742D02*
X148716666Y-89149552D01*
X147169046Y-88468600D02*
X148283332Y-90140028D01*
X145807141Y-88468600D02*
X146921427Y-90140028D01*
X144816665Y-88963838D02*
X144816665Y-90016219D01*
X144816665Y-90016219D02*
X144878570Y-90140028D01*
X144878570Y-90140028D02*
X144940474Y-90201933D01*
X144940474Y-90201933D02*
X145064284Y-90263838D01*
X145064284Y-90263838D02*
X145249998Y-90263838D01*
X145249998Y-90263838D02*
X145373808Y-90201933D01*
X144816665Y-89768600D02*
X144940474Y-89830504D01*
X144940474Y-89830504D02*
X145188093Y-89830504D01*
X145188093Y-89830504D02*
X145311903Y-89768600D01*
X145311903Y-89768600D02*
X145373808Y-89706695D01*
X145373808Y-89706695D02*
X145435712Y-89582885D01*
X145435712Y-89582885D02*
X145435712Y-89211457D01*
X145435712Y-89211457D02*
X145373808Y-89087647D01*
X145373808Y-89087647D02*
X145311903Y-89025742D01*
X145311903Y-89025742D02*
X145188093Y-88963838D01*
X145188093Y-88963838D02*
X144940474Y-88963838D01*
X144940474Y-88963838D02*
X144816665Y-89025742D01*
X144197618Y-89830504D02*
X144197618Y-88963838D01*
X144197618Y-88530504D02*
X144259522Y-88592409D01*
X144259522Y-88592409D02*
X144197618Y-88654314D01*
X144197618Y-88654314D02*
X144135713Y-88592409D01*
X144135713Y-88592409D02*
X144197618Y-88530504D01*
X144197618Y-88530504D02*
X144197618Y-88654314D01*
X143764284Y-88963838D02*
X143269046Y-88963838D01*
X143578570Y-88530504D02*
X143578570Y-89644790D01*
X143578570Y-89644790D02*
X143516665Y-89768600D01*
X143516665Y-89768600D02*
X143392855Y-89830504D01*
X143392855Y-89830504D02*
X143269046Y-89830504D01*
X142835713Y-89830504D02*
X142835713Y-88530504D01*
X142278570Y-89830504D02*
X142278570Y-89149552D01*
X142278570Y-89149552D02*
X142340475Y-89025742D01*
X142340475Y-89025742D02*
X142464284Y-88963838D01*
X142464284Y-88963838D02*
X142649998Y-88963838D01*
X142649998Y-88963838D02*
X142773808Y-89025742D01*
X142773808Y-89025742D02*
X142835713Y-89087647D01*
X141102380Y-88963838D02*
X141102380Y-89830504D01*
X141659523Y-88963838D02*
X141659523Y-89644790D01*
X141659523Y-89644790D02*
X141597618Y-89768600D01*
X141597618Y-89768600D02*
X141473808Y-89830504D01*
X141473808Y-89830504D02*
X141288094Y-89830504D01*
X141288094Y-89830504D02*
X141164285Y-89768600D01*
X141164285Y-89768600D02*
X141102380Y-89706695D01*
X140483333Y-89830504D02*
X140483333Y-88530504D01*
X140483333Y-89025742D02*
X140359523Y-88963838D01*
X140359523Y-88963838D02*
X140111904Y-88963838D01*
X140111904Y-88963838D02*
X139988095Y-89025742D01*
X139988095Y-89025742D02*
X139926190Y-89087647D01*
X139926190Y-89087647D02*
X139864285Y-89211457D01*
X139864285Y-89211457D02*
X139864285Y-89582885D01*
X139864285Y-89582885D02*
X139926190Y-89706695D01*
X139926190Y-89706695D02*
X139988095Y-89768600D01*
X139988095Y-89768600D02*
X140111904Y-89830504D01*
X140111904Y-89830504D02*
X140359523Y-89830504D01*
X140359523Y-89830504D02*
X140483333Y-89768600D01*
X139307143Y-89706695D02*
X139245238Y-89768600D01*
X139245238Y-89768600D02*
X139307143Y-89830504D01*
X139307143Y-89830504D02*
X139369047Y-89768600D01*
X139369047Y-89768600D02*
X139307143Y-89706695D01*
X139307143Y-89706695D02*
X139307143Y-89830504D01*
X138130952Y-89768600D02*
X138254761Y-89830504D01*
X138254761Y-89830504D02*
X138502380Y-89830504D01*
X138502380Y-89830504D02*
X138626190Y-89768600D01*
X138626190Y-89768600D02*
X138688095Y-89706695D01*
X138688095Y-89706695D02*
X138749999Y-89582885D01*
X138749999Y-89582885D02*
X138749999Y-89211457D01*
X138749999Y-89211457D02*
X138688095Y-89087647D01*
X138688095Y-89087647D02*
X138626190Y-89025742D01*
X138626190Y-89025742D02*
X138502380Y-88963838D01*
X138502380Y-88963838D02*
X138254761Y-88963838D01*
X138254761Y-88963838D02*
X138130952Y-89025742D01*
X137388094Y-89830504D02*
X137511904Y-89768600D01*
X137511904Y-89768600D02*
X137573809Y-89706695D01*
X137573809Y-89706695D02*
X137635713Y-89582885D01*
X137635713Y-89582885D02*
X137635713Y-89211457D01*
X137635713Y-89211457D02*
X137573809Y-89087647D01*
X137573809Y-89087647D02*
X137511904Y-89025742D01*
X137511904Y-89025742D02*
X137388094Y-88963838D01*
X137388094Y-88963838D02*
X137202380Y-88963838D01*
X137202380Y-88963838D02*
X137078571Y-89025742D01*
X137078571Y-89025742D02*
X137016666Y-89087647D01*
X137016666Y-89087647D02*
X136954761Y-89211457D01*
X136954761Y-89211457D02*
X136954761Y-89582885D01*
X136954761Y-89582885D02*
X137016666Y-89706695D01*
X137016666Y-89706695D02*
X137078571Y-89768600D01*
X137078571Y-89768600D02*
X137202380Y-89830504D01*
X137202380Y-89830504D02*
X137388094Y-89830504D01*
X136397619Y-89830504D02*
X136397619Y-88963838D01*
X136397619Y-89087647D02*
X136335714Y-89025742D01*
X136335714Y-89025742D02*
X136211904Y-88963838D01*
X136211904Y-88963838D02*
X136026190Y-88963838D01*
X136026190Y-88963838D02*
X135902381Y-89025742D01*
X135902381Y-89025742D02*
X135840476Y-89149552D01*
X135840476Y-89149552D02*
X135840476Y-89830504D01*
X135840476Y-89149552D02*
X135778571Y-89025742D01*
X135778571Y-89025742D02*
X135654762Y-88963838D01*
X135654762Y-88963838D02*
X135469047Y-88963838D01*
X135469047Y-88963838D02*
X135345238Y-89025742D01*
X135345238Y-89025742D02*
X135283333Y-89149552D01*
X135283333Y-89149552D02*
X135283333Y-89830504D01*
X133735714Y-88468600D02*
X134850000Y-90140028D01*
X133364285Y-89459076D02*
X132745238Y-89459076D01*
X133488095Y-89830504D02*
X133054762Y-88530504D01*
X133054762Y-88530504D02*
X132621428Y-89830504D01*
X132188095Y-89830504D02*
X132188095Y-88530504D01*
X132188095Y-88530504D02*
X131445238Y-89830504D01*
X131445238Y-89830504D02*
X131445238Y-88530504D01*
X131011904Y-88530504D02*
X130269047Y-88530504D01*
X130640475Y-89830504D02*
X130640475Y-88530504D01*
X129959523Y-88963838D02*
X129278571Y-88963838D01*
X129278571Y-88963838D02*
X129959523Y-89830504D01*
X129959523Y-89830504D02*
X129278571Y-89830504D01*
X128226190Y-89830504D02*
X128226190Y-89149552D01*
X128226190Y-89149552D02*
X128288095Y-89025742D01*
X128288095Y-89025742D02*
X128411904Y-88963838D01*
X128411904Y-88963838D02*
X128659523Y-88963838D01*
X128659523Y-88963838D02*
X128783333Y-89025742D01*
X128226190Y-89768600D02*
X128349999Y-89830504D01*
X128349999Y-89830504D02*
X128659523Y-89830504D01*
X128659523Y-89830504D02*
X128783333Y-89768600D01*
X128783333Y-89768600D02*
X128845237Y-89644790D01*
X128845237Y-89644790D02*
X128845237Y-89520980D01*
X128845237Y-89520980D02*
X128783333Y-89397171D01*
X128783333Y-89397171D02*
X128659523Y-89335266D01*
X128659523Y-89335266D02*
X128349999Y-89335266D01*
X128349999Y-89335266D02*
X128226190Y-89273361D01*
X127050000Y-89768600D02*
X127173809Y-89830504D01*
X127173809Y-89830504D02*
X127421428Y-89830504D01*
X127421428Y-89830504D02*
X127545238Y-89768600D01*
X127545238Y-89768600D02*
X127607143Y-89706695D01*
X127607143Y-89706695D02*
X127669047Y-89582885D01*
X127669047Y-89582885D02*
X127669047Y-89211457D01*
X127669047Y-89211457D02*
X127607143Y-89087647D01*
X127607143Y-89087647D02*
X127545238Y-89025742D01*
X127545238Y-89025742D02*
X127421428Y-88963838D01*
X127421428Y-88963838D02*
X127173809Y-88963838D01*
X127173809Y-88963838D02*
X127050000Y-89025742D01*
X125935714Y-89830504D02*
X125935714Y-89149552D01*
X125935714Y-89149552D02*
X125997619Y-89025742D01*
X125997619Y-89025742D02*
X126121428Y-88963838D01*
X126121428Y-88963838D02*
X126369047Y-88963838D01*
X126369047Y-88963838D02*
X126492857Y-89025742D01*
X125935714Y-89768600D02*
X126059523Y-89830504D01*
X126059523Y-89830504D02*
X126369047Y-89830504D01*
X126369047Y-89830504D02*
X126492857Y-89768600D01*
X126492857Y-89768600D02*
X126554761Y-89644790D01*
X126554761Y-89644790D02*
X126554761Y-89520980D01*
X126554761Y-89520980D02*
X126492857Y-89397171D01*
X126492857Y-89397171D02*
X126369047Y-89335266D01*
X126369047Y-89335266D02*
X126059523Y-89335266D01*
X126059523Y-89335266D02*
X125935714Y-89273361D01*
X125130952Y-89830504D02*
X125254762Y-89768600D01*
X125254762Y-89768600D02*
X125316667Y-89644790D01*
X125316667Y-89644790D02*
X125316667Y-88530504D01*
X124635715Y-89830504D02*
X124635715Y-88963838D01*
X124635715Y-88530504D02*
X124697619Y-88592409D01*
X124697619Y-88592409D02*
X124635715Y-88654314D01*
X124635715Y-88654314D02*
X124573810Y-88592409D01*
X124573810Y-88592409D02*
X124635715Y-88530504D01*
X124635715Y-88530504D02*
X124635715Y-88654314D01*
X123521429Y-89768600D02*
X123645238Y-89830504D01*
X123645238Y-89830504D02*
X123892857Y-89830504D01*
X123892857Y-89830504D02*
X124016667Y-89768600D01*
X124016667Y-89768600D02*
X124078571Y-89644790D01*
X124078571Y-89644790D02*
X124078571Y-89149552D01*
X124078571Y-89149552D02*
X124016667Y-89025742D01*
X124016667Y-89025742D02*
X123892857Y-88963838D01*
X123892857Y-88963838D02*
X123645238Y-88963838D01*
X123645238Y-88963838D02*
X123521429Y-89025742D01*
X123521429Y-89025742D02*
X123459524Y-89149552D01*
X123459524Y-89149552D02*
X123459524Y-89273361D01*
X123459524Y-89273361D02*
X124078571Y-89397171D01*
X121973809Y-88468600D02*
X123088095Y-90140028D01*
X121726190Y-88963838D02*
X121230952Y-88963838D01*
X121540476Y-88530504D02*
X121540476Y-89644790D01*
X121540476Y-89644790D02*
X121478571Y-89768600D01*
X121478571Y-89768600D02*
X121354761Y-89830504D01*
X121354761Y-89830504D02*
X121230952Y-89830504D01*
X120302381Y-89768600D02*
X120426190Y-89830504D01*
X120426190Y-89830504D02*
X120673809Y-89830504D01*
X120673809Y-89830504D02*
X120797619Y-89768600D01*
X120797619Y-89768600D02*
X120859523Y-89644790D01*
X120859523Y-89644790D02*
X120859523Y-89149552D01*
X120859523Y-89149552D02*
X120797619Y-89025742D01*
X120797619Y-89025742D02*
X120673809Y-88963838D01*
X120673809Y-88963838D02*
X120426190Y-88963838D01*
X120426190Y-88963838D02*
X120302381Y-89025742D01*
X120302381Y-89025742D02*
X120240476Y-89149552D01*
X120240476Y-89149552D02*
X120240476Y-89273361D01*
X120240476Y-89273361D02*
X120859523Y-89397171D01*
X119683333Y-89830504D02*
X119683333Y-88963838D01*
X119683333Y-89211457D02*
X119621428Y-89087647D01*
X119621428Y-89087647D02*
X119559523Y-89025742D01*
X119559523Y-89025742D02*
X119435714Y-88963838D01*
X119435714Y-88963838D02*
X119311904Y-88963838D01*
X118878571Y-89830504D02*
X118878571Y-88963838D01*
X118878571Y-89087647D02*
X118816666Y-89025742D01*
X118816666Y-89025742D02*
X118692856Y-88963838D01*
X118692856Y-88963838D02*
X118507142Y-88963838D01*
X118507142Y-88963838D02*
X118383333Y-89025742D01*
X118383333Y-89025742D02*
X118321428Y-89149552D01*
X118321428Y-89149552D02*
X118321428Y-89830504D01*
X118321428Y-89149552D02*
X118259523Y-89025742D01*
X118259523Y-89025742D02*
X118135714Y-88963838D01*
X118135714Y-88963838D02*
X117949999Y-88963838D01*
X117949999Y-88963838D02*
X117826190Y-89025742D01*
X117826190Y-89025742D02*
X117764285Y-89149552D01*
X117764285Y-89149552D02*
X117764285Y-89830504D01*
X116959523Y-89830504D02*
X117083333Y-89768600D01*
X117083333Y-89768600D02*
X117145238Y-89706695D01*
X117145238Y-89706695D02*
X117207142Y-89582885D01*
X117207142Y-89582885D02*
X117207142Y-89211457D01*
X117207142Y-89211457D02*
X117145238Y-89087647D01*
X117145238Y-89087647D02*
X117083333Y-89025742D01*
X117083333Y-89025742D02*
X116959523Y-88963838D01*
X116959523Y-88963838D02*
X116773809Y-88963838D01*
X116773809Y-88963838D02*
X116650000Y-89025742D01*
X116650000Y-89025742D02*
X116588095Y-89087647D01*
X116588095Y-89087647D02*
X116526190Y-89211457D01*
X116526190Y-89211457D02*
X116526190Y-89582885D01*
X116526190Y-89582885D02*
X116588095Y-89706695D01*
X116588095Y-89706695D02*
X116650000Y-89768600D01*
X116650000Y-89768600D02*
X116773809Y-89830504D01*
X116773809Y-89830504D02*
X116959523Y-89830504D01*
X115969048Y-89335266D02*
X114978572Y-89335266D01*
X114359524Y-88963838D02*
X114359524Y-90263838D01*
X114359524Y-89025742D02*
X114235714Y-88963838D01*
X114235714Y-88963838D02*
X113988095Y-88963838D01*
X113988095Y-88963838D02*
X113864286Y-89025742D01*
X113864286Y-89025742D02*
X113802381Y-89087647D01*
X113802381Y-89087647D02*
X113740476Y-89211457D01*
X113740476Y-89211457D02*
X113740476Y-89582885D01*
X113740476Y-89582885D02*
X113802381Y-89706695D01*
X113802381Y-89706695D02*
X113864286Y-89768600D01*
X113864286Y-89768600D02*
X113988095Y-89830504D01*
X113988095Y-89830504D02*
X114235714Y-89830504D01*
X114235714Y-89830504D02*
X114359524Y-89768600D01*
X113183334Y-89830504D02*
X113183334Y-88963838D01*
X113183334Y-89211457D02*
X113121429Y-89087647D01*
X113121429Y-89087647D02*
X113059524Y-89025742D01*
X113059524Y-89025742D02*
X112935715Y-88963838D01*
X112935715Y-88963838D02*
X112811905Y-88963838D01*
X112192857Y-89830504D02*
X112316667Y-89768600D01*
X112316667Y-89768600D02*
X112378572Y-89706695D01*
X112378572Y-89706695D02*
X112440476Y-89582885D01*
X112440476Y-89582885D02*
X112440476Y-89211457D01*
X112440476Y-89211457D02*
X112378572Y-89087647D01*
X112378572Y-89087647D02*
X112316667Y-89025742D01*
X112316667Y-89025742D02*
X112192857Y-88963838D01*
X112192857Y-88963838D02*
X112007143Y-88963838D01*
X112007143Y-88963838D02*
X111883334Y-89025742D01*
X111883334Y-89025742D02*
X111821429Y-89087647D01*
X111821429Y-89087647D02*
X111759524Y-89211457D01*
X111759524Y-89211457D02*
X111759524Y-89582885D01*
X111759524Y-89582885D02*
X111821429Y-89706695D01*
X111821429Y-89706695D02*
X111883334Y-89768600D01*
X111883334Y-89768600D02*
X112007143Y-89830504D01*
X112007143Y-89830504D02*
X112192857Y-89830504D01*
X111202382Y-89335266D02*
X110211906Y-89335266D01*
X109097620Y-89768600D02*
X109221429Y-89830504D01*
X109221429Y-89830504D02*
X109469048Y-89830504D01*
X109469048Y-89830504D02*
X109592858Y-89768600D01*
X109592858Y-89768600D02*
X109654762Y-89644790D01*
X109654762Y-89644790D02*
X109654762Y-89149552D01*
X109654762Y-89149552D02*
X109592858Y-89025742D01*
X109592858Y-89025742D02*
X109469048Y-88963838D01*
X109469048Y-88963838D02*
X109221429Y-88963838D01*
X109221429Y-88963838D02*
X109097620Y-89025742D01*
X109097620Y-89025742D02*
X109035715Y-89149552D01*
X109035715Y-89149552D02*
X109035715Y-89273361D01*
X109035715Y-89273361D02*
X109654762Y-89397171D01*
X108540476Y-89768600D02*
X108416667Y-89830504D01*
X108416667Y-89830504D02*
X108169048Y-89830504D01*
X108169048Y-89830504D02*
X108045238Y-89768600D01*
X108045238Y-89768600D02*
X107983334Y-89644790D01*
X107983334Y-89644790D02*
X107983334Y-89582885D01*
X107983334Y-89582885D02*
X108045238Y-89459076D01*
X108045238Y-89459076D02*
X108169048Y-89397171D01*
X108169048Y-89397171D02*
X108354762Y-89397171D01*
X108354762Y-89397171D02*
X108478572Y-89335266D01*
X108478572Y-89335266D02*
X108540476Y-89211457D01*
X108540476Y-89211457D02*
X108540476Y-89149552D01*
X108540476Y-89149552D02*
X108478572Y-89025742D01*
X108478572Y-89025742D02*
X108354762Y-88963838D01*
X108354762Y-88963838D02*
X108169048Y-88963838D01*
X108169048Y-88963838D02*
X108045238Y-89025742D01*
X107426191Y-88963838D02*
X107426191Y-90263838D01*
X107426191Y-89025742D02*
X107302381Y-88963838D01*
X107302381Y-88963838D02*
X107054762Y-88963838D01*
X107054762Y-88963838D02*
X106930953Y-89025742D01*
X106930953Y-89025742D02*
X106869048Y-89087647D01*
X106869048Y-89087647D02*
X106807143Y-89211457D01*
X106807143Y-89211457D02*
X106807143Y-89582885D01*
X106807143Y-89582885D02*
X106869048Y-89706695D01*
X106869048Y-89706695D02*
X106930953Y-89768600D01*
X106930953Y-89768600D02*
X107054762Y-89830504D01*
X107054762Y-89830504D02*
X107302381Y-89830504D01*
X107302381Y-89830504D02*
X107426191Y-89768600D01*
X106373810Y-88530504D02*
X105569048Y-88530504D01*
X105569048Y-88530504D02*
X106002382Y-89025742D01*
X106002382Y-89025742D02*
X105816667Y-89025742D01*
X105816667Y-89025742D02*
X105692858Y-89087647D01*
X105692858Y-89087647D02*
X105630953Y-89149552D01*
X105630953Y-89149552D02*
X105569048Y-89273361D01*
X105569048Y-89273361D02*
X105569048Y-89582885D01*
X105569048Y-89582885D02*
X105630953Y-89706695D01*
X105630953Y-89706695D02*
X105692858Y-89768600D01*
X105692858Y-89768600D02*
X105816667Y-89830504D01*
X105816667Y-89830504D02*
X106188096Y-89830504D01*
X106188096Y-89830504D02*
X106311905Y-89768600D01*
X106311905Y-89768600D02*
X106373810Y-89706695D01*
X105073810Y-88654314D02*
X105011906Y-88592409D01*
X105011906Y-88592409D02*
X104888096Y-88530504D01*
X104888096Y-88530504D02*
X104578572Y-88530504D01*
X104578572Y-88530504D02*
X104454763Y-88592409D01*
X104454763Y-88592409D02*
X104392858Y-88654314D01*
X104392858Y-88654314D02*
X104330953Y-88778123D01*
X104330953Y-88778123D02*
X104330953Y-88901933D01*
X104330953Y-88901933D02*
X104392858Y-89087647D01*
X104392858Y-89087647D02*
X105135715Y-89830504D01*
X105135715Y-89830504D02*
X104330953Y-89830504D01*
D11*
G36*
X182346127Y-88082449D02*
G01*
X182892620Y-88082449D01*
X183360980Y-88057153D01*
X183763681Y-87986536D01*
X184035325Y-87896234D01*
X184275560Y-87771310D01*
X184470347Y-87624347D01*
X184644545Y-87443393D01*
X184948956Y-86954822D01*
X185230138Y-86193332D01*
X185300244Y-85940439D01*
X185902302Y-85940439D01*
X185552424Y-89300000D01*
X181296493Y-89300000D01*
X181296493Y-87830268D01*
X181660285Y-87622716D01*
X181986518Y-87388739D01*
X182256875Y-87145677D01*
X182496393Y-86876140D01*
X182877701Y-86267665D01*
X183154566Y-85523562D01*
X183331347Y-84585014D01*
X183396371Y-83350854D01*
X183376154Y-82698150D01*
X183312798Y-82136994D01*
X183226318Y-81734922D01*
X183106205Y-81372900D01*
X182783470Y-80770530D01*
X182696615Y-80649528D01*
X182494474Y-80412538D01*
X182267775Y-80207270D01*
X181747895Y-79894184D01*
X181124921Y-79703222D01*
X180428210Y-79641416D01*
X180026053Y-79660957D01*
X179650656Y-79719587D01*
X179322024Y-79810612D01*
X179018329Y-79936361D01*
X178750835Y-80089714D01*
X178507343Y-80275069D01*
X178160415Y-80649528D01*
X177953753Y-80958799D01*
X177786526Y-81287563D01*
X177573655Y-81979721D01*
X177471017Y-82880663D01*
X177460659Y-83364898D01*
X177480474Y-84073412D01*
X177541023Y-84715372D01*
X177629442Y-85228732D01*
X177751896Y-85695771D01*
X177894695Y-86084587D01*
X178067794Y-86438644D01*
X178261263Y-86744788D01*
X178483651Y-87022887D01*
X179013419Y-87498104D01*
X179560537Y-87830268D01*
X179560537Y-89300000D01*
X175304605Y-89300000D01*
X174954727Y-85940439D01*
X175556175Y-85940439D01*
X175727887Y-86512360D01*
X175919695Y-86980054D01*
X176083601Y-87269503D01*
X176268351Y-87508166D01*
X176452023Y-87679654D01*
X176657867Y-87817033D01*
X177142963Y-87998765D01*
X177817536Y-88079241D01*
X177964410Y-88082449D01*
X178510293Y-88082449D01*
X178510293Y-87844312D01*
X177762210Y-87456690D01*
X177096188Y-86939413D01*
X176531727Y-86306053D01*
X176293734Y-85951392D01*
X176088683Y-85575684D01*
X175918492Y-85182102D01*
X175784218Y-84772058D01*
X175688242Y-84352330D01*
X175630470Y-83920851D01*
X175612351Y-83504727D01*
X175631654Y-83070621D01*
X175688614Y-82650953D01*
X175912070Y-81854404D01*
X176275040Y-81126442D01*
X176769427Y-80480313D01*
X177385607Y-79930847D01*
X177736089Y-79697001D01*
X178111658Y-79493531D01*
X178511512Y-79321635D01*
X178933327Y-79183251D01*
X179374718Y-79080033D01*
X179834782Y-79013220D01*
X180428210Y-78983182D01*
X180905168Y-79002477D01*
X181365722Y-79059389D01*
X181810917Y-79153119D01*
X182236339Y-79281950D01*
X182641844Y-79445049D01*
X183024220Y-79640499D01*
X183381995Y-79866890D01*
X183713404Y-80122642D01*
X184015878Y-80405260D01*
X184288968Y-80714053D01*
X184529567Y-81045218D01*
X184738042Y-81399272D01*
X184911420Y-81771303D01*
X185050191Y-82162955D01*
X185152024Y-82568773D01*
X185216947Y-82991056D01*
X185244068Y-83504727D01*
X185167777Y-84354541D01*
X184941052Y-85173838D01*
X184569690Y-85939809D01*
X184332731Y-86295150D01*
X184064357Y-86627261D01*
X183766779Y-86933283D01*
X183441042Y-87211679D01*
X183092512Y-87457776D01*
X182719449Y-87672449D01*
X182346127Y-87844312D01*
X182346127Y-88082449D01*
G37*
D12*
X149409580Y-123583333D02*
X149457200Y-123535714D01*
X149457200Y-123535714D02*
X149504819Y-123392857D01*
X149504819Y-123392857D02*
X149504819Y-123297619D01*
X149504819Y-123297619D02*
X149457200Y-123154762D01*
X149457200Y-123154762D02*
X149361961Y-123059524D01*
X149361961Y-123059524D02*
X149266723Y-123011905D01*
X149266723Y-123011905D02*
X149076247Y-122964286D01*
X149076247Y-122964286D02*
X148933390Y-122964286D01*
X148933390Y-122964286D02*
X148742914Y-123011905D01*
X148742914Y-123011905D02*
X148647676Y-123059524D01*
X148647676Y-123059524D02*
X148552438Y-123154762D01*
X148552438Y-123154762D02*
X148504819Y-123297619D01*
X148504819Y-123297619D02*
X148504819Y-123392857D01*
X148504819Y-123392857D02*
X148552438Y-123535714D01*
X148552438Y-123535714D02*
X148600057Y-123583333D01*
X148838152Y-124440476D02*
X149504819Y-124440476D01*
X148457200Y-124202381D02*
X149171485Y-123964286D01*
X149171485Y-123964286D02*
X149171485Y-124583333D01*
X150579819Y-120917856D02*
X150579819Y-120441666D01*
X150579819Y-120441666D02*
X151056009Y-120394047D01*
X151056009Y-120394047D02*
X151008390Y-120441666D01*
X151008390Y-120441666D02*
X150960771Y-120536904D01*
X150960771Y-120536904D02*
X150960771Y-120774999D01*
X150960771Y-120774999D02*
X151008390Y-120870237D01*
X151008390Y-120870237D02*
X151056009Y-120917856D01*
X151056009Y-120917856D02*
X151151247Y-120965475D01*
X151151247Y-120965475D02*
X151389342Y-120965475D01*
X151389342Y-120965475D02*
X151484580Y-120917856D01*
X151484580Y-120917856D02*
X151532200Y-120870237D01*
X151532200Y-120870237D02*
X151579819Y-120774999D01*
X151579819Y-120774999D02*
X151579819Y-120536904D01*
X151579819Y-120536904D02*
X151532200Y-120441666D01*
X151532200Y-120441666D02*
X151484580Y-120394047D01*
X150579819Y-121584523D02*
X150579819Y-121679761D01*
X150579819Y-121679761D02*
X150627438Y-121774999D01*
X150627438Y-121774999D02*
X150675057Y-121822618D01*
X150675057Y-121822618D02*
X150770295Y-121870237D01*
X150770295Y-121870237D02*
X150960771Y-121917856D01*
X150960771Y-121917856D02*
X151198866Y-121917856D01*
X151198866Y-121917856D02*
X151389342Y-121870237D01*
X151389342Y-121870237D02*
X151484580Y-121822618D01*
X151484580Y-121822618D02*
X151532200Y-121774999D01*
X151532200Y-121774999D02*
X151579819Y-121679761D01*
X151579819Y-121679761D02*
X151579819Y-121584523D01*
X151579819Y-121584523D02*
X151532200Y-121489285D01*
X151532200Y-121489285D02*
X151484580Y-121441666D01*
X151484580Y-121441666D02*
X151389342Y-121394047D01*
X151389342Y-121394047D02*
X151198866Y-121346428D01*
X151198866Y-121346428D02*
X150960771Y-121346428D01*
X150960771Y-121346428D02*
X150770295Y-121394047D01*
X150770295Y-121394047D02*
X150675057Y-121441666D01*
X150675057Y-121441666D02*
X150627438Y-121489285D01*
X150627438Y-121489285D02*
X150579819Y-121584523D01*
X150579819Y-122203571D02*
X151579819Y-122536904D01*
X151579819Y-122536904D02*
X150579819Y-122870237D01*
X150675057Y-123917857D02*
X150627438Y-123965476D01*
X150627438Y-123965476D02*
X150579819Y-124060714D01*
X150579819Y-124060714D02*
X150579819Y-124298809D01*
X150579819Y-124298809D02*
X150627438Y-124394047D01*
X150627438Y-124394047D02*
X150675057Y-124441666D01*
X150675057Y-124441666D02*
X150770295Y-124489285D01*
X150770295Y-124489285D02*
X150865533Y-124489285D01*
X150865533Y-124489285D02*
X151008390Y-124441666D01*
X151008390Y-124441666D02*
X151579819Y-123870238D01*
X151579819Y-123870238D02*
X151579819Y-124489285D01*
X150675057Y-124870238D02*
X150627438Y-124917857D01*
X150627438Y-124917857D02*
X150579819Y-125013095D01*
X150579819Y-125013095D02*
X150579819Y-125251190D01*
X150579819Y-125251190D02*
X150627438Y-125346428D01*
X150627438Y-125346428D02*
X150675057Y-125394047D01*
X150675057Y-125394047D02*
X150770295Y-125441666D01*
X150770295Y-125441666D02*
X150865533Y-125441666D01*
X150865533Y-125441666D02*
X151008390Y-125394047D01*
X151008390Y-125394047D02*
X151579819Y-124822619D01*
X151579819Y-124822619D02*
X151579819Y-125441666D01*
X150579819Y-126060714D02*
X150579819Y-126155952D01*
X150579819Y-126155952D02*
X150627438Y-126251190D01*
X150627438Y-126251190D02*
X150675057Y-126298809D01*
X150675057Y-126298809D02*
X150770295Y-126346428D01*
X150770295Y-126346428D02*
X150960771Y-126394047D01*
X150960771Y-126394047D02*
X151198866Y-126394047D01*
X151198866Y-126394047D02*
X151389342Y-126346428D01*
X151389342Y-126346428D02*
X151484580Y-126298809D01*
X151484580Y-126298809D02*
X151532200Y-126251190D01*
X151532200Y-126251190D02*
X151579819Y-126155952D01*
X151579819Y-126155952D02*
X151579819Y-126060714D01*
X151579819Y-126060714D02*
X151532200Y-125965476D01*
X151532200Y-125965476D02*
X151484580Y-125917857D01*
X151484580Y-125917857D02*
X151389342Y-125870238D01*
X151389342Y-125870238D02*
X151198866Y-125822619D01*
X151198866Y-125822619D02*
X150960771Y-125822619D01*
X150960771Y-125822619D02*
X150770295Y-125870238D01*
X150770295Y-125870238D02*
X150675057Y-125917857D01*
X150675057Y-125917857D02*
X150627438Y-125965476D01*
X150627438Y-125965476D02*
X150579819Y-126060714D01*
X150913152Y-126822619D02*
X151579819Y-126822619D01*
X151008390Y-126822619D02*
X150960771Y-126870238D01*
X150960771Y-126870238D02*
X150913152Y-126965476D01*
X150913152Y-126965476D02*
X150913152Y-127108333D01*
X150913152Y-127108333D02*
X150960771Y-127203571D01*
X150960771Y-127203571D02*
X151056009Y-127251190D01*
X151056009Y-127251190D02*
X151579819Y-127251190D01*
X151056009Y-128060714D02*
X151056009Y-127727381D01*
X151579819Y-127727381D02*
X150579819Y-127727381D01*
X150579819Y-127727381D02*
X150579819Y-128203571D01*
X159666666Y-100609580D02*
X159714285Y-100657200D01*
X159714285Y-100657200D02*
X159857142Y-100704819D01*
X159857142Y-100704819D02*
X159952380Y-100704819D01*
X159952380Y-100704819D02*
X160095237Y-100657200D01*
X160095237Y-100657200D02*
X160190475Y-100561961D01*
X160190475Y-100561961D02*
X160238094Y-100466723D01*
X160238094Y-100466723D02*
X160285713Y-100276247D01*
X160285713Y-100276247D02*
X160285713Y-100133390D01*
X160285713Y-100133390D02*
X160238094Y-99942914D01*
X160238094Y-99942914D02*
X160190475Y-99847676D01*
X160190475Y-99847676D02*
X160095237Y-99752438D01*
X160095237Y-99752438D02*
X159952380Y-99704819D01*
X159952380Y-99704819D02*
X159857142Y-99704819D01*
X159857142Y-99704819D02*
X159714285Y-99752438D01*
X159714285Y-99752438D02*
X159666666Y-99800057D01*
X159285713Y-99800057D02*
X159238094Y-99752438D01*
X159238094Y-99752438D02*
X159142856Y-99704819D01*
X159142856Y-99704819D02*
X158904761Y-99704819D01*
X158904761Y-99704819D02*
X158809523Y-99752438D01*
X158809523Y-99752438D02*
X158761904Y-99800057D01*
X158761904Y-99800057D02*
X158714285Y-99895295D01*
X158714285Y-99895295D02*
X158714285Y-99990533D01*
X158714285Y-99990533D02*
X158761904Y-100133390D01*
X158761904Y-100133390D02*
X159333332Y-100704819D01*
X159333332Y-100704819D02*
X158714285Y-100704819D01*
X162857143Y-107204819D02*
X163333333Y-107204819D01*
X163333333Y-107204819D02*
X163380952Y-107681009D01*
X163380952Y-107681009D02*
X163333333Y-107633390D01*
X163333333Y-107633390D02*
X163238095Y-107585771D01*
X163238095Y-107585771D02*
X163000000Y-107585771D01*
X163000000Y-107585771D02*
X162904762Y-107633390D01*
X162904762Y-107633390D02*
X162857143Y-107681009D01*
X162857143Y-107681009D02*
X162809524Y-107776247D01*
X162809524Y-107776247D02*
X162809524Y-108014342D01*
X162809524Y-108014342D02*
X162857143Y-108109580D01*
X162857143Y-108109580D02*
X162904762Y-108157200D01*
X162904762Y-108157200D02*
X163000000Y-108204819D01*
X163000000Y-108204819D02*
X163238095Y-108204819D01*
X163238095Y-108204819D02*
X163333333Y-108157200D01*
X163333333Y-108157200D02*
X163380952Y-108109580D01*
X162190476Y-107204819D02*
X162095238Y-107204819D01*
X162095238Y-107204819D02*
X162000000Y-107252438D01*
X162000000Y-107252438D02*
X161952381Y-107300057D01*
X161952381Y-107300057D02*
X161904762Y-107395295D01*
X161904762Y-107395295D02*
X161857143Y-107585771D01*
X161857143Y-107585771D02*
X161857143Y-107823866D01*
X161857143Y-107823866D02*
X161904762Y-108014342D01*
X161904762Y-108014342D02*
X161952381Y-108109580D01*
X161952381Y-108109580D02*
X162000000Y-108157200D01*
X162000000Y-108157200D02*
X162095238Y-108204819D01*
X162095238Y-108204819D02*
X162190476Y-108204819D01*
X162190476Y-108204819D02*
X162285714Y-108157200D01*
X162285714Y-108157200D02*
X162333333Y-108109580D01*
X162333333Y-108109580D02*
X162380952Y-108014342D01*
X162380952Y-108014342D02*
X162428571Y-107823866D01*
X162428571Y-107823866D02*
X162428571Y-107585771D01*
X162428571Y-107585771D02*
X162380952Y-107395295D01*
X162380952Y-107395295D02*
X162333333Y-107300057D01*
X162333333Y-107300057D02*
X162285714Y-107252438D01*
X162285714Y-107252438D02*
X162190476Y-107204819D01*
X161571428Y-107204819D02*
X161238095Y-108204819D01*
X161238095Y-108204819D02*
X160904762Y-107204819D01*
X159857142Y-107300057D02*
X159809523Y-107252438D01*
X159809523Y-107252438D02*
X159714285Y-107204819D01*
X159714285Y-107204819D02*
X159476190Y-107204819D01*
X159476190Y-107204819D02*
X159380952Y-107252438D01*
X159380952Y-107252438D02*
X159333333Y-107300057D01*
X159333333Y-107300057D02*
X159285714Y-107395295D01*
X159285714Y-107395295D02*
X159285714Y-107490533D01*
X159285714Y-107490533D02*
X159333333Y-107633390D01*
X159333333Y-107633390D02*
X159904761Y-108204819D01*
X159904761Y-108204819D02*
X159285714Y-108204819D01*
X158904761Y-107300057D02*
X158857142Y-107252438D01*
X158857142Y-107252438D02*
X158761904Y-107204819D01*
X158761904Y-107204819D02*
X158523809Y-107204819D01*
X158523809Y-107204819D02*
X158428571Y-107252438D01*
X158428571Y-107252438D02*
X158380952Y-107300057D01*
X158380952Y-107300057D02*
X158333333Y-107395295D01*
X158333333Y-107395295D02*
X158333333Y-107490533D01*
X158333333Y-107490533D02*
X158380952Y-107633390D01*
X158380952Y-107633390D02*
X158952380Y-108204819D01*
X158952380Y-108204819D02*
X158333333Y-108204819D01*
X157714285Y-107204819D02*
X157619047Y-107204819D01*
X157619047Y-107204819D02*
X157523809Y-107252438D01*
X157523809Y-107252438D02*
X157476190Y-107300057D01*
X157476190Y-107300057D02*
X157428571Y-107395295D01*
X157428571Y-107395295D02*
X157380952Y-107585771D01*
X157380952Y-107585771D02*
X157380952Y-107823866D01*
X157380952Y-107823866D02*
X157428571Y-108014342D01*
X157428571Y-108014342D02*
X157476190Y-108109580D01*
X157476190Y-108109580D02*
X157523809Y-108157200D01*
X157523809Y-108157200D02*
X157619047Y-108204819D01*
X157619047Y-108204819D02*
X157714285Y-108204819D01*
X157714285Y-108204819D02*
X157809523Y-108157200D01*
X157809523Y-108157200D02*
X157857142Y-108109580D01*
X157857142Y-108109580D02*
X157904761Y-108014342D01*
X157904761Y-108014342D02*
X157952380Y-107823866D01*
X157952380Y-107823866D02*
X157952380Y-107585771D01*
X157952380Y-107585771D02*
X157904761Y-107395295D01*
X157904761Y-107395295D02*
X157857142Y-107300057D01*
X157857142Y-107300057D02*
X157809523Y-107252438D01*
X157809523Y-107252438D02*
X157714285Y-107204819D01*
X156952380Y-107538152D02*
X156952380Y-108204819D01*
X156952380Y-107633390D02*
X156904761Y-107585771D01*
X156904761Y-107585771D02*
X156809523Y-107538152D01*
X156809523Y-107538152D02*
X156666666Y-107538152D01*
X156666666Y-107538152D02*
X156571428Y-107585771D01*
X156571428Y-107585771D02*
X156523809Y-107681009D01*
X156523809Y-107681009D02*
X156523809Y-108204819D01*
X155714285Y-107681009D02*
X156047618Y-107681009D01*
X156047618Y-108204819D02*
X156047618Y-107204819D01*
X156047618Y-107204819D02*
X155571428Y-107204819D01*
X165414819Y-114238095D02*
X166224342Y-114238095D01*
X166224342Y-114238095D02*
X166319580Y-114285714D01*
X166319580Y-114285714D02*
X166367200Y-114333333D01*
X166367200Y-114333333D02*
X166414819Y-114428571D01*
X166414819Y-114428571D02*
X166414819Y-114619047D01*
X166414819Y-114619047D02*
X166367200Y-114714285D01*
X166367200Y-114714285D02*
X166319580Y-114761904D01*
X166319580Y-114761904D02*
X166224342Y-114809523D01*
X166224342Y-114809523D02*
X165414819Y-114809523D01*
X165510057Y-115238095D02*
X165462438Y-115285714D01*
X165462438Y-115285714D02*
X165414819Y-115380952D01*
X165414819Y-115380952D02*
X165414819Y-115619047D01*
X165414819Y-115619047D02*
X165462438Y-115714285D01*
X165462438Y-115714285D02*
X165510057Y-115761904D01*
X165510057Y-115761904D02*
X165605295Y-115809523D01*
X165605295Y-115809523D02*
X165700533Y-115809523D01*
X165700533Y-115809523D02*
X165843390Y-115761904D01*
X165843390Y-115761904D02*
X166414819Y-115190476D01*
X166414819Y-115190476D02*
X166414819Y-115809523D01*
X181214819Y-113880952D02*
X180214819Y-113880952D01*
X180214819Y-113880952D02*
X180214819Y-114119047D01*
X180214819Y-114119047D02*
X180262438Y-114261904D01*
X180262438Y-114261904D02*
X180357676Y-114357142D01*
X180357676Y-114357142D02*
X180452914Y-114404761D01*
X180452914Y-114404761D02*
X180643390Y-114452380D01*
X180643390Y-114452380D02*
X180786247Y-114452380D01*
X180786247Y-114452380D02*
X180976723Y-114404761D01*
X180976723Y-114404761D02*
X181071961Y-114357142D01*
X181071961Y-114357142D02*
X181167200Y-114261904D01*
X181167200Y-114261904D02*
X181214819Y-114119047D01*
X181214819Y-114119047D02*
X181214819Y-113880952D01*
X181214819Y-114880952D02*
X180214819Y-114880952D01*
X180691009Y-114880952D02*
X180691009Y-115452380D01*
X181214819Y-115452380D02*
X180214819Y-115452380D01*
X180214819Y-115785714D02*
X180214819Y-116357142D01*
X181214819Y-116071428D02*
X180214819Y-116071428D01*
X181214819Y-117214285D02*
X181214819Y-116642857D01*
X181214819Y-116928571D02*
X180214819Y-116928571D01*
X180214819Y-116928571D02*
X180357676Y-116833333D01*
X180357676Y-116833333D02*
X180452914Y-116738095D01*
X180452914Y-116738095D02*
X180500533Y-116642857D01*
X181214819Y-118166666D02*
X181214819Y-117595238D01*
X181214819Y-117880952D02*
X180214819Y-117880952D01*
X180214819Y-117880952D02*
X180357676Y-117785714D01*
X180357676Y-117785714D02*
X180452914Y-117690476D01*
X180452914Y-117690476D02*
X180500533Y-117595238D01*
X162264015Y-134609580D02*
X162311634Y-134657200D01*
X162311634Y-134657200D02*
X162454491Y-134704819D01*
X162454491Y-134704819D02*
X162549729Y-134704819D01*
X162549729Y-134704819D02*
X162692586Y-134657200D01*
X162692586Y-134657200D02*
X162787824Y-134561961D01*
X162787824Y-134561961D02*
X162835443Y-134466723D01*
X162835443Y-134466723D02*
X162883062Y-134276247D01*
X162883062Y-134276247D02*
X162883062Y-134133390D01*
X162883062Y-134133390D02*
X162835443Y-133942914D01*
X162835443Y-133942914D02*
X162787824Y-133847676D01*
X162787824Y-133847676D02*
X162692586Y-133752438D01*
X162692586Y-133752438D02*
X162549729Y-133704819D01*
X162549729Y-133704819D02*
X162454491Y-133704819D01*
X162454491Y-133704819D02*
X162311634Y-133752438D01*
X162311634Y-133752438D02*
X162264015Y-133800057D01*
X161930681Y-133704819D02*
X161311634Y-133704819D01*
X161311634Y-133704819D02*
X161644967Y-134085771D01*
X161644967Y-134085771D02*
X161502110Y-134085771D01*
X161502110Y-134085771D02*
X161406872Y-134133390D01*
X161406872Y-134133390D02*
X161359253Y-134181009D01*
X161359253Y-134181009D02*
X161311634Y-134276247D01*
X161311634Y-134276247D02*
X161311634Y-134514342D01*
X161311634Y-134514342D02*
X161359253Y-134609580D01*
X161359253Y-134609580D02*
X161406872Y-134657200D01*
X161406872Y-134657200D02*
X161502110Y-134704819D01*
X161502110Y-134704819D02*
X161787824Y-134704819D01*
X161787824Y-134704819D02*
X161883062Y-134657200D01*
X161883062Y-134657200D02*
X161930681Y-134609580D01*
X165406873Y-124204819D02*
X165978301Y-124204819D01*
X165692587Y-124204819D02*
X165692587Y-123204819D01*
X165692587Y-123204819D02*
X165787825Y-123347676D01*
X165787825Y-123347676D02*
X165883063Y-123442914D01*
X165883063Y-123442914D02*
X165978301Y-123490533D01*
X164549730Y-123204819D02*
X164740206Y-123204819D01*
X164740206Y-123204819D02*
X164835444Y-123252438D01*
X164835444Y-123252438D02*
X164883063Y-123300057D01*
X164883063Y-123300057D02*
X164978301Y-123442914D01*
X164978301Y-123442914D02*
X165025920Y-123633390D01*
X165025920Y-123633390D02*
X165025920Y-124014342D01*
X165025920Y-124014342D02*
X164978301Y-124109580D01*
X164978301Y-124109580D02*
X164930682Y-124157200D01*
X164930682Y-124157200D02*
X164835444Y-124204819D01*
X164835444Y-124204819D02*
X164644968Y-124204819D01*
X164644968Y-124204819D02*
X164549730Y-124157200D01*
X164549730Y-124157200D02*
X164502111Y-124109580D01*
X164502111Y-124109580D02*
X164454492Y-124014342D01*
X164454492Y-124014342D02*
X164454492Y-123776247D01*
X164454492Y-123776247D02*
X164502111Y-123681009D01*
X164502111Y-123681009D02*
X164549730Y-123633390D01*
X164549730Y-123633390D02*
X164644968Y-123585771D01*
X164644968Y-123585771D02*
X164835444Y-123585771D01*
X164835444Y-123585771D02*
X164930682Y-123633390D01*
X164930682Y-123633390D02*
X164978301Y-123681009D01*
X164978301Y-123681009D02*
X165025920Y-123776247D01*
X164168777Y-123204819D02*
X163835444Y-124204819D01*
X163835444Y-124204819D02*
X163502111Y-123204819D01*
X161978301Y-123204819D02*
X162168777Y-123204819D01*
X162168777Y-123204819D02*
X162264015Y-123252438D01*
X162264015Y-123252438D02*
X162311634Y-123300057D01*
X162311634Y-123300057D02*
X162406872Y-123442914D01*
X162406872Y-123442914D02*
X162454491Y-123633390D01*
X162454491Y-123633390D02*
X162454491Y-124014342D01*
X162454491Y-124014342D02*
X162406872Y-124109580D01*
X162406872Y-124109580D02*
X162359253Y-124157200D01*
X162359253Y-124157200D02*
X162264015Y-124204819D01*
X162264015Y-124204819D02*
X162073539Y-124204819D01*
X162073539Y-124204819D02*
X161978301Y-124157200D01*
X161978301Y-124157200D02*
X161930682Y-124109580D01*
X161930682Y-124109580D02*
X161883063Y-124014342D01*
X161883063Y-124014342D02*
X161883063Y-123776247D01*
X161883063Y-123776247D02*
X161930682Y-123681009D01*
X161930682Y-123681009D02*
X161978301Y-123633390D01*
X161978301Y-123633390D02*
X162073539Y-123585771D01*
X162073539Y-123585771D02*
X162264015Y-123585771D01*
X162264015Y-123585771D02*
X162359253Y-123633390D01*
X162359253Y-123633390D02*
X162406872Y-123681009D01*
X162406872Y-123681009D02*
X162454491Y-123776247D01*
X161311634Y-123633390D02*
X161406872Y-123585771D01*
X161406872Y-123585771D02*
X161454491Y-123538152D01*
X161454491Y-123538152D02*
X161502110Y-123442914D01*
X161502110Y-123442914D02*
X161502110Y-123395295D01*
X161502110Y-123395295D02*
X161454491Y-123300057D01*
X161454491Y-123300057D02*
X161406872Y-123252438D01*
X161406872Y-123252438D02*
X161311634Y-123204819D01*
X161311634Y-123204819D02*
X161121158Y-123204819D01*
X161121158Y-123204819D02*
X161025920Y-123252438D01*
X161025920Y-123252438D02*
X160978301Y-123300057D01*
X160978301Y-123300057D02*
X160930682Y-123395295D01*
X160930682Y-123395295D02*
X160930682Y-123442914D01*
X160930682Y-123442914D02*
X160978301Y-123538152D01*
X160978301Y-123538152D02*
X161025920Y-123585771D01*
X161025920Y-123585771D02*
X161121158Y-123633390D01*
X161121158Y-123633390D02*
X161311634Y-123633390D01*
X161311634Y-123633390D02*
X161406872Y-123681009D01*
X161406872Y-123681009D02*
X161454491Y-123728628D01*
X161454491Y-123728628D02*
X161502110Y-123823866D01*
X161502110Y-123823866D02*
X161502110Y-124014342D01*
X161502110Y-124014342D02*
X161454491Y-124109580D01*
X161454491Y-124109580D02*
X161406872Y-124157200D01*
X161406872Y-124157200D02*
X161311634Y-124204819D01*
X161311634Y-124204819D02*
X161121158Y-124204819D01*
X161121158Y-124204819D02*
X161025920Y-124157200D01*
X161025920Y-124157200D02*
X160978301Y-124109580D01*
X160978301Y-124109580D02*
X160930682Y-124014342D01*
X160930682Y-124014342D02*
X160930682Y-123823866D01*
X160930682Y-123823866D02*
X160978301Y-123728628D01*
X160978301Y-123728628D02*
X161025920Y-123681009D01*
X161025920Y-123681009D02*
X161121158Y-123633390D01*
X160311634Y-123204819D02*
X160216396Y-123204819D01*
X160216396Y-123204819D02*
X160121158Y-123252438D01*
X160121158Y-123252438D02*
X160073539Y-123300057D01*
X160073539Y-123300057D02*
X160025920Y-123395295D01*
X160025920Y-123395295D02*
X159978301Y-123585771D01*
X159978301Y-123585771D02*
X159978301Y-123823866D01*
X159978301Y-123823866D02*
X160025920Y-124014342D01*
X160025920Y-124014342D02*
X160073539Y-124109580D01*
X160073539Y-124109580D02*
X160121158Y-124157200D01*
X160121158Y-124157200D02*
X160216396Y-124204819D01*
X160216396Y-124204819D02*
X160311634Y-124204819D01*
X160311634Y-124204819D02*
X160406872Y-124157200D01*
X160406872Y-124157200D02*
X160454491Y-124109580D01*
X160454491Y-124109580D02*
X160502110Y-124014342D01*
X160502110Y-124014342D02*
X160549729Y-123823866D01*
X160549729Y-123823866D02*
X160549729Y-123585771D01*
X160549729Y-123585771D02*
X160502110Y-123395295D01*
X160502110Y-123395295D02*
X160454491Y-123300057D01*
X160454491Y-123300057D02*
X160406872Y-123252438D01*
X160406872Y-123252438D02*
X160311634Y-123204819D01*
X159121158Y-123538152D02*
X159121158Y-124204819D01*
X159549729Y-123538152D02*
X159549729Y-124061961D01*
X159549729Y-124061961D02*
X159502110Y-124157200D01*
X159502110Y-124157200D02*
X159406872Y-124204819D01*
X159406872Y-124204819D02*
X159264015Y-124204819D01*
X159264015Y-124204819D02*
X159168777Y-124157200D01*
X159168777Y-124157200D02*
X159121158Y-124109580D01*
X158311634Y-123681009D02*
X158644967Y-123681009D01*
X158644967Y-124204819D02*
X158644967Y-123204819D01*
X158644967Y-123204819D02*
X158168777Y-123204819D01*
X207109580Y-123333333D02*
X207157200Y-123285714D01*
X207157200Y-123285714D02*
X207204819Y-123142857D01*
X207204819Y-123142857D02*
X207204819Y-123047619D01*
X207204819Y-123047619D02*
X207157200Y-122904762D01*
X207157200Y-122904762D02*
X207061961Y-122809524D01*
X207061961Y-122809524D02*
X206966723Y-122761905D01*
X206966723Y-122761905D02*
X206776247Y-122714286D01*
X206776247Y-122714286D02*
X206633390Y-122714286D01*
X206633390Y-122714286D02*
X206442914Y-122761905D01*
X206442914Y-122761905D02*
X206347676Y-122809524D01*
X206347676Y-122809524D02*
X206252438Y-122904762D01*
X206252438Y-122904762D02*
X206204819Y-123047619D01*
X206204819Y-123047619D02*
X206204819Y-123142857D01*
X206204819Y-123142857D02*
X206252438Y-123285714D01*
X206252438Y-123285714D02*
X206300057Y-123333333D01*
X207204819Y-124285714D02*
X207204819Y-123714286D01*
X207204819Y-124000000D02*
X206204819Y-124000000D01*
X206204819Y-124000000D02*
X206347676Y-123904762D01*
X206347676Y-123904762D02*
X206442914Y-123809524D01*
X206442914Y-123809524D02*
X206490533Y-123714286D01*
X216800057Y-119619047D02*
X216752438Y-119666666D01*
X216752438Y-119666666D02*
X216704819Y-119761904D01*
X216704819Y-119761904D02*
X216704819Y-119999999D01*
X216704819Y-119999999D02*
X216752438Y-120095237D01*
X216752438Y-120095237D02*
X216800057Y-120142856D01*
X216800057Y-120142856D02*
X216895295Y-120190475D01*
X216895295Y-120190475D02*
X216990533Y-120190475D01*
X216990533Y-120190475D02*
X217133390Y-120142856D01*
X217133390Y-120142856D02*
X217704819Y-119571428D01*
X217704819Y-119571428D02*
X217704819Y-120190475D01*
X216704819Y-121095237D02*
X216704819Y-120619047D01*
X216704819Y-120619047D02*
X217181009Y-120571428D01*
X217181009Y-120571428D02*
X217133390Y-120619047D01*
X217133390Y-120619047D02*
X217085771Y-120714285D01*
X217085771Y-120714285D02*
X217085771Y-120952380D01*
X217085771Y-120952380D02*
X217133390Y-121047618D01*
X217133390Y-121047618D02*
X217181009Y-121095237D01*
X217181009Y-121095237D02*
X217276247Y-121142856D01*
X217276247Y-121142856D02*
X217514342Y-121142856D01*
X217514342Y-121142856D02*
X217609580Y-121095237D01*
X217609580Y-121095237D02*
X217657200Y-121047618D01*
X217657200Y-121047618D02*
X217704819Y-120952380D01*
X217704819Y-120952380D02*
X217704819Y-120714285D01*
X217704819Y-120714285D02*
X217657200Y-120619047D01*
X217657200Y-120619047D02*
X217609580Y-120571428D01*
X216704819Y-121428571D02*
X217704819Y-121761904D01*
X217704819Y-121761904D02*
X216704819Y-122095237D01*
X216800057Y-123142857D02*
X216752438Y-123190476D01*
X216752438Y-123190476D02*
X216704819Y-123285714D01*
X216704819Y-123285714D02*
X216704819Y-123523809D01*
X216704819Y-123523809D02*
X216752438Y-123619047D01*
X216752438Y-123619047D02*
X216800057Y-123666666D01*
X216800057Y-123666666D02*
X216895295Y-123714285D01*
X216895295Y-123714285D02*
X216990533Y-123714285D01*
X216990533Y-123714285D02*
X217133390Y-123666666D01*
X217133390Y-123666666D02*
X217704819Y-123095238D01*
X217704819Y-123095238D02*
X217704819Y-123714285D01*
X216800057Y-124095238D02*
X216752438Y-124142857D01*
X216752438Y-124142857D02*
X216704819Y-124238095D01*
X216704819Y-124238095D02*
X216704819Y-124476190D01*
X216704819Y-124476190D02*
X216752438Y-124571428D01*
X216752438Y-124571428D02*
X216800057Y-124619047D01*
X216800057Y-124619047D02*
X216895295Y-124666666D01*
X216895295Y-124666666D02*
X216990533Y-124666666D01*
X216990533Y-124666666D02*
X217133390Y-124619047D01*
X217133390Y-124619047D02*
X217704819Y-124047619D01*
X217704819Y-124047619D02*
X217704819Y-124666666D01*
X216704819Y-125285714D02*
X216704819Y-125380952D01*
X216704819Y-125380952D02*
X216752438Y-125476190D01*
X216752438Y-125476190D02*
X216800057Y-125523809D01*
X216800057Y-125523809D02*
X216895295Y-125571428D01*
X216895295Y-125571428D02*
X217085771Y-125619047D01*
X217085771Y-125619047D02*
X217323866Y-125619047D01*
X217323866Y-125619047D02*
X217514342Y-125571428D01*
X217514342Y-125571428D02*
X217609580Y-125523809D01*
X217609580Y-125523809D02*
X217657200Y-125476190D01*
X217657200Y-125476190D02*
X217704819Y-125380952D01*
X217704819Y-125380952D02*
X217704819Y-125285714D01*
X217704819Y-125285714D02*
X217657200Y-125190476D01*
X217657200Y-125190476D02*
X217609580Y-125142857D01*
X217609580Y-125142857D02*
X217514342Y-125095238D01*
X217514342Y-125095238D02*
X217323866Y-125047619D01*
X217323866Y-125047619D02*
X217085771Y-125047619D01*
X217085771Y-125047619D02*
X216895295Y-125095238D01*
X216895295Y-125095238D02*
X216800057Y-125142857D01*
X216800057Y-125142857D02*
X216752438Y-125190476D01*
X216752438Y-125190476D02*
X216704819Y-125285714D01*
X217038152Y-126476190D02*
X217704819Y-126476190D01*
X217038152Y-126047619D02*
X217561961Y-126047619D01*
X217561961Y-126047619D02*
X217657200Y-126095238D01*
X217657200Y-126095238D02*
X217704819Y-126190476D01*
X217704819Y-126190476D02*
X217704819Y-126333333D01*
X217704819Y-126333333D02*
X217657200Y-126428571D01*
X217657200Y-126428571D02*
X217609580Y-126476190D01*
X217181009Y-127285714D02*
X217181009Y-126952381D01*
X217704819Y-126952381D02*
X216704819Y-126952381D01*
X216704819Y-126952381D02*
X216704819Y-127428571D01*
%TO.C,C4*%
D13*
X152380000Y-129120000D02*
X157620000Y-129120000D01*
X152380000Y-117880000D02*
X152380000Y-129120000D01*
X157620000Y-129120000D02*
X157620000Y-117880000D01*
X157620000Y-117880000D02*
X152380000Y-117880000D01*
%TO.C,C2*%
X153880000Y-101380000D02*
X153880000Y-106620000D01*
X153880000Y-106620000D02*
X165120000Y-106620000D01*
X165120000Y-101380000D02*
X153880000Y-101380000D01*
X165120000Y-106620000D02*
X165120000Y-101380000D01*
%TO.C,U2*%
X166860000Y-112840000D02*
X166860000Y-114450000D01*
X166860000Y-112840000D02*
X168860000Y-112840000D01*
X167140000Y-113130000D02*
X167140000Y-118870000D01*
X167140000Y-118880000D02*
X179400000Y-118880000D01*
X179400000Y-113120000D02*
X167150000Y-113120000D01*
X179400000Y-118880000D02*
X179400000Y-113120000D01*
%TO.C,C3*%
X157687651Y-131315000D02*
X158487651Y-131315000D01*
X158087651Y-131715000D02*
X158087651Y-130915000D01*
X162097349Y-133080000D02*
X162097349Y-124920000D01*
X162137349Y-133080000D02*
X162137349Y-124920000D01*
X162177349Y-133079000D02*
X162177349Y-124921000D01*
X162217349Y-133078000D02*
X162217349Y-124922000D01*
X162257349Y-133077000D02*
X162257349Y-124923000D01*
X162297349Y-133075000D02*
X162297349Y-124925000D01*
X162337349Y-133073000D02*
X162337349Y-124927000D01*
X162377349Y-133070000D02*
X162377349Y-124930000D01*
X162417349Y-133068000D02*
X162417349Y-124932000D01*
X162457349Y-133064000D02*
X162457349Y-124936000D01*
X162497349Y-133061000D02*
X162497349Y-124939000D01*
X162537349Y-133056000D02*
X162537349Y-124944000D01*
X162577349Y-133052000D02*
X162577349Y-124948000D01*
X162617349Y-133047000D02*
X162617349Y-124953000D01*
X162657349Y-133042000D02*
X162657349Y-124958000D01*
X162697349Y-133036000D02*
X162697349Y-124964000D01*
X162737349Y-133030000D02*
X162737349Y-124970000D01*
X162777349Y-133023000D02*
X162777349Y-124977000D01*
X162817349Y-133017000D02*
X162817349Y-124983000D01*
X162857349Y-133009000D02*
X162857349Y-124991000D01*
X162897349Y-133002000D02*
X162897349Y-124998000D01*
X162937349Y-132993000D02*
X162937349Y-125007000D01*
X162977349Y-132985000D02*
X162977349Y-125015000D01*
X163017349Y-132976000D02*
X163017349Y-125024000D01*
X163057349Y-132967000D02*
X163057349Y-125033000D01*
X163097349Y-132957000D02*
X163097349Y-125043000D01*
X163137349Y-132947000D02*
X163137349Y-125053000D01*
X163177349Y-132936000D02*
X163177349Y-125064000D01*
X163217349Y-132925000D02*
X163217349Y-125075000D01*
X163257349Y-132913000D02*
X163257349Y-125087000D01*
X163297349Y-132901000D02*
X163297349Y-125099000D01*
X163337349Y-132889000D02*
X163337349Y-125111000D01*
X163377349Y-132876000D02*
X163377349Y-125124000D01*
X163417349Y-132863000D02*
X163417349Y-125137000D01*
X163457349Y-132849000D02*
X163457349Y-125151000D01*
X163497349Y-132835000D02*
X163497349Y-125165000D01*
X163537349Y-132820000D02*
X163537349Y-125180000D01*
X163577349Y-127960000D02*
X163577349Y-125195000D01*
X163577349Y-132805000D02*
X163577349Y-130040000D01*
X163617349Y-127960000D02*
X163617349Y-125211000D01*
X163617349Y-132789000D02*
X163617349Y-130040000D01*
X163657349Y-127960000D02*
X163657349Y-125227000D01*
X163657349Y-132773000D02*
X163657349Y-130040000D01*
X163697349Y-127960000D02*
X163697349Y-125243000D01*
X163697349Y-132757000D02*
X163697349Y-130040000D01*
X163737349Y-127960000D02*
X163737349Y-125260000D01*
X163737349Y-132740000D02*
X163737349Y-130040000D01*
X163777349Y-127960000D02*
X163777349Y-125278000D01*
X163777349Y-132722000D02*
X163777349Y-130040000D01*
X163817349Y-127960000D02*
X163817349Y-125296000D01*
X163817349Y-132704000D02*
X163817349Y-130040000D01*
X163857349Y-127960000D02*
X163857349Y-125315000D01*
X163857349Y-132685000D02*
X163857349Y-130040000D01*
X163897349Y-127960000D02*
X163897349Y-125334000D01*
X163897349Y-132666000D02*
X163897349Y-130040000D01*
X163937349Y-127960000D02*
X163937349Y-125354000D01*
X163937349Y-132646000D02*
X163937349Y-130040000D01*
X163977349Y-127960000D02*
X163977349Y-125374000D01*
X163977349Y-132626000D02*
X163977349Y-130040000D01*
X164017349Y-127960000D02*
X164017349Y-125395000D01*
X164017349Y-132605000D02*
X164017349Y-130040000D01*
X164057349Y-127960000D02*
X164057349Y-125416000D01*
X164057349Y-132584000D02*
X164057349Y-130040000D01*
X164097349Y-127960000D02*
X164097349Y-125438000D01*
X164097349Y-132562000D02*
X164097349Y-130040000D01*
X164137349Y-127960000D02*
X164137349Y-125461000D01*
X164137349Y-132539000D02*
X164137349Y-130040000D01*
X164177349Y-127960000D02*
X164177349Y-125484000D01*
X164177349Y-132516000D02*
X164177349Y-130040000D01*
X164217349Y-127960000D02*
X164217349Y-125507000D01*
X164217349Y-132493000D02*
X164217349Y-130040000D01*
X164257349Y-127960000D02*
X164257349Y-125532000D01*
X164257349Y-132468000D02*
X164257349Y-130040000D01*
X164297349Y-127960000D02*
X164297349Y-125557000D01*
X164297349Y-132443000D02*
X164297349Y-130040000D01*
X164337349Y-127960000D02*
X164337349Y-125582000D01*
X164337349Y-132418000D02*
X164337349Y-130040000D01*
X164377349Y-127960000D02*
X164377349Y-125608000D01*
X164377349Y-132392000D02*
X164377349Y-130040000D01*
X164417349Y-127960000D02*
X164417349Y-125635000D01*
X164417349Y-132365000D02*
X164417349Y-130040000D01*
X164457349Y-127960000D02*
X164457349Y-125663000D01*
X164457349Y-132337000D02*
X164457349Y-130040000D01*
X164497349Y-127960000D02*
X164497349Y-125691000D01*
X164497349Y-132309000D02*
X164497349Y-130040000D01*
X164537349Y-127960000D02*
X164537349Y-125720000D01*
X164537349Y-132280000D02*
X164537349Y-130040000D01*
X164577349Y-127960000D02*
X164577349Y-125750000D01*
X164577349Y-132250000D02*
X164577349Y-130040000D01*
X164617349Y-127960000D02*
X164617349Y-125781000D01*
X164617349Y-132219000D02*
X164617349Y-130040000D01*
X164657349Y-127960000D02*
X164657349Y-125812000D01*
X164657349Y-132188000D02*
X164657349Y-130040000D01*
X164697349Y-127960000D02*
X164697349Y-125844000D01*
X164697349Y-132156000D02*
X164697349Y-130040000D01*
X164737349Y-127960000D02*
X164737349Y-125877000D01*
X164737349Y-132123000D02*
X164737349Y-130040000D01*
X164777349Y-127960000D02*
X164777349Y-125911000D01*
X164777349Y-132089000D02*
X164777349Y-130040000D01*
X164817349Y-127960000D02*
X164817349Y-125945000D01*
X164817349Y-132055000D02*
X164817349Y-130040000D01*
X164857349Y-127960000D02*
X164857349Y-125981000D01*
X164857349Y-132019000D02*
X164857349Y-130040000D01*
X164897349Y-127960000D02*
X164897349Y-126018000D01*
X164897349Y-131982000D02*
X164897349Y-130040000D01*
X164937349Y-127960000D02*
X164937349Y-126055000D01*
X164937349Y-131945000D02*
X164937349Y-130040000D01*
X164977349Y-127960000D02*
X164977349Y-126094000D01*
X164977349Y-131906000D02*
X164977349Y-130040000D01*
X165017349Y-127960000D02*
X165017349Y-126133000D01*
X165017349Y-131867000D02*
X165017349Y-130040000D01*
X165057349Y-127960000D02*
X165057349Y-126174000D01*
X165057349Y-131826000D02*
X165057349Y-130040000D01*
X165097349Y-127960000D02*
X165097349Y-126216000D01*
X165097349Y-131784000D02*
X165097349Y-130040000D01*
X165137349Y-127960000D02*
X165137349Y-126259000D01*
X165137349Y-131741000D02*
X165137349Y-130040000D01*
X165177349Y-127960000D02*
X165177349Y-126304000D01*
X165177349Y-131696000D02*
X165177349Y-130040000D01*
X165217349Y-127960000D02*
X165217349Y-126349000D01*
X165217349Y-131651000D02*
X165217349Y-130040000D01*
X165257349Y-127960000D02*
X165257349Y-126396000D01*
X165257349Y-131604000D02*
X165257349Y-130040000D01*
X165297349Y-127960000D02*
X165297349Y-126445000D01*
X165297349Y-131555000D02*
X165297349Y-130040000D01*
X165337349Y-127960000D02*
X165337349Y-126495000D01*
X165337349Y-131505000D02*
X165337349Y-130040000D01*
X165377349Y-127960000D02*
X165377349Y-126547000D01*
X165377349Y-131453000D02*
X165377349Y-130040000D01*
X165417349Y-127960000D02*
X165417349Y-126600000D01*
X165417349Y-131400000D02*
X165417349Y-130040000D01*
X165457349Y-127960000D02*
X165457349Y-126656000D01*
X165457349Y-131344000D02*
X165457349Y-130040000D01*
X165497349Y-127960000D02*
X165497349Y-126713000D01*
X165497349Y-131287000D02*
X165497349Y-130040000D01*
X165537349Y-127960000D02*
X165537349Y-126773000D01*
X165537349Y-131227000D02*
X165537349Y-130040000D01*
X165577349Y-127960000D02*
X165577349Y-126835000D01*
X165577349Y-131165000D02*
X165577349Y-130040000D01*
X165617349Y-127960000D02*
X165617349Y-126899000D01*
X165617349Y-131101000D02*
X165617349Y-130040000D01*
X165657349Y-131034000D02*
X165657349Y-126966000D01*
X165697349Y-130964000D02*
X165697349Y-127036000D01*
X165737349Y-130890000D02*
X165737349Y-127110000D01*
X165777349Y-130813000D02*
X165777349Y-127187000D01*
X165817349Y-130731000D02*
X165817349Y-127269000D01*
X165857349Y-130644000D02*
X165857349Y-127356000D01*
X165897349Y-130552000D02*
X165897349Y-127448000D01*
X165937349Y-130453000D02*
X165937349Y-127547000D01*
X165977349Y-130346000D02*
X165977349Y-127654000D01*
X166017349Y-130228000D02*
X166017349Y-127772000D01*
X166057349Y-130097000D02*
X166057349Y-127903000D01*
X166097349Y-129947000D02*
X166097349Y-128053000D01*
X166137349Y-129768000D02*
X166137349Y-128232000D01*
X166177349Y-129533000D02*
X166177349Y-128467000D01*
X166217349Y-129000000D02*
G75*
G02*
X157977349Y-129000000I-4120000J0D01*
G01*
X157977349Y-129000000D02*
G75*
G02*
X166217349Y-129000000I4120000J0D01*
G01*
%TO.C,C1*%
X207920000Y-123500000D02*
X216080000Y-123500000D01*
X207920000Y-123540000D02*
X216080000Y-123540000D01*
X207921000Y-123580000D02*
X216079000Y-123580000D01*
X207922000Y-123620000D02*
X216078000Y-123620000D01*
X207923000Y-123660000D02*
X216077000Y-123660000D01*
X207925000Y-123700000D02*
X216075000Y-123700000D01*
X207927000Y-123740000D02*
X216073000Y-123740000D01*
X207930000Y-123780000D02*
X216070000Y-123780000D01*
X207932000Y-123820000D02*
X216068000Y-123820000D01*
X207936000Y-123860000D02*
X216064000Y-123860000D01*
X207939000Y-123900000D02*
X216061000Y-123900000D01*
X207944000Y-123940000D02*
X216056000Y-123940000D01*
X207948000Y-123980000D02*
X216052000Y-123980000D01*
X207953000Y-124020000D02*
X216047000Y-124020000D01*
X207958000Y-124060000D02*
X216042000Y-124060000D01*
X207964000Y-124100000D02*
X216036000Y-124100000D01*
X207970000Y-124140000D02*
X216030000Y-124140000D01*
X207977000Y-124180000D02*
X216023000Y-124180000D01*
X207983000Y-124220000D02*
X216017000Y-124220000D01*
X207991000Y-124260000D02*
X216009000Y-124260000D01*
X207998000Y-124300000D02*
X216002000Y-124300000D01*
X208007000Y-124340000D02*
X215993000Y-124340000D01*
X208015000Y-124380000D02*
X215985000Y-124380000D01*
X208024000Y-124420000D02*
X215976000Y-124420000D01*
X208033000Y-124460000D02*
X215967000Y-124460000D01*
X208043000Y-124500000D02*
X215957000Y-124500000D01*
X208053000Y-124540000D02*
X215947000Y-124540000D01*
X208064000Y-124580000D02*
X215936000Y-124580000D01*
X208075000Y-124620000D02*
X215925000Y-124620000D01*
X208087000Y-124660000D02*
X215913000Y-124660000D01*
X208099000Y-124700000D02*
X215901000Y-124700000D01*
X208111000Y-124740000D02*
X215889000Y-124740000D01*
X208124000Y-124780000D02*
X215876000Y-124780000D01*
X208137000Y-124820000D02*
X215863000Y-124820000D01*
X208151000Y-124860000D02*
X215849000Y-124860000D01*
X208165000Y-124900000D02*
X215835000Y-124900000D01*
X208180000Y-124940000D02*
X215820000Y-124940000D01*
X208195000Y-124980000D02*
X210960000Y-124980000D01*
X208211000Y-125020000D02*
X210960000Y-125020000D01*
X208227000Y-125060000D02*
X210960000Y-125060000D01*
X208243000Y-125100000D02*
X210960000Y-125100000D01*
X208260000Y-125140000D02*
X210960000Y-125140000D01*
X208278000Y-125180000D02*
X210960000Y-125180000D01*
X208296000Y-125220000D02*
X210960000Y-125220000D01*
X208315000Y-125260000D02*
X210960000Y-125260000D01*
X208334000Y-125300000D02*
X210960000Y-125300000D01*
X208354000Y-125340000D02*
X210960000Y-125340000D01*
X208374000Y-125380000D02*
X210960000Y-125380000D01*
X208395000Y-125420000D02*
X210960000Y-125420000D01*
X208416000Y-125460000D02*
X210960000Y-125460000D01*
X208438000Y-125500000D02*
X210960000Y-125500000D01*
X208461000Y-125540000D02*
X210960000Y-125540000D01*
X208484000Y-125580000D02*
X210960000Y-125580000D01*
X208507000Y-125620000D02*
X210960000Y-125620000D01*
X208532000Y-125660000D02*
X210960000Y-125660000D01*
X208557000Y-125700000D02*
X210960000Y-125700000D01*
X208582000Y-125740000D02*
X210960000Y-125740000D01*
X208608000Y-125780000D02*
X210960000Y-125780000D01*
X208635000Y-125820000D02*
X210960000Y-125820000D01*
X208663000Y-125860000D02*
X210960000Y-125860000D01*
X208691000Y-125900000D02*
X210960000Y-125900000D01*
X208720000Y-125940000D02*
X210960000Y-125940000D01*
X208750000Y-125980000D02*
X210960000Y-125980000D01*
X208781000Y-126020000D02*
X210960000Y-126020000D01*
X208812000Y-126060000D02*
X210960000Y-126060000D01*
X208844000Y-126100000D02*
X210960000Y-126100000D01*
X208877000Y-126140000D02*
X210960000Y-126140000D01*
X208911000Y-126180000D02*
X210960000Y-126180000D01*
X208945000Y-126220000D02*
X210960000Y-126220000D01*
X208981000Y-126260000D02*
X210960000Y-126260000D01*
X209018000Y-126300000D02*
X210960000Y-126300000D01*
X209055000Y-126340000D02*
X210960000Y-126340000D01*
X209094000Y-126380000D02*
X210960000Y-126380000D01*
X209133000Y-126420000D02*
X210960000Y-126420000D01*
X209174000Y-126460000D02*
X210960000Y-126460000D01*
X209216000Y-126500000D02*
X210960000Y-126500000D01*
X209259000Y-126540000D02*
X210960000Y-126540000D01*
X209285000Y-119490302D02*
X210085000Y-119490302D01*
X209304000Y-126580000D02*
X210960000Y-126580000D01*
X209349000Y-126620000D02*
X210960000Y-126620000D01*
X209396000Y-126660000D02*
X210960000Y-126660000D01*
X209445000Y-126700000D02*
X210960000Y-126700000D01*
X209495000Y-126740000D02*
X210960000Y-126740000D01*
X209547000Y-126780000D02*
X210960000Y-126780000D01*
X209600000Y-126820000D02*
X210960000Y-126820000D01*
X209656000Y-126860000D02*
X210960000Y-126860000D01*
X209685000Y-119090302D02*
X209685000Y-119890302D01*
X209713000Y-126900000D02*
X210960000Y-126900000D01*
X209773000Y-126940000D02*
X210960000Y-126940000D01*
X209835000Y-126980000D02*
X210960000Y-126980000D01*
X209899000Y-127020000D02*
X210960000Y-127020000D01*
X209966000Y-127060000D02*
X214034000Y-127060000D01*
X210036000Y-127100000D02*
X213964000Y-127100000D01*
X210110000Y-127140000D02*
X213890000Y-127140000D01*
X210187000Y-127180000D02*
X213813000Y-127180000D01*
X210269000Y-127220000D02*
X213731000Y-127220000D01*
X210356000Y-127260000D02*
X213644000Y-127260000D01*
X210448000Y-127300000D02*
X213552000Y-127300000D01*
X210547000Y-127340000D02*
X213453000Y-127340000D01*
X210654000Y-127380000D02*
X213346000Y-127380000D01*
X210772000Y-127420000D02*
X213228000Y-127420000D01*
X210903000Y-127460000D02*
X213097000Y-127460000D01*
X211053000Y-127500000D02*
X212947000Y-127500000D01*
X211232000Y-127540000D02*
X212768000Y-127540000D01*
X211467000Y-127580000D02*
X212533000Y-127580000D01*
X213040000Y-124980000D02*
X215805000Y-124980000D01*
X213040000Y-125020000D02*
X215789000Y-125020000D01*
X213040000Y-125060000D02*
X215773000Y-125060000D01*
X213040000Y-125100000D02*
X215757000Y-125100000D01*
X213040000Y-125140000D02*
X215740000Y-125140000D01*
X213040000Y-125180000D02*
X215722000Y-125180000D01*
X213040000Y-125220000D02*
X215704000Y-125220000D01*
X213040000Y-125260000D02*
X215685000Y-125260000D01*
X213040000Y-125300000D02*
X215666000Y-125300000D01*
X213040000Y-125340000D02*
X215646000Y-125340000D01*
X213040000Y-125380000D02*
X215626000Y-125380000D01*
X213040000Y-125420000D02*
X215605000Y-125420000D01*
X213040000Y-125460000D02*
X215584000Y-125460000D01*
X213040000Y-125500000D02*
X215562000Y-125500000D01*
X213040000Y-125540000D02*
X215539000Y-125540000D01*
X213040000Y-125580000D02*
X215516000Y-125580000D01*
X213040000Y-125620000D02*
X215493000Y-125620000D01*
X213040000Y-125660000D02*
X215468000Y-125660000D01*
X213040000Y-125700000D02*
X215443000Y-125700000D01*
X213040000Y-125740000D02*
X215418000Y-125740000D01*
X213040000Y-125780000D02*
X215392000Y-125780000D01*
X213040000Y-125820000D02*
X215365000Y-125820000D01*
X213040000Y-125860000D02*
X215337000Y-125860000D01*
X213040000Y-125900000D02*
X215309000Y-125900000D01*
X213040000Y-125940000D02*
X215280000Y-125940000D01*
X213040000Y-125980000D02*
X215250000Y-125980000D01*
X213040000Y-126020000D02*
X215219000Y-126020000D01*
X213040000Y-126060000D02*
X215188000Y-126060000D01*
X213040000Y-126100000D02*
X215156000Y-126100000D01*
X213040000Y-126140000D02*
X215123000Y-126140000D01*
X213040000Y-126180000D02*
X215089000Y-126180000D01*
X213040000Y-126220000D02*
X215055000Y-126220000D01*
X213040000Y-126260000D02*
X215019000Y-126260000D01*
X213040000Y-126300000D02*
X214982000Y-126300000D01*
X213040000Y-126340000D02*
X214945000Y-126340000D01*
X213040000Y-126380000D02*
X214906000Y-126380000D01*
X213040000Y-126420000D02*
X214867000Y-126420000D01*
X213040000Y-126460000D02*
X214826000Y-126460000D01*
X213040000Y-126500000D02*
X214784000Y-126500000D01*
X213040000Y-126540000D02*
X214741000Y-126540000D01*
X213040000Y-126580000D02*
X214696000Y-126580000D01*
X213040000Y-126620000D02*
X214651000Y-126620000D01*
X213040000Y-126660000D02*
X214604000Y-126660000D01*
X213040000Y-126700000D02*
X214555000Y-126700000D01*
X213040000Y-126740000D02*
X214505000Y-126740000D01*
X213040000Y-126780000D02*
X214453000Y-126780000D01*
X213040000Y-126820000D02*
X214400000Y-126820000D01*
X213040000Y-126860000D02*
X214344000Y-126860000D01*
X213040000Y-126900000D02*
X214287000Y-126900000D01*
X213040000Y-126940000D02*
X214227000Y-126940000D01*
X213040000Y-126980000D02*
X214165000Y-126980000D01*
X213040000Y-127020000D02*
X214101000Y-127020000D01*
X216120000Y-123500000D02*
G75*
G02*
X207880000Y-123500000I-4120000J0D01*
G01*
X207880000Y-123500000D02*
G75*
G02*
X216120000Y-123500000I4120000J0D01*
G01*
%TD*%
M02*
