%TF.GenerationSoftware,KiCad,Pcbnew,10.0.1*%
%TF.CreationDate,2026-05-10T20:22:36+03:00*%
%TF.ProjectId,termostat-v2,7465726d-6f73-4746-9174-2d76322e6b69,rev?*%
%TF.SameCoordinates,Original*%
%TF.FileFunction,Copper,L2,Bot*%
%TF.FilePolarity,Positive*%
%FSLAX46Y46*%
G04 Gerber Fmt 4.6, Leading zero omitted, Abs format (unit mm)*
G04 Created by KiCad (PCBNEW 10.0.1) date 2026-05-10 20:22:36*
%MOMM*%
%LPD*%
G01*
G04 APERTURE LIST*
G04 Aperture macros list*
%AMRoundRect*
0 Rectangle with rounded corners*
0 $1 Rounding radius*
0 $2 $3 $4 $5 $6 $7 $8 $9 X,Y pos of 4 corners*
0 Add a 4 corners polygon primitive as box body*
4,1,4,$2,$3,$4,$5,$6,$7,$8,$9,$2,$3,0*
0 Add four circle primitives for the rounded corners*
1,1,$1+$1,$2,$3*
1,1,$1+$1,$4,$5*
1,1,$1+$1,$6,$7*
1,1,$1+$1,$8,$9*
0 Add four rect primitives between the rounded corners*
20,1,$1+$1,$2,$3,$4,$5,0*
20,1,$1+$1,$4,$5,$6,$7,0*
20,1,$1+$1,$6,$7,$8,$9,0*
20,1,$1+$1,$8,$9,$2,$3,0*%
G04 Aperture macros list end*
%TA.AperFunction,ComponentPad*%
%ADD10C,2.000000*%
%TD*%
%TA.AperFunction,ComponentPad*%
%ADD11C,1.600000*%
%TD*%
%TA.AperFunction,ComponentPad*%
%ADD12RoundRect,0.249999X-0.850001X-0.850001X0.850001X-0.850001X0.850001X0.850001X-0.850001X0.850001X0*%
%TD*%
%TA.AperFunction,ComponentPad*%
%ADD13C,2.200000*%
%TD*%
%TA.AperFunction,ComponentPad*%
%ADD14R,1.700000X1.700000*%
%TD*%
%TA.AperFunction,ComponentPad*%
%ADD15C,1.700000*%
%TD*%
%TA.AperFunction,ComponentPad*%
%ADD16R,1.050000X1.500000*%
%TD*%
%TA.AperFunction,ComponentPad*%
%ADD17O,1.050000X1.500000*%
%TD*%
%TA.AperFunction,ComponentPad*%
%ADD18R,1.560000X1.560000*%
%TD*%
%TA.AperFunction,ComponentPad*%
%ADD19C,1.560000*%
%TD*%
%TA.AperFunction,ComponentPad*%
%ADD20C,3.000000*%
%TD*%
%TA.AperFunction,ComponentPad*%
%ADD21R,1.800000X2.600000*%
%TD*%
%TA.AperFunction,ComponentPad*%
%ADD22O,1.800000X2.600000*%
%TD*%
%TA.AperFunction,ComponentPad*%
%ADD23C,1.524000*%
%TD*%
%TA.AperFunction,ComponentPad*%
%ADD24R,2.000000X2.000000*%
%TD*%
%TA.AperFunction,ComponentPad*%
%ADD25R,1.500000X1.500000*%
%TD*%
%TA.AperFunction,ComponentPad*%
%ADD26C,1.500000*%
%TD*%
%TA.AperFunction,ComponentPad*%
%ADD27RoundRect,0.250000X-0.550000X-0.550000X0.550000X-0.550000X0.550000X0.550000X-0.550000X0.550000X0*%
%TD*%
%TA.AperFunction,ComponentPad*%
%ADD28RoundRect,0.250000X-0.550000X0.550000X-0.550000X-0.550000X0.550000X-0.550000X0.550000X0.550000X0*%
%TD*%
%TA.AperFunction,Conductor*%
%ADD29C,0.400000*%
%TD*%
%TA.AperFunction,Conductor*%
%ADD30C,0.200000*%
%TD*%
%TA.AperFunction,Conductor*%
%ADD31C,0.300000*%
%TD*%
G04 APERTURE END LIST*
D10*
%TO.P,C4,2*%
%TO.N,/+VDC*%
X155000000Y-126000000D03*
%TO.P,C4,1*%
%TO.N,GND*%
X155000000Y-121000000D03*
%TD*%
D11*
%TO.P,R4,1*%
%TO.N,Net-(Q1-B)*%
X211080000Y-100000000D03*
%TO.P,R4,2*%
%TO.N,Net-(U1-IO13)*%
X200920000Y-100000000D03*
%TD*%
D12*
%TO.P,D1,1,K_1*%
%TO.N,/+VDC*%
X213920000Y-81000000D03*
D13*
%TO.P,D1,2,A_2*%
%TO.N,Net-(BZ1--)*%
X224080000Y-81000000D03*
%TD*%
D14*
%TO.P,J1,1,Pin_1_1*%
%TO.N,unconnected-(J1-Pin_1-Pad1)*%
X231000000Y-109110000D03*
D15*
%TO.P,J1,2,Pin_2_2*%
%TO.N,unconnected-(J1-Pin_2-Pad2)*%
X231000000Y-111650000D03*
%TO.P,J1,3,Pin_3_3*%
%TO.N,unconnected-(J1-Pin_3-Pad3)*%
X231000000Y-114190000D03*
%TO.P,J1,4,Pin_4_4*%
%TO.N,unconnected-(J1-Pin_4-Pad4)*%
X231000000Y-116730000D03*
%TO.P,J1,5,Pin_5_5*%
%TO.N,unconnected-(J1-Pin_5-Pad5)*%
X231000000Y-119270000D03*
%TO.P,J1,6,Pin_6_6*%
%TO.N,unconnected-(J1-Pin_6-Pad6)*%
X231000000Y-121810000D03*
%TO.P,J1,7,Pin_7_7*%
%TO.N,/+VDC*%
X231000000Y-124350000D03*
%TO.P,J1,8,Pin_8_8*%
%TO.N,GND*%
X231000000Y-126890000D03*
%TD*%
D11*
%TO.P,R1,1*%
%TO.N,/V(3.3)*%
X220000000Y-65000000D03*
%TO.P,R1,2*%
%TO.N,Net-(U1-IO34)*%
X217000000Y-65000000D03*
%TD*%
%TO.P,R2,1*%
%TO.N,Net-(U1-IO34)*%
X231000000Y-63920000D03*
%TO.P,R2,2*%
%TO.N,GND*%
X231000000Y-74080000D03*
%TD*%
D10*
%TO.P,SW2,1,1_1*%
%TO.N,Net-(U1-IO26)*%
X106000000Y-116750000D03*
X112500000Y-116750000D03*
%TO.P,SW2,2,2_2*%
%TO.N,GND*%
X106000000Y-121250000D03*
X112500000Y-121250000D03*
%TD*%
D16*
%TO.P,Q2,1,E_1*%
%TO.N,GND*%
X99460000Y-104000000D03*
D17*
%TO.P,Q2,2,B_2*%
%TO.N,Net-(Q2-B)*%
X100730000Y-104000000D03*
%TO.P,Q2,3,C_3*%
%TO.N,Net-(DS2-LED(-))*%
X102000000Y-104000000D03*
%TD*%
D10*
%TO.P,SW1,1,1_1*%
%TO.N,Net-(U1-IO27)*%
X91000000Y-116750000D03*
X97500000Y-116750000D03*
%TO.P,SW1,2,2_2*%
%TO.N,GND*%
X91000000Y-121250000D03*
X97500000Y-121250000D03*
%TD*%
D11*
%TO.P,R3,1*%
%TO.N,Net-(U1-IO21)*%
X188000000Y-118920000D03*
%TO.P,R3,2*%
%TO.N,/V(3.3)*%
X188000000Y-129080000D03*
%TD*%
D18*
%TO.P,RV3,1,1_1*%
%TO.N,/+VDC*%
X82500000Y-103760000D03*
D19*
%TO.P,RV3,2,2_2*%
%TO.N,Net-(DS2-VO)*%
X85000000Y-108760000D03*
%TO.P,RV3,3,3_3*%
%TO.N,GND*%
X87500000Y-103760000D03*
%TD*%
D10*
%TO.P,SW4,1,1_1*%
%TO.N,Net-(U1-IO23)*%
X136000000Y-116750000D03*
X142500000Y-116750000D03*
%TO.P,SW4,2,2_2*%
%TO.N,GND*%
X136000000Y-121250000D03*
X142500000Y-121250000D03*
%TD*%
%TO.P,SW3,1,1_1*%
%TO.N,Net-(U1-IO25)*%
X121000000Y-116750000D03*
X127500000Y-116750000D03*
%TO.P,SW3,2,2_2*%
%TO.N,GND*%
X121000000Y-121250000D03*
X127500000Y-121250000D03*
%TD*%
D11*
%TO.P,R7,1*%
%TO.N,Net-(Q2-B)*%
X83000000Y-114000000D03*
%TO.P,R7,2*%
%TO.N,Net-(U1-IO22)*%
X83000000Y-124160000D03*
%TD*%
D20*
%TO.P,DS2,*%
%TO.N,*%
X84500900Y-64642500D03*
X84500900Y-95643200D03*
X159499480Y-95643200D03*
X159500000Y-64642500D03*
D21*
%TO.P,DS2,1,VSS_1*%
%TO.N,GND*%
X90000000Y-64642500D03*
D22*
%TO.P,DS2,2,VDD_2*%
%TO.N,/+VDC*%
X92540000Y-64642500D03*
%TO.P,DS2,3,VO_3*%
%TO.N,Net-(DS2-VO)*%
X95080000Y-64642500D03*
%TO.P,DS2,4,RS_4*%
%TO.N,Net-(DS2-RS)*%
X97620000Y-64642500D03*
%TO.P,DS2,5,R/W_5*%
%TO.N,GND*%
X100160000Y-64642500D03*
%TO.P,DS2,6,E_6*%
%TO.N,Net-(DS2-E)*%
X102700000Y-64642500D03*
%TO.P,DS2,7,D0_7*%
%TO.N,unconnected-(DS2-D0-Pad7)*%
X105240000Y-64642500D03*
%TO.P,DS2,8,D1_8*%
%TO.N,unconnected-(DS2-D1-Pad8)*%
X107780000Y-64642500D03*
%TO.P,DS2,9,D2_9*%
%TO.N,unconnected-(DS2-D2-Pad9)*%
X110320000Y-64642500D03*
%TO.P,DS2,10,D3_10*%
%TO.N,unconnected-(DS2-D3-Pad10)*%
X112860000Y-64642500D03*
%TO.P,DS2,11,D4_11*%
%TO.N,Net-(DS2-D4)*%
X115400000Y-64642500D03*
%TO.P,DS2,12,D5_12*%
%TO.N,Net-(DS2-D5)*%
X117940000Y-64642500D03*
%TO.P,DS2,13,D6_13*%
%TO.N,Net-(DS2-D6)*%
X120480000Y-64642500D03*
%TO.P,DS2,14,D7_14*%
%TO.N,Net-(DS2-D7)*%
X123020000Y-64642500D03*
%TO.P,DS2,15,LED(+)_15*%
%TO.N,/+VDC*%
X125560000Y-64642500D03*
%TO.P,DS2,16,LED(-)_16*%
%TO.N,Net-(DS2-LED(-))*%
X128100000Y-64642500D03*
%TD*%
D23*
%TO.P,U1,J1_1,3.3V_J1_1*%
%TO.N,/V(3.3)*%
X168570000Y-63300000D03*
%TO.P,U1,J1_2,EN_J1_2*%
%TO.N,unconnected-(U1-EN-PadJ1_2)*%
X168570000Y-65840000D03*
%TO.P,U1,J1_3,IO36_J1_3*%
%TO.N,unconnected-(U1-IO36-PadJ1_3)*%
X168570000Y-68380000D03*
%TO.P,U1,J1_4,IO39_J1_4*%
%TO.N,unconnected-(U1-IO39-PadJ1_4)*%
X168570000Y-70920000D03*
%TO.P,U1,J1_5,IO34_J1_5*%
%TO.N,Net-(U1-IO34)*%
X168570000Y-73460000D03*
%TO.P,U1,J1_6,IO35_J1_6*%
%TO.N,unconnected-(U1-IO35-PadJ1_6)*%
X168570000Y-76000000D03*
%TO.P,U1,J1_7,IO32_J1_7*%
%TO.N,unconnected-(U1-IO32-PadJ1_7)*%
X168570000Y-78540000D03*
%TO.P,U1,J1_8,IO33_J1_8*%
%TO.N,unconnected-(U1-IO33-PadJ1_8)*%
X168570000Y-81080000D03*
%TO.P,U1,J1_9,IO25_J1_9*%
%TO.N,Net-(U1-IO25)*%
X168570000Y-83620000D03*
%TO.P,U1,J1_10,IO26_J1_10*%
%TO.N,Net-(U1-IO26)*%
X168570000Y-86160000D03*
%TO.P,U1,J1_11,IO27_J1_11*%
%TO.N,Net-(U1-IO27)*%
X168570000Y-88700000D03*
%TO.P,U1,J1_12,IO14_J1_12*%
%TO.N,Net-(DS2-D5)*%
X168570000Y-91240000D03*
%TO.P,U1,J1_13,IO12_J1_13*%
%TO.N,unconnected-(U1-IO12-PadJ1_13)*%
X168570000Y-93780000D03*
%TO.P,U1,J1_14,GND_J1_14*%
%TO.N,GND*%
X168570000Y-96320000D03*
%TO.P,U1,J1_15,IO13_J1_15*%
%TO.N,Net-(U1-IO13)*%
X168570000Y-98860000D03*
%TO.P,U1,J1_16,IO9_J1_16*%
%TO.N,unconnected-(U1-IO9-PadJ1_16)*%
X168570000Y-101400000D03*
%TO.P,U1,J1_17,IO10_J1_17*%
%TO.N,unconnected-(U1-IO10-PadJ1_17)*%
X168570000Y-103940000D03*
%TO.P,U1,J1_18,IO11_J1_18*%
%TO.N,unconnected-(U1-IO11-PadJ1_18)*%
X168570000Y-106480000D03*
%TO.P,U1,J1_19,5V_J1_19*%
%TO.N,/+VDC*%
X168570000Y-109020000D03*
%TO.P,U1,J2_1,GND_J2_1*%
%TO.N,GND*%
X191430000Y-63300000D03*
%TO.P,U1,J2_2,IO23_J2_2*%
%TO.N,Net-(U1-IO23)*%
X191430000Y-65840000D03*
%TO.P,U1,J2_3,IO22_J2_3*%
%TO.N,Net-(U1-IO22)*%
X191430000Y-68380000D03*
%TO.P,U1,J2_4,TX0_J2_4*%
%TO.N,unconnected-(U1-TX0-PadJ2_4)*%
X191430000Y-70920000D03*
%TO.P,U1,J2_5,RX0_J2_5*%
%TO.N,unconnected-(U1-RX0-PadJ2_5)*%
X191430000Y-73460000D03*
%TO.P,U1,J2_6,IO21_J2_6*%
%TO.N,Net-(U1-IO21)*%
X191430000Y-76000000D03*
%TO.P,U1,J2_7,GND_J2_7*%
%TO.N,GND*%
X191430000Y-78540000D03*
%TO.P,U1,J2_8,IO19_J2_8*%
%TO.N,Net-(DS2-E)*%
X191430000Y-81080000D03*
%TO.P,U1,J2_9,IO18_J2_9*%
%TO.N,Net-(DS2-RS)*%
X191430000Y-83620000D03*
%TO.P,U1,J2_10,IO5_J2_10*%
%TO.N,unconnected-(U1-IO5-PadJ2_10)*%
X191430000Y-86160000D03*
%TO.P,U1,J2_11,IO17_J2_11*%
%TO.N,Net-(DS2-D7)*%
X191430000Y-88700000D03*
%TO.P,U1,J2_12,IO16_J2_12*%
%TO.N,Net-(DS2-D6)*%
X191430000Y-91240000D03*
%TO.P,U1,J2_13,IO4_J2_13*%
%TO.N,Net-(DS2-D4)*%
X191430000Y-93780000D03*
%TO.P,U1,J2_14,IO0_J2_14*%
%TO.N,unconnected-(U1-IO0-PadJ2_14)*%
X191430000Y-96320000D03*
%TO.P,U1,J2_15,IO2_J2_15*%
%TO.N,unconnected-(U1-IO2-PadJ2_15)*%
X191430000Y-98860000D03*
%TO.P,U1,J2_16,IO15_J2_16*%
%TO.N,unconnected-(U1-IO15-PadJ2_16)*%
X191430000Y-101400000D03*
%TO.P,U1,J2_17,IO8_J2_17*%
%TO.N,unconnected-(U1-IO8-PadJ2_17)*%
X191430000Y-103940000D03*
%TO.P,U1,J2_18,IO7_J2_18*%
%TO.N,unconnected-(U1-IO7-PadJ2_18)*%
X191430000Y-106480000D03*
%TO.P,U1,J2_19,IO6_J2_19*%
%TO.N,unconnected-(U1-IO6-PadJ2_19)*%
X191430000Y-109020000D03*
%TD*%
D16*
%TO.P,Q1,1,E_1*%
%TO.N,GND*%
X221460000Y-92000000D03*
D17*
%TO.P,Q1,2,B_2*%
%TO.N,Net-(Q1-B)*%
X222730000Y-92000000D03*
%TO.P,Q1,3,C_3*%
%TO.N,Net-(BZ1--)*%
X224000000Y-92000000D03*
%TD*%
D24*
%TO.P,BZ1,1,+_1*%
%TO.N,/+VDC*%
X203200000Y-88000000D03*
D10*
%TO.P,BZ1,2,-_2*%
%TO.N,Net-(BZ1--)*%
X210800000Y-88000000D03*
%TD*%
%TO.P,C2,1*%
%TO.N,/+VDC*%
X162000000Y-104000000D03*
%TO.P,C2,2*%
%TO.N,GND*%
X157000000Y-104000000D03*
%TD*%
D25*
%TO.P,U2,1,VDD_1*%
%TO.N,/+VDC*%
X169460000Y-116000000D03*
D26*
%TO.P,U2,2,DATA_2*%
%TO.N,Net-(U1-IO21)*%
X172000000Y-116000000D03*
%TO.P,U2,3,NC_3*%
%TO.N,unconnected-(U2-NC-Pad3)*%
X174540000Y-116000000D03*
%TO.P,U2,4,GND_4*%
%TO.N,GND*%
X177080000Y-116000000D03*
%TD*%
D27*
%TO.P,C3,1*%
%TO.N,/+VDC*%
X159597349Y-129000000D03*
D11*
%TO.P,C3,2*%
%TO.N,GND*%
X164597349Y-129000000D03*
%TD*%
D28*
%TO.P,C1,1*%
%TO.N,/+VDC*%
X212000000Y-121000000D03*
D11*
%TO.P,C1,2*%
%TO.N,GND*%
X212000000Y-126000000D03*
%TD*%
%TO.N,/+VDC*%
D29*
X96182500Y-61000000D02*
X92540000Y-64642500D01*
X125560000Y-61560000D02*
X125000000Y-61000000D01*
D30*
X117442944Y-63042500D02*
X116740000Y-63745444D01*
X116740000Y-66740000D02*
X159020000Y-109020000D01*
X123960000Y-63042500D02*
X117442944Y-63042500D01*
D29*
X125000000Y-61000000D02*
X96182500Y-61000000D01*
D30*
X160220444Y-109020000D02*
X168570000Y-109020000D01*
D29*
X125560000Y-64642500D02*
X125560000Y-61560000D01*
D30*
X116740000Y-63745444D02*
X116740000Y-66740000D01*
X160220444Y-105779556D02*
X162000000Y-104000000D01*
X159020000Y-109020000D02*
X160220444Y-109020000D01*
X160220444Y-109020000D02*
X160220444Y-105779556D01*
X125560000Y-64642500D02*
X123960000Y-63042500D01*
%TO.N,GND*%
D29*
X99460000Y-114710000D02*
X106000000Y-121250000D01*
X99460000Y-104000000D02*
X99460000Y-114710000D01*
%TO.N,/V(3.3)*%
D31*
X220000000Y-65000000D02*
X222000000Y-67000000D01*
X197920000Y-129080000D02*
X188000000Y-129080000D01*
X219000000Y-73000000D02*
X219000000Y-84000000D01*
X222000000Y-70000000D02*
X219000000Y-73000000D01*
X219000000Y-84000000D02*
X217000000Y-86000000D01*
X222000000Y-67000000D02*
X222000000Y-70000000D01*
X217000000Y-86000000D02*
X217000000Y-110000000D01*
X217000000Y-110000000D02*
X197920000Y-129080000D01*
%TO.N,Net-(U1-IO21)*%
D30*
X172000000Y-119000000D02*
X173000000Y-120000000D01*
X194000000Y-117000000D02*
X192080000Y-118920000D01*
X194000000Y-117000000D02*
X194000000Y-78570000D01*
X173000000Y-120000000D02*
X186920000Y-120000000D01*
X172000000Y-116000000D02*
X172000000Y-119000000D01*
X192080000Y-118920000D02*
X188000000Y-118920000D01*
X186920000Y-120000000D02*
X188000000Y-118920000D01*
X194000000Y-78570000D02*
X191430000Y-76000000D01*
%TO.N,Net-(U1-IO23)*%
X195000000Y-72000000D02*
X190000000Y-72000000D01*
X202000000Y-61000000D02*
X197000000Y-66000000D01*
X189000000Y-68270000D02*
X191430000Y-65840000D01*
X234000000Y-129000000D02*
X234000000Y-83957546D01*
X197000000Y-66000000D02*
X197000000Y-70000000D01*
X234000000Y-83233274D02*
X234000000Y-63000000D01*
X190000000Y-72000000D02*
X189000000Y-71000000D01*
X232000000Y-61000000D02*
X202000000Y-61000000D01*
X234000000Y-83957546D02*
X234000000Y-83233274D01*
X147000000Y-132000000D02*
X148000000Y-133000000D01*
X234000000Y-63000000D02*
X232000000Y-61000000D01*
X230000000Y-133000000D02*
X234000000Y-129000000D01*
X148000000Y-133000000D02*
X230000000Y-133000000D01*
X147000000Y-121250000D02*
X147000000Y-132000000D01*
X142500000Y-116750000D02*
X147000000Y-121250000D01*
X197000000Y-70000000D02*
X195000000Y-72000000D01*
X189000000Y-71000000D02*
X189000000Y-68270000D01*
%TO.N,Net-(U1-IO22)*%
X165000000Y-61000000D02*
X195000000Y-61000000D01*
X164000000Y-60000000D02*
X165000000Y-61000000D01*
X81000000Y-60000000D02*
X164000000Y-60000000D01*
X195000000Y-61000000D02*
X196000000Y-62000000D01*
X80000000Y-123000000D02*
X80000000Y-61000000D01*
X196000000Y-67000000D02*
X194620000Y-68380000D01*
X196000000Y-62000000D02*
X196000000Y-67000000D01*
X194620000Y-68380000D02*
X191430000Y-68380000D01*
X81160000Y-124160000D02*
X80000000Y-123000000D01*
X80000000Y-61000000D02*
X81000000Y-60000000D01*
X83000000Y-124160000D02*
X81160000Y-124160000D01*
%TO.N,Net-(DS2-RS)*%
X116000000Y-112000000D02*
X172000000Y-112000000D01*
X172000000Y-91000000D02*
X179380000Y-83620000D01*
X179380000Y-83620000D02*
X191430000Y-83620000D01*
X172000000Y-112000000D02*
X172000000Y-91000000D01*
X97620000Y-64642500D02*
X97620000Y-93620000D01*
X97620000Y-93620000D02*
X116000000Y-112000000D01*
%TO.N,Net-(DS2-D5)*%
X144297500Y-91000000D02*
X117940000Y-64642500D01*
X167000000Y-91000000D02*
X167240000Y-91240000D01*
X167000000Y-91000000D02*
X144297500Y-91000000D01*
X167240000Y-91240000D02*
X168570000Y-91240000D01*
%TO.N,Net-(DS2-D6)*%
X138395500Y-82558000D02*
X191869895Y-82558000D01*
X120480000Y-64642500D02*
X138395500Y-82558000D01*
X192492000Y-83180105D02*
X192492000Y-90178000D01*
X192492000Y-90178000D02*
X191430000Y-91240000D01*
X191869895Y-82558000D02*
X192492000Y-83180105D01*
%TO.N,Net-(DS2-D7)*%
X192035581Y-82158000D02*
X192892000Y-83014420D01*
X192892000Y-83014420D02*
X192892000Y-91279895D01*
X192892000Y-91279895D02*
X191869895Y-92302000D01*
X191869895Y-92302000D02*
X190990105Y-92302000D01*
X123020000Y-64642500D02*
X140535500Y-82158000D01*
X190368000Y-91679895D02*
X190368000Y-89762000D01*
X140535500Y-82158000D02*
X192035581Y-82158000D01*
X190990105Y-92302000D02*
X190368000Y-91679895D01*
X190368000Y-89762000D02*
X191430000Y-88700000D01*
%TD*%
M02*
