%TF.GenerationSoftware,KiCad,Pcbnew,10.0.2*%
%TF.CreationDate,2026-05-14T17:39:15+03:00*%
%TF.ProjectId,starting_module-v2,73746172-7469-46e6-975f-6d6f64756c65,rev?*%
%TF.SameCoordinates,Original*%
%TF.FileFunction,Legend,Bot*%
%TF.FilePolarity,Positive*%
%FSLAX46Y46*%
G04 Gerber Fmt 4.6, Leading zero omitted, Abs format (unit mm)*
G04 Created by KiCad (PCBNEW 10.0.2) date 2026-05-14 17:39:15*
%MOMM*%
%LPD*%
G01*
G04 APERTURE LIST*
%ADD10C,0.100000*%
%ADD11C,0.150000*%
%ADD12C,0.200000*%
%ADD13C,0.120000*%
G04 APERTURE END LIST*
D10*
X216052580Y-96794925D02*
X216052580Y-97271115D01*
X216052580Y-97271115D02*
X215576390Y-97318734D01*
X215576390Y-97318734D02*
X215624009Y-97271115D01*
X215624009Y-97271115D02*
X215671628Y-97175877D01*
X215671628Y-97175877D02*
X215671628Y-96937782D01*
X215671628Y-96937782D02*
X215624009Y-96842544D01*
X215624009Y-96842544D02*
X215576390Y-96794925D01*
X215576390Y-96794925D02*
X215481152Y-96747306D01*
X215481152Y-96747306D02*
X215243057Y-96747306D01*
X215243057Y-96747306D02*
X215147819Y-96794925D01*
X215147819Y-96794925D02*
X215100200Y-96842544D01*
X215100200Y-96842544D02*
X215052580Y-96937782D01*
X215052580Y-96937782D02*
X215052580Y-97175877D01*
X215052580Y-97175877D02*
X215100200Y-97271115D01*
X215100200Y-97271115D02*
X215147819Y-97318734D01*
X216052580Y-96461591D02*
X215052580Y-96128258D01*
X215052580Y-96128258D02*
X216052580Y-95794925D01*
X215433533Y-95461591D02*
X215433533Y-94699687D01*
X216052580Y-94366353D02*
X215052580Y-94033020D01*
X215052580Y-94033020D02*
X216052580Y-93699687D01*
X215052580Y-93366353D02*
X216052580Y-93366353D01*
X216052580Y-93366353D02*
X216052580Y-93128258D01*
X216052580Y-93128258D02*
X216004961Y-92985401D01*
X216004961Y-92985401D02*
X215909723Y-92890163D01*
X215909723Y-92890163D02*
X215814485Y-92842544D01*
X215814485Y-92842544D02*
X215624009Y-92794925D01*
X215624009Y-92794925D02*
X215481152Y-92794925D01*
X215481152Y-92794925D02*
X215290676Y-92842544D01*
X215290676Y-92842544D02*
X215195438Y-92890163D01*
X215195438Y-92890163D02*
X215100200Y-92985401D01*
X215100200Y-92985401D02*
X215052580Y-93128258D01*
X215052580Y-93128258D02*
X215052580Y-93366353D01*
X215147819Y-91794925D02*
X215100200Y-91842544D01*
X215100200Y-91842544D02*
X215052580Y-91985401D01*
X215052580Y-91985401D02*
X215052580Y-92080639D01*
X215052580Y-92080639D02*
X215100200Y-92223496D01*
X215100200Y-92223496D02*
X215195438Y-92318734D01*
X215195438Y-92318734D02*
X215290676Y-92366353D01*
X215290676Y-92366353D02*
X215481152Y-92413972D01*
X215481152Y-92413972D02*
X215624009Y-92413972D01*
X215624009Y-92413972D02*
X215814485Y-92366353D01*
X215814485Y-92366353D02*
X215909723Y-92318734D01*
X215909723Y-92318734D02*
X216004961Y-92223496D01*
X216004961Y-92223496D02*
X216052580Y-92080639D01*
X216052580Y-92080639D02*
X216052580Y-91985401D01*
X216052580Y-91985401D02*
X216004961Y-91842544D01*
X216004961Y-91842544D02*
X215957342Y-91794925D01*
X215433533Y-91366353D02*
X215433533Y-90604449D01*
X216052580Y-90271115D02*
X216052580Y-89699687D01*
X215052580Y-89985401D02*
X216052580Y-89985401D01*
X215719247Y-89461591D02*
X215052580Y-89223496D01*
X215719247Y-88985401D02*
X215052580Y-89223496D01*
X215052580Y-89223496D02*
X214814485Y-89318734D01*
X214814485Y-89318734D02*
X214766866Y-89366353D01*
X214766866Y-89366353D02*
X214719247Y-89461591D01*
X215719247Y-88604448D02*
X214719247Y-88604448D01*
X215671628Y-88604448D02*
X215719247Y-88509210D01*
X215719247Y-88509210D02*
X215719247Y-88318734D01*
X215719247Y-88318734D02*
X215671628Y-88223496D01*
X215671628Y-88223496D02*
X215624009Y-88175877D01*
X215624009Y-88175877D02*
X215528771Y-88128258D01*
X215528771Y-88128258D02*
X215243057Y-88128258D01*
X215243057Y-88128258D02*
X215147819Y-88175877D01*
X215147819Y-88175877D02*
X215100200Y-88223496D01*
X215100200Y-88223496D02*
X215052580Y-88318734D01*
X215052580Y-88318734D02*
X215052580Y-88509210D01*
X215052580Y-88509210D02*
X215100200Y-88604448D01*
X215147819Y-87699686D02*
X215100200Y-87652067D01*
X215100200Y-87652067D02*
X215052580Y-87699686D01*
X215052580Y-87699686D02*
X215100200Y-87747305D01*
X215100200Y-87747305D02*
X215147819Y-87699686D01*
X215147819Y-87699686D02*
X215052580Y-87699686D01*
X215147819Y-86652068D02*
X215100200Y-86699687D01*
X215100200Y-86699687D02*
X215052580Y-86842544D01*
X215052580Y-86842544D02*
X215052580Y-86937782D01*
X215052580Y-86937782D02*
X215100200Y-87080639D01*
X215100200Y-87080639D02*
X215195438Y-87175877D01*
X215195438Y-87175877D02*
X215290676Y-87223496D01*
X215290676Y-87223496D02*
X215481152Y-87271115D01*
X215481152Y-87271115D02*
X215624009Y-87271115D01*
X215624009Y-87271115D02*
X215814485Y-87223496D01*
X215814485Y-87223496D02*
X215909723Y-87175877D01*
X215909723Y-87175877D02*
X216004961Y-87080639D01*
X216004961Y-87080639D02*
X216052580Y-86937782D01*
X216052580Y-86937782D02*
X216052580Y-86842544D01*
X216052580Y-86842544D02*
X216004961Y-86699687D01*
X216004961Y-86699687D02*
X215957342Y-86652068D01*
D11*
X148810588Y-91255180D02*
X148239160Y-91255180D01*
X148524874Y-91255180D02*
X148524874Y-92255180D01*
X148524874Y-92255180D02*
X148429636Y-92112323D01*
X148429636Y-92112323D02*
X148334398Y-92017085D01*
X148334398Y-92017085D02*
X148239160Y-91969466D01*
X149429636Y-92255180D02*
X149524874Y-92255180D01*
X149524874Y-92255180D02*
X149620112Y-92207561D01*
X149620112Y-92207561D02*
X149667731Y-92159942D01*
X149667731Y-92159942D02*
X149715350Y-92064704D01*
X149715350Y-92064704D02*
X149762969Y-91874228D01*
X149762969Y-91874228D02*
X149762969Y-91636133D01*
X149762969Y-91636133D02*
X149715350Y-91445657D01*
X149715350Y-91445657D02*
X149667731Y-91350419D01*
X149667731Y-91350419D02*
X149620112Y-91302800D01*
X149620112Y-91302800D02*
X149524874Y-91255180D01*
X149524874Y-91255180D02*
X149429636Y-91255180D01*
X149429636Y-91255180D02*
X149334398Y-91302800D01*
X149334398Y-91302800D02*
X149286779Y-91350419D01*
X149286779Y-91350419D02*
X149239160Y-91445657D01*
X149239160Y-91445657D02*
X149191541Y-91636133D01*
X149191541Y-91636133D02*
X149191541Y-91874228D01*
X149191541Y-91874228D02*
X149239160Y-92064704D01*
X149239160Y-92064704D02*
X149286779Y-92159942D01*
X149286779Y-92159942D02*
X149334398Y-92207561D01*
X149334398Y-92207561D02*
X149429636Y-92255180D01*
X150048684Y-92255180D02*
X150382017Y-91255180D01*
X150382017Y-91255180D02*
X150715350Y-92255180D01*
X152239160Y-91921847D02*
X152239160Y-91255180D01*
X152001065Y-92302800D02*
X151762970Y-91588514D01*
X151762970Y-91588514D02*
X152382017Y-91588514D01*
X152667732Y-92255180D02*
X153334398Y-92255180D01*
X153334398Y-92255180D02*
X152905827Y-91255180D01*
X153905827Y-92255180D02*
X154001065Y-92255180D01*
X154001065Y-92255180D02*
X154096303Y-92207561D01*
X154096303Y-92207561D02*
X154143922Y-92159942D01*
X154143922Y-92159942D02*
X154191541Y-92064704D01*
X154191541Y-92064704D02*
X154239160Y-91874228D01*
X154239160Y-91874228D02*
X154239160Y-91636133D01*
X154239160Y-91636133D02*
X154191541Y-91445657D01*
X154191541Y-91445657D02*
X154143922Y-91350419D01*
X154143922Y-91350419D02*
X154096303Y-91302800D01*
X154096303Y-91302800D02*
X154001065Y-91255180D01*
X154001065Y-91255180D02*
X153905827Y-91255180D01*
X153905827Y-91255180D02*
X153810589Y-91302800D01*
X153810589Y-91302800D02*
X153762970Y-91350419D01*
X153762970Y-91350419D02*
X153715351Y-91445657D01*
X153715351Y-91445657D02*
X153667732Y-91636133D01*
X153667732Y-91636133D02*
X153667732Y-91874228D01*
X153667732Y-91874228D02*
X153715351Y-92064704D01*
X153715351Y-92064704D02*
X153762970Y-92159942D01*
X153762970Y-92159942D02*
X153810589Y-92207561D01*
X153810589Y-92207561D02*
X153905827Y-92255180D01*
X155096303Y-91921847D02*
X155096303Y-91255180D01*
X154667732Y-91921847D02*
X154667732Y-91398038D01*
X154667732Y-91398038D02*
X154715351Y-91302800D01*
X154715351Y-91302800D02*
X154810589Y-91255180D01*
X154810589Y-91255180D02*
X154953446Y-91255180D01*
X154953446Y-91255180D02*
X155048684Y-91302800D01*
X155048684Y-91302800D02*
X155096303Y-91350419D01*
X155905827Y-91778990D02*
X155572494Y-91778990D01*
X155572494Y-91255180D02*
X155572494Y-92255180D01*
X155572494Y-92255180D02*
X156048684Y-92255180D01*
X130534942Y-78535839D02*
X130582561Y-78488220D01*
X130582561Y-78488220D02*
X130630180Y-78392982D01*
X130630180Y-78392982D02*
X130630180Y-78154887D01*
X130630180Y-78154887D02*
X130582561Y-78059649D01*
X130582561Y-78059649D02*
X130534942Y-78012030D01*
X130534942Y-78012030D02*
X130439704Y-77964411D01*
X130439704Y-77964411D02*
X130344466Y-77964411D01*
X130344466Y-77964411D02*
X130201609Y-78012030D01*
X130201609Y-78012030D02*
X129630180Y-78583458D01*
X129630180Y-78583458D02*
X129630180Y-77964411D01*
X130630180Y-77059649D02*
X130630180Y-77535839D01*
X130630180Y-77535839D02*
X130153990Y-77583458D01*
X130153990Y-77583458D02*
X130201609Y-77535839D01*
X130201609Y-77535839D02*
X130249228Y-77440601D01*
X130249228Y-77440601D02*
X130249228Y-77202506D01*
X130249228Y-77202506D02*
X130201609Y-77107268D01*
X130201609Y-77107268D02*
X130153990Y-77059649D01*
X130153990Y-77059649D02*
X130058752Y-77012030D01*
X130058752Y-77012030D02*
X129820657Y-77012030D01*
X129820657Y-77012030D02*
X129725419Y-77059649D01*
X129725419Y-77059649D02*
X129677800Y-77107268D01*
X129677800Y-77107268D02*
X129630180Y-77202506D01*
X129630180Y-77202506D02*
X129630180Y-77440601D01*
X129630180Y-77440601D02*
X129677800Y-77535839D01*
X129677800Y-77535839D02*
X129725419Y-77583458D01*
X130630180Y-76726315D02*
X129630180Y-76392982D01*
X129630180Y-76392982D02*
X130630180Y-76059649D01*
X130534942Y-75012029D02*
X130582561Y-74964410D01*
X130582561Y-74964410D02*
X130630180Y-74869172D01*
X130630180Y-74869172D02*
X130630180Y-74631077D01*
X130630180Y-74631077D02*
X130582561Y-74535839D01*
X130582561Y-74535839D02*
X130534942Y-74488220D01*
X130534942Y-74488220D02*
X130439704Y-74440601D01*
X130439704Y-74440601D02*
X130344466Y-74440601D01*
X130344466Y-74440601D02*
X130201609Y-74488220D01*
X130201609Y-74488220D02*
X129630180Y-75059648D01*
X129630180Y-75059648D02*
X129630180Y-74440601D01*
X130534942Y-74059648D02*
X130582561Y-74012029D01*
X130582561Y-74012029D02*
X130630180Y-73916791D01*
X130630180Y-73916791D02*
X130630180Y-73678696D01*
X130630180Y-73678696D02*
X130582561Y-73583458D01*
X130582561Y-73583458D02*
X130534942Y-73535839D01*
X130534942Y-73535839D02*
X130439704Y-73488220D01*
X130439704Y-73488220D02*
X130344466Y-73488220D01*
X130344466Y-73488220D02*
X130201609Y-73535839D01*
X130201609Y-73535839D02*
X129630180Y-74107267D01*
X129630180Y-74107267D02*
X129630180Y-73488220D01*
X130630180Y-72869172D02*
X130630180Y-72773934D01*
X130630180Y-72773934D02*
X130582561Y-72678696D01*
X130582561Y-72678696D02*
X130534942Y-72631077D01*
X130534942Y-72631077D02*
X130439704Y-72583458D01*
X130439704Y-72583458D02*
X130249228Y-72535839D01*
X130249228Y-72535839D02*
X130011133Y-72535839D01*
X130011133Y-72535839D02*
X129820657Y-72583458D01*
X129820657Y-72583458D02*
X129725419Y-72631077D01*
X129725419Y-72631077D02*
X129677800Y-72678696D01*
X129677800Y-72678696D02*
X129630180Y-72773934D01*
X129630180Y-72773934D02*
X129630180Y-72869172D01*
X129630180Y-72869172D02*
X129677800Y-72964410D01*
X129677800Y-72964410D02*
X129725419Y-73012029D01*
X129725419Y-73012029D02*
X129820657Y-73059648D01*
X129820657Y-73059648D02*
X130011133Y-73107267D01*
X130011133Y-73107267D02*
X130249228Y-73107267D01*
X130249228Y-73107267D02*
X130439704Y-73059648D01*
X130439704Y-73059648D02*
X130534942Y-73012029D01*
X130534942Y-73012029D02*
X130582561Y-72964410D01*
X130582561Y-72964410D02*
X130630180Y-72869172D01*
X130296847Y-71678696D02*
X129630180Y-71678696D01*
X130296847Y-72107267D02*
X129773038Y-72107267D01*
X129773038Y-72107267D02*
X129677800Y-72059648D01*
X129677800Y-72059648D02*
X129630180Y-71964410D01*
X129630180Y-71964410D02*
X129630180Y-71821553D01*
X129630180Y-71821553D02*
X129677800Y-71726315D01*
X129677800Y-71726315D02*
X129725419Y-71678696D01*
X130153990Y-70869172D02*
X130153990Y-71202505D01*
X129630180Y-71202505D02*
X130630180Y-71202505D01*
X130630180Y-71202505D02*
X130630180Y-70726315D01*
D12*
X182834520Y-73451723D02*
X182091663Y-73451723D01*
X182463091Y-74751723D02*
X182463091Y-73451723D01*
X181163092Y-74689819D02*
X181286901Y-74751723D01*
X181286901Y-74751723D02*
X181534520Y-74751723D01*
X181534520Y-74751723D02*
X181658330Y-74689819D01*
X181658330Y-74689819D02*
X181720234Y-74566009D01*
X181720234Y-74566009D02*
X181720234Y-74070771D01*
X181720234Y-74070771D02*
X181658330Y-73946961D01*
X181658330Y-73946961D02*
X181534520Y-73885057D01*
X181534520Y-73885057D02*
X181286901Y-73885057D01*
X181286901Y-73885057D02*
X181163092Y-73946961D01*
X181163092Y-73946961D02*
X181101187Y-74070771D01*
X181101187Y-74070771D02*
X181101187Y-74194580D01*
X181101187Y-74194580D02*
X181720234Y-74318390D01*
X180544044Y-74751723D02*
X180544044Y-73885057D01*
X180544044Y-74132676D02*
X180482139Y-74008866D01*
X180482139Y-74008866D02*
X180420234Y-73946961D01*
X180420234Y-73946961D02*
X180296425Y-73885057D01*
X180296425Y-73885057D02*
X180172615Y-73885057D01*
X179739282Y-74751723D02*
X179739282Y-73885057D01*
X179739282Y-74008866D02*
X179677377Y-73946961D01*
X179677377Y-73946961D02*
X179553567Y-73885057D01*
X179553567Y-73885057D02*
X179367853Y-73885057D01*
X179367853Y-73885057D02*
X179244044Y-73946961D01*
X179244044Y-73946961D02*
X179182139Y-74070771D01*
X179182139Y-74070771D02*
X179182139Y-74751723D01*
X179182139Y-74070771D02*
X179120234Y-73946961D01*
X179120234Y-73946961D02*
X178996425Y-73885057D01*
X178996425Y-73885057D02*
X178810710Y-73885057D01*
X178810710Y-73885057D02*
X178686901Y-73946961D01*
X178686901Y-73946961D02*
X178624996Y-74070771D01*
X178624996Y-74070771D02*
X178624996Y-74751723D01*
X177820234Y-74751723D02*
X177944044Y-74689819D01*
X177944044Y-74689819D02*
X178005949Y-74627914D01*
X178005949Y-74627914D02*
X178067853Y-74504104D01*
X178067853Y-74504104D02*
X178067853Y-74132676D01*
X178067853Y-74132676D02*
X178005949Y-74008866D01*
X178005949Y-74008866D02*
X177944044Y-73946961D01*
X177944044Y-73946961D02*
X177820234Y-73885057D01*
X177820234Y-73885057D02*
X177634520Y-73885057D01*
X177634520Y-73885057D02*
X177510711Y-73946961D01*
X177510711Y-73946961D02*
X177448806Y-74008866D01*
X177448806Y-74008866D02*
X177386901Y-74132676D01*
X177386901Y-74132676D02*
X177386901Y-74504104D01*
X177386901Y-74504104D02*
X177448806Y-74627914D01*
X177448806Y-74627914D02*
X177510711Y-74689819D01*
X177510711Y-74689819D02*
X177634520Y-74751723D01*
X177634520Y-74751723D02*
X177820234Y-74751723D01*
X176829759Y-74751723D02*
X176829759Y-73451723D01*
X176829759Y-73451723D02*
X176334521Y-73451723D01*
X176334521Y-73451723D02*
X176210711Y-73513628D01*
X176210711Y-73513628D02*
X176148806Y-73575533D01*
X176148806Y-73575533D02*
X176086902Y-73699342D01*
X176086902Y-73699342D02*
X176086902Y-73885057D01*
X176086902Y-73885057D02*
X176148806Y-74008866D01*
X176148806Y-74008866D02*
X176210711Y-74070771D01*
X176210711Y-74070771D02*
X176334521Y-74132676D01*
X176334521Y-74132676D02*
X176829759Y-74132676D01*
X175529759Y-74751723D02*
X175529759Y-73885057D01*
X175529759Y-74132676D02*
X175467854Y-74008866D01*
X175467854Y-74008866D02*
X175405949Y-73946961D01*
X175405949Y-73946961D02*
X175282140Y-73885057D01*
X175282140Y-73885057D02*
X175158330Y-73885057D01*
X174539282Y-74751723D02*
X174663092Y-74689819D01*
X174663092Y-74689819D02*
X174724997Y-74627914D01*
X174724997Y-74627914D02*
X174786901Y-74504104D01*
X174786901Y-74504104D02*
X174786901Y-74132676D01*
X174786901Y-74132676D02*
X174724997Y-74008866D01*
X174724997Y-74008866D02*
X174663092Y-73946961D01*
X174663092Y-73946961D02*
X174539282Y-73885057D01*
X174539282Y-73885057D02*
X174353568Y-73885057D01*
X174353568Y-73885057D02*
X174229759Y-73946961D01*
X174229759Y-73946961D02*
X174167854Y-74008866D01*
X174167854Y-74008866D02*
X174105949Y-74132676D01*
X174105949Y-74132676D02*
X174105949Y-74504104D01*
X174105949Y-74504104D02*
X174167854Y-74627914D01*
X174167854Y-74627914D02*
X174229759Y-74689819D01*
X174229759Y-74689819D02*
X174353568Y-74751723D01*
X174353568Y-74751723D02*
X174539282Y-74751723D01*
X172744045Y-73451723D02*
X172310712Y-74751723D01*
X172310712Y-74751723D02*
X171877378Y-73451723D01*
X171505949Y-73575533D02*
X171444045Y-73513628D01*
X171444045Y-73513628D02*
X171320235Y-73451723D01*
X171320235Y-73451723D02*
X171010711Y-73451723D01*
X171010711Y-73451723D02*
X170886902Y-73513628D01*
X170886902Y-73513628D02*
X170824997Y-73575533D01*
X170824997Y-73575533D02*
X170763092Y-73699342D01*
X170763092Y-73699342D02*
X170763092Y-73823152D01*
X170763092Y-73823152D02*
X170824997Y-74008866D01*
X170824997Y-74008866D02*
X171567854Y-74751723D01*
X171567854Y-74751723D02*
X170763092Y-74751723D01*
X169215474Y-74751723D02*
X169215474Y-73451723D01*
X169215474Y-73946961D02*
X169091664Y-73885057D01*
X169091664Y-73885057D02*
X168844045Y-73885057D01*
X168844045Y-73885057D02*
X168720236Y-73946961D01*
X168720236Y-73946961D02*
X168658331Y-74008866D01*
X168658331Y-74008866D02*
X168596426Y-74132676D01*
X168596426Y-74132676D02*
X168596426Y-74504104D01*
X168596426Y-74504104D02*
X168658331Y-74627914D01*
X168658331Y-74627914D02*
X168720236Y-74689819D01*
X168720236Y-74689819D02*
X168844045Y-74751723D01*
X168844045Y-74751723D02*
X169091664Y-74751723D01*
X169091664Y-74751723D02*
X169215474Y-74689819D01*
X168163093Y-73885057D02*
X167853569Y-74751723D01*
X167544046Y-73885057D02*
X167853569Y-74751723D01*
X167853569Y-74751723D02*
X167977379Y-75061247D01*
X167977379Y-75061247D02*
X168039284Y-75123152D01*
X168039284Y-75123152D02*
X168163093Y-75185057D01*
X166058332Y-74751723D02*
X166058332Y-73451723D01*
X166058332Y-73451723D02*
X165624998Y-74380295D01*
X165624998Y-74380295D02*
X165191665Y-73451723D01*
X165191665Y-73451723D02*
X165191665Y-74751723D01*
X164572618Y-74751723D02*
X164572618Y-73885057D01*
X164572618Y-73451723D02*
X164634522Y-73513628D01*
X164634522Y-73513628D02*
X164572618Y-73575533D01*
X164572618Y-73575533D02*
X164510713Y-73513628D01*
X164510713Y-73513628D02*
X164572618Y-73451723D01*
X164572618Y-73451723D02*
X164572618Y-73575533D01*
X163953570Y-74751723D02*
X163953570Y-73451723D01*
X163396427Y-74751723D02*
X163396427Y-74070771D01*
X163396427Y-74070771D02*
X163458332Y-73946961D01*
X163458332Y-73946961D02*
X163582141Y-73885057D01*
X163582141Y-73885057D02*
X163767855Y-73885057D01*
X163767855Y-73885057D02*
X163891665Y-73946961D01*
X163891665Y-73946961D02*
X163953570Y-74008866D01*
X162220237Y-74751723D02*
X162220237Y-74070771D01*
X162220237Y-74070771D02*
X162282142Y-73946961D01*
X162282142Y-73946961D02*
X162405951Y-73885057D01*
X162405951Y-73885057D02*
X162653570Y-73885057D01*
X162653570Y-73885057D02*
X162777380Y-73946961D01*
X162220237Y-74689819D02*
X162344046Y-74751723D01*
X162344046Y-74751723D02*
X162653570Y-74751723D01*
X162653570Y-74751723D02*
X162777380Y-74689819D01*
X162777380Y-74689819D02*
X162839284Y-74566009D01*
X162839284Y-74566009D02*
X162839284Y-74442199D01*
X162839284Y-74442199D02*
X162777380Y-74318390D01*
X162777380Y-74318390D02*
X162653570Y-74256485D01*
X162653570Y-74256485D02*
X162344046Y-74256485D01*
X162344046Y-74256485D02*
X162220237Y-74194580D01*
X161415475Y-74751723D02*
X161539285Y-74689819D01*
X161539285Y-74689819D02*
X161601190Y-74566009D01*
X161601190Y-74566009D02*
X161601190Y-73451723D01*
X160363095Y-74689819D02*
X160486904Y-74751723D01*
X160486904Y-74751723D02*
X160734523Y-74751723D01*
X160734523Y-74751723D02*
X160858333Y-74689819D01*
X160858333Y-74689819D02*
X160920238Y-74627914D01*
X160920238Y-74627914D02*
X160982142Y-74504104D01*
X160982142Y-74504104D02*
X160982142Y-74132676D01*
X160982142Y-74132676D02*
X160920238Y-74008866D01*
X160920238Y-74008866D02*
X160858333Y-73946961D01*
X160858333Y-73946961D02*
X160734523Y-73885057D01*
X160734523Y-73885057D02*
X160486904Y-73885057D01*
X160486904Y-73885057D02*
X160363095Y-73946961D01*
X159310714Y-74689819D02*
X159434523Y-74751723D01*
X159434523Y-74751723D02*
X159682142Y-74751723D01*
X159682142Y-74751723D02*
X159805952Y-74689819D01*
X159805952Y-74689819D02*
X159867856Y-74566009D01*
X159867856Y-74566009D02*
X159867856Y-74070771D01*
X159867856Y-74070771D02*
X159805952Y-73946961D01*
X159805952Y-73946961D02*
X159682142Y-73885057D01*
X159682142Y-73885057D02*
X159434523Y-73885057D01*
X159434523Y-73885057D02*
X159310714Y-73946961D01*
X159310714Y-73946961D02*
X159248809Y-74070771D01*
X159248809Y-74070771D02*
X159248809Y-74194580D01*
X159248809Y-74194580D02*
X159867856Y-74318390D01*
X158134523Y-74751723D02*
X158134523Y-74070771D01*
X158134523Y-74070771D02*
X158196428Y-73946961D01*
X158196428Y-73946961D02*
X158320237Y-73885057D01*
X158320237Y-73885057D02*
X158567856Y-73885057D01*
X158567856Y-73885057D02*
X158691666Y-73946961D01*
X158134523Y-74689819D02*
X158258332Y-74751723D01*
X158258332Y-74751723D02*
X158567856Y-74751723D01*
X158567856Y-74751723D02*
X158691666Y-74689819D01*
X158691666Y-74689819D02*
X158753570Y-74566009D01*
X158753570Y-74566009D02*
X158753570Y-74442199D01*
X158753570Y-74442199D02*
X158691666Y-74318390D01*
X158691666Y-74318390D02*
X158567856Y-74256485D01*
X158567856Y-74256485D02*
X158258332Y-74256485D01*
X158258332Y-74256485D02*
X158134523Y-74194580D01*
X155782143Y-74627914D02*
X155844047Y-74689819D01*
X155844047Y-74689819D02*
X156029762Y-74751723D01*
X156029762Y-74751723D02*
X156153571Y-74751723D01*
X156153571Y-74751723D02*
X156339285Y-74689819D01*
X156339285Y-74689819D02*
X156463095Y-74566009D01*
X156463095Y-74566009D02*
X156525000Y-74442199D01*
X156525000Y-74442199D02*
X156586904Y-74194580D01*
X156586904Y-74194580D02*
X156586904Y-74008866D01*
X156586904Y-74008866D02*
X156525000Y-73761247D01*
X156525000Y-73761247D02*
X156463095Y-73637438D01*
X156463095Y-73637438D02*
X156339285Y-73513628D01*
X156339285Y-73513628D02*
X156153571Y-73451723D01*
X156153571Y-73451723D02*
X156029762Y-73451723D01*
X156029762Y-73451723D02*
X155844047Y-73513628D01*
X155844047Y-73513628D02*
X155782143Y-73575533D01*
X154667857Y-74751723D02*
X154667857Y-74070771D01*
X154667857Y-74070771D02*
X154729762Y-73946961D01*
X154729762Y-73946961D02*
X154853571Y-73885057D01*
X154853571Y-73885057D02*
X155101190Y-73885057D01*
X155101190Y-73885057D02*
X155225000Y-73946961D01*
X154667857Y-74689819D02*
X154791666Y-74751723D01*
X154791666Y-74751723D02*
X155101190Y-74751723D01*
X155101190Y-74751723D02*
X155225000Y-74689819D01*
X155225000Y-74689819D02*
X155286904Y-74566009D01*
X155286904Y-74566009D02*
X155286904Y-74442199D01*
X155286904Y-74442199D02*
X155225000Y-74318390D01*
X155225000Y-74318390D02*
X155101190Y-74256485D01*
X155101190Y-74256485D02*
X154791666Y-74256485D01*
X154791666Y-74256485D02*
X154667857Y-74194580D01*
X154234524Y-73885057D02*
X153739286Y-73885057D01*
X154048810Y-73451723D02*
X154048810Y-74566009D01*
X154048810Y-74566009D02*
X153986905Y-74689819D01*
X153986905Y-74689819D02*
X153863095Y-74751723D01*
X153863095Y-74751723D02*
X153739286Y-74751723D01*
X152748810Y-74751723D02*
X152748810Y-74070771D01*
X152748810Y-74070771D02*
X152810715Y-73946961D01*
X152810715Y-73946961D02*
X152934524Y-73885057D01*
X152934524Y-73885057D02*
X153182143Y-73885057D01*
X153182143Y-73885057D02*
X153305953Y-73946961D01*
X152748810Y-74689819D02*
X152872619Y-74751723D01*
X152872619Y-74751723D02*
X153182143Y-74751723D01*
X153182143Y-74751723D02*
X153305953Y-74689819D01*
X153305953Y-74689819D02*
X153367857Y-74566009D01*
X153367857Y-74566009D02*
X153367857Y-74442199D01*
X153367857Y-74442199D02*
X153305953Y-74318390D01*
X153305953Y-74318390D02*
X153182143Y-74256485D01*
X153182143Y-74256485D02*
X152872619Y-74256485D01*
X152872619Y-74256485D02*
X152748810Y-74194580D01*
X151944048Y-74751723D02*
X152067858Y-74689819D01*
X152067858Y-74689819D02*
X152129763Y-74566009D01*
X152129763Y-74566009D02*
X152129763Y-73451723D01*
X151448811Y-74751723D02*
X151448811Y-73885057D01*
X151448811Y-73451723D02*
X151510715Y-73513628D01*
X151510715Y-73513628D02*
X151448811Y-73575533D01*
X151448811Y-73575533D02*
X151386906Y-73513628D01*
X151386906Y-73513628D02*
X151448811Y-73451723D01*
X151448811Y-73451723D02*
X151448811Y-73575533D01*
X150829763Y-73885057D02*
X150829763Y-74751723D01*
X150829763Y-74008866D02*
X150767858Y-73946961D01*
X150767858Y-73946961D02*
X150644048Y-73885057D01*
X150644048Y-73885057D02*
X150458334Y-73885057D01*
X150458334Y-73885057D02*
X150334525Y-73946961D01*
X150334525Y-73946961D02*
X150272620Y-74070771D01*
X150272620Y-74070771D02*
X150272620Y-74751723D01*
X148725001Y-74380295D02*
X148105954Y-74380295D01*
X148848811Y-74751723D02*
X148415478Y-73451723D01*
X148415478Y-73451723D02*
X147982144Y-74751723D01*
X147548811Y-73885057D02*
X147548811Y-74751723D01*
X147548811Y-74008866D02*
X147486906Y-73946961D01*
X147486906Y-73946961D02*
X147363096Y-73885057D01*
X147363096Y-73885057D02*
X147177382Y-73885057D01*
X147177382Y-73885057D02*
X147053573Y-73946961D01*
X147053573Y-73946961D02*
X146991668Y-74070771D01*
X146991668Y-74070771D02*
X146991668Y-74751723D01*
X146558335Y-73885057D02*
X146063097Y-73885057D01*
X146372621Y-73451723D02*
X146372621Y-74566009D01*
X146372621Y-74566009D02*
X146310716Y-74689819D01*
X146310716Y-74689819D02*
X146186906Y-74751723D01*
X146186906Y-74751723D02*
X146063097Y-74751723D01*
X145444049Y-74751723D02*
X145567859Y-74689819D01*
X145567859Y-74689819D02*
X145629764Y-74627914D01*
X145629764Y-74627914D02*
X145691668Y-74504104D01*
X145691668Y-74504104D02*
X145691668Y-74132676D01*
X145691668Y-74132676D02*
X145629764Y-74008866D01*
X145629764Y-74008866D02*
X145567859Y-73946961D01*
X145567859Y-73946961D02*
X145444049Y-73885057D01*
X145444049Y-73885057D02*
X145258335Y-73885057D01*
X145258335Y-73885057D02*
X145134526Y-73946961D01*
X145134526Y-73946961D02*
X145072621Y-74008866D01*
X145072621Y-74008866D02*
X145010716Y-74132676D01*
X145010716Y-74132676D02*
X145010716Y-74504104D01*
X145010716Y-74504104D02*
X145072621Y-74627914D01*
X145072621Y-74627914D02*
X145134526Y-74689819D01*
X145134526Y-74689819D02*
X145258335Y-74751723D01*
X145258335Y-74751723D02*
X145444049Y-74751723D01*
X144453574Y-73885057D02*
X144453574Y-74751723D01*
X144453574Y-74008866D02*
X144391669Y-73946961D01*
X144391669Y-73946961D02*
X144267859Y-73885057D01*
X144267859Y-73885057D02*
X144082145Y-73885057D01*
X144082145Y-73885057D02*
X143958336Y-73946961D01*
X143958336Y-73946961D02*
X143896431Y-74070771D01*
X143896431Y-74070771D02*
X143896431Y-74751723D01*
X143277384Y-74751723D02*
X143277384Y-73885057D01*
X143277384Y-73451723D02*
X143339288Y-73513628D01*
X143339288Y-73513628D02*
X143277384Y-73575533D01*
X143277384Y-73575533D02*
X143215479Y-73513628D01*
X143215479Y-73513628D02*
X143277384Y-73451723D01*
X143277384Y-73451723D02*
X143277384Y-73575533D01*
X142472621Y-74751723D02*
X142596431Y-74689819D01*
X142596431Y-74689819D02*
X142658336Y-74627914D01*
X142658336Y-74627914D02*
X142720240Y-74504104D01*
X142720240Y-74504104D02*
X142720240Y-74132676D01*
X142720240Y-74132676D02*
X142658336Y-74008866D01*
X142658336Y-74008866D02*
X142596431Y-73946961D01*
X142596431Y-73946961D02*
X142472621Y-73885057D01*
X142472621Y-73885057D02*
X142286907Y-73885057D01*
X142286907Y-73885057D02*
X142163098Y-73946961D01*
X142163098Y-73946961D02*
X142101193Y-74008866D01*
X142101193Y-74008866D02*
X142039288Y-74132676D01*
X142039288Y-74132676D02*
X142039288Y-74504104D01*
X142039288Y-74504104D02*
X142101193Y-74627914D01*
X142101193Y-74627914D02*
X142163098Y-74689819D01*
X142163098Y-74689819D02*
X142286907Y-74751723D01*
X142286907Y-74751723D02*
X142472621Y-74751723D01*
X176551188Y-75544650D02*
X175808331Y-75544650D01*
X176179759Y-76844650D02*
X176179759Y-75544650D01*
X175374998Y-76844650D02*
X175374998Y-75544650D01*
X174817855Y-76844650D02*
X174817855Y-76163698D01*
X174817855Y-76163698D02*
X174879760Y-76039888D01*
X174879760Y-76039888D02*
X175003569Y-75977984D01*
X175003569Y-75977984D02*
X175189283Y-75977984D01*
X175189283Y-75977984D02*
X175313093Y-76039888D01*
X175313093Y-76039888D02*
X175374998Y-76101793D01*
X174198808Y-76844650D02*
X174198808Y-75977984D01*
X174198808Y-75544650D02*
X174260712Y-75606555D01*
X174260712Y-75606555D02*
X174198808Y-75668460D01*
X174198808Y-75668460D02*
X174136903Y-75606555D01*
X174136903Y-75606555D02*
X174198808Y-75544650D01*
X174198808Y-75544650D02*
X174198808Y-75668460D01*
X173641664Y-76782746D02*
X173517855Y-76844650D01*
X173517855Y-76844650D02*
X173270236Y-76844650D01*
X173270236Y-76844650D02*
X173146426Y-76782746D01*
X173146426Y-76782746D02*
X173084522Y-76658936D01*
X173084522Y-76658936D02*
X173084522Y-76597031D01*
X173084522Y-76597031D02*
X173146426Y-76473222D01*
X173146426Y-76473222D02*
X173270236Y-76411317D01*
X173270236Y-76411317D02*
X173455950Y-76411317D01*
X173455950Y-76411317D02*
X173579760Y-76349412D01*
X173579760Y-76349412D02*
X173641664Y-76225603D01*
X173641664Y-76225603D02*
X173641664Y-76163698D01*
X173641664Y-76163698D02*
X173579760Y-76039888D01*
X173579760Y-76039888D02*
X173455950Y-75977984D01*
X173455950Y-75977984D02*
X173270236Y-75977984D01*
X173270236Y-75977984D02*
X173146426Y-76039888D01*
X171536903Y-76844650D02*
X171536903Y-75977984D01*
X171536903Y-75544650D02*
X171598807Y-75606555D01*
X171598807Y-75606555D02*
X171536903Y-75668460D01*
X171536903Y-75668460D02*
X171474998Y-75606555D01*
X171474998Y-75606555D02*
X171536903Y-75544650D01*
X171536903Y-75544650D02*
X171536903Y-75668460D01*
X170979759Y-76782746D02*
X170855950Y-76844650D01*
X170855950Y-76844650D02*
X170608331Y-76844650D01*
X170608331Y-76844650D02*
X170484521Y-76782746D01*
X170484521Y-76782746D02*
X170422617Y-76658936D01*
X170422617Y-76658936D02*
X170422617Y-76597031D01*
X170422617Y-76597031D02*
X170484521Y-76473222D01*
X170484521Y-76473222D02*
X170608331Y-76411317D01*
X170608331Y-76411317D02*
X170794045Y-76411317D01*
X170794045Y-76411317D02*
X170917855Y-76349412D01*
X170917855Y-76349412D02*
X170979759Y-76225603D01*
X170979759Y-76225603D02*
X170979759Y-76163698D01*
X170979759Y-76163698D02*
X170917855Y-76039888D01*
X170917855Y-76039888D02*
X170794045Y-75977984D01*
X170794045Y-75977984D02*
X170608331Y-75977984D01*
X170608331Y-75977984D02*
X170484521Y-76039888D01*
X169060712Y-75977984D02*
X168565474Y-75977984D01*
X168874998Y-75544650D02*
X168874998Y-76658936D01*
X168874998Y-76658936D02*
X168813093Y-76782746D01*
X168813093Y-76782746D02*
X168689283Y-76844650D01*
X168689283Y-76844650D02*
X168565474Y-76844650D01*
X168132141Y-76844650D02*
X168132141Y-75544650D01*
X167574998Y-76844650D02*
X167574998Y-76163698D01*
X167574998Y-76163698D02*
X167636903Y-76039888D01*
X167636903Y-76039888D02*
X167760712Y-75977984D01*
X167760712Y-75977984D02*
X167946426Y-75977984D01*
X167946426Y-75977984D02*
X168070236Y-76039888D01*
X168070236Y-76039888D02*
X168132141Y-76101793D01*
X166460713Y-76782746D02*
X166584522Y-76844650D01*
X166584522Y-76844650D02*
X166832141Y-76844650D01*
X166832141Y-76844650D02*
X166955951Y-76782746D01*
X166955951Y-76782746D02*
X167017855Y-76658936D01*
X167017855Y-76658936D02*
X167017855Y-76163698D01*
X167017855Y-76163698D02*
X166955951Y-76039888D01*
X166955951Y-76039888D02*
X166832141Y-75977984D01*
X166832141Y-75977984D02*
X166584522Y-75977984D01*
X166584522Y-75977984D02*
X166460713Y-76039888D01*
X166460713Y-76039888D02*
X166398808Y-76163698D01*
X166398808Y-76163698D02*
X166398808Y-76287507D01*
X166398808Y-76287507D02*
X167017855Y-76411317D01*
X164913093Y-76782746D02*
X164789284Y-76844650D01*
X164789284Y-76844650D02*
X164541665Y-76844650D01*
X164541665Y-76844650D02*
X164417855Y-76782746D01*
X164417855Y-76782746D02*
X164355951Y-76658936D01*
X164355951Y-76658936D02*
X164355951Y-76597031D01*
X164355951Y-76597031D02*
X164417855Y-76473222D01*
X164417855Y-76473222D02*
X164541665Y-76411317D01*
X164541665Y-76411317D02*
X164727379Y-76411317D01*
X164727379Y-76411317D02*
X164851189Y-76349412D01*
X164851189Y-76349412D02*
X164913093Y-76225603D01*
X164913093Y-76225603D02*
X164913093Y-76163698D01*
X164913093Y-76163698D02*
X164851189Y-76039888D01*
X164851189Y-76039888D02*
X164727379Y-75977984D01*
X164727379Y-75977984D02*
X164541665Y-75977984D01*
X164541665Y-75977984D02*
X164417855Y-76039888D01*
X163984522Y-75977984D02*
X163489284Y-75977984D01*
X163798808Y-75544650D02*
X163798808Y-76658936D01*
X163798808Y-76658936D02*
X163736903Y-76782746D01*
X163736903Y-76782746D02*
X163613093Y-76844650D01*
X163613093Y-76844650D02*
X163489284Y-76844650D01*
X162498808Y-76844650D02*
X162498808Y-76163698D01*
X162498808Y-76163698D02*
X162560713Y-76039888D01*
X162560713Y-76039888D02*
X162684522Y-75977984D01*
X162684522Y-75977984D02*
X162932141Y-75977984D01*
X162932141Y-75977984D02*
X163055951Y-76039888D01*
X162498808Y-76782746D02*
X162622617Y-76844650D01*
X162622617Y-76844650D02*
X162932141Y-76844650D01*
X162932141Y-76844650D02*
X163055951Y-76782746D01*
X163055951Y-76782746D02*
X163117855Y-76658936D01*
X163117855Y-76658936D02*
X163117855Y-76535126D01*
X163117855Y-76535126D02*
X163055951Y-76411317D01*
X163055951Y-76411317D02*
X162932141Y-76349412D01*
X162932141Y-76349412D02*
X162622617Y-76349412D01*
X162622617Y-76349412D02*
X162498808Y-76287507D01*
X161879761Y-76844650D02*
X161879761Y-75977984D01*
X161879761Y-76225603D02*
X161817856Y-76101793D01*
X161817856Y-76101793D02*
X161755951Y-76039888D01*
X161755951Y-76039888D02*
X161632142Y-75977984D01*
X161632142Y-75977984D02*
X161508332Y-75977984D01*
X161260713Y-75977984D02*
X160765475Y-75977984D01*
X161074999Y-75544650D02*
X161074999Y-76658936D01*
X161074999Y-76658936D02*
X161013094Y-76782746D01*
X161013094Y-76782746D02*
X160889284Y-76844650D01*
X160889284Y-76844650D02*
X160765475Y-76844650D01*
X160332142Y-76844650D02*
X160332142Y-75977984D01*
X160332142Y-75544650D02*
X160394046Y-75606555D01*
X160394046Y-75606555D02*
X160332142Y-75668460D01*
X160332142Y-75668460D02*
X160270237Y-75606555D01*
X160270237Y-75606555D02*
X160332142Y-75544650D01*
X160332142Y-75544650D02*
X160332142Y-75668460D01*
X159713094Y-75977984D02*
X159713094Y-76844650D01*
X159713094Y-76101793D02*
X159651189Y-76039888D01*
X159651189Y-76039888D02*
X159527379Y-75977984D01*
X159527379Y-75977984D02*
X159341665Y-75977984D01*
X159341665Y-75977984D02*
X159217856Y-76039888D01*
X159217856Y-76039888D02*
X159155951Y-76163698D01*
X159155951Y-76163698D02*
X159155951Y-76844650D01*
X157979761Y-75977984D02*
X157979761Y-77030365D01*
X157979761Y-77030365D02*
X158041666Y-77154174D01*
X158041666Y-77154174D02*
X158103570Y-77216079D01*
X158103570Y-77216079D02*
X158227380Y-77277984D01*
X158227380Y-77277984D02*
X158413094Y-77277984D01*
X158413094Y-77277984D02*
X158536904Y-77216079D01*
X157979761Y-76782746D02*
X158103570Y-76844650D01*
X158103570Y-76844650D02*
X158351189Y-76844650D01*
X158351189Y-76844650D02*
X158474999Y-76782746D01*
X158474999Y-76782746D02*
X158536904Y-76720841D01*
X158536904Y-76720841D02*
X158598808Y-76597031D01*
X158598808Y-76597031D02*
X158598808Y-76225603D01*
X158598808Y-76225603D02*
X158536904Y-76101793D01*
X158536904Y-76101793D02*
X158474999Y-76039888D01*
X158474999Y-76039888D02*
X158351189Y-75977984D01*
X158351189Y-75977984D02*
X158103570Y-75977984D01*
X158103570Y-75977984D02*
X157979761Y-76039888D01*
X155813095Y-75977984D02*
X155813095Y-76844650D01*
X156370238Y-75977984D02*
X156370238Y-76658936D01*
X156370238Y-76658936D02*
X156308333Y-76782746D01*
X156308333Y-76782746D02*
X156184523Y-76844650D01*
X156184523Y-76844650D02*
X155998809Y-76844650D01*
X155998809Y-76844650D02*
X155875000Y-76782746D01*
X155875000Y-76782746D02*
X155813095Y-76720841D01*
X155194048Y-75977984D02*
X155194048Y-76844650D01*
X155194048Y-76101793D02*
X155132143Y-76039888D01*
X155132143Y-76039888D02*
X155008333Y-75977984D01*
X155008333Y-75977984D02*
X154822619Y-75977984D01*
X154822619Y-75977984D02*
X154698810Y-76039888D01*
X154698810Y-76039888D02*
X154636905Y-76163698D01*
X154636905Y-76163698D02*
X154636905Y-76844650D01*
X154017858Y-76844650D02*
X154017858Y-75977984D01*
X154017858Y-75544650D02*
X154079762Y-75606555D01*
X154079762Y-75606555D02*
X154017858Y-75668460D01*
X154017858Y-75668460D02*
X153955953Y-75606555D01*
X153955953Y-75606555D02*
X154017858Y-75544650D01*
X154017858Y-75544650D02*
X154017858Y-75668460D01*
X153584524Y-75977984D02*
X153089286Y-75977984D01*
X153398810Y-75544650D02*
X153398810Y-76658936D01*
X153398810Y-76658936D02*
X153336905Y-76782746D01*
X153336905Y-76782746D02*
X153213095Y-76844650D01*
X153213095Y-76844650D02*
X153089286Y-76844650D01*
X151665477Y-76844650D02*
X151665477Y-75544650D01*
X151665477Y-75544650D02*
X151170239Y-75544650D01*
X151170239Y-75544650D02*
X151046429Y-75606555D01*
X151046429Y-75606555D02*
X150984524Y-75668460D01*
X150984524Y-75668460D02*
X150922620Y-75792269D01*
X150922620Y-75792269D02*
X150922620Y-75977984D01*
X150922620Y-75977984D02*
X150984524Y-76101793D01*
X150984524Y-76101793D02*
X151046429Y-76163698D01*
X151046429Y-76163698D02*
X151170239Y-76225603D01*
X151170239Y-76225603D02*
X151665477Y-76225603D01*
X149622620Y-76720841D02*
X149684524Y-76782746D01*
X149684524Y-76782746D02*
X149870239Y-76844650D01*
X149870239Y-76844650D02*
X149994048Y-76844650D01*
X149994048Y-76844650D02*
X150179762Y-76782746D01*
X150179762Y-76782746D02*
X150303572Y-76658936D01*
X150303572Y-76658936D02*
X150365477Y-76535126D01*
X150365477Y-76535126D02*
X150427381Y-76287507D01*
X150427381Y-76287507D02*
X150427381Y-76101793D01*
X150427381Y-76101793D02*
X150365477Y-75854174D01*
X150365477Y-75854174D02*
X150303572Y-75730365D01*
X150303572Y-75730365D02*
X150179762Y-75606555D01*
X150179762Y-75606555D02*
X149994048Y-75544650D01*
X149994048Y-75544650D02*
X149870239Y-75544650D01*
X149870239Y-75544650D02*
X149684524Y-75606555D01*
X149684524Y-75606555D02*
X149622620Y-75668460D01*
X148632143Y-76163698D02*
X148446429Y-76225603D01*
X148446429Y-76225603D02*
X148384524Y-76287507D01*
X148384524Y-76287507D02*
X148322620Y-76411317D01*
X148322620Y-76411317D02*
X148322620Y-76597031D01*
X148322620Y-76597031D02*
X148384524Y-76720841D01*
X148384524Y-76720841D02*
X148446429Y-76782746D01*
X148446429Y-76782746D02*
X148570239Y-76844650D01*
X148570239Y-76844650D02*
X149065477Y-76844650D01*
X149065477Y-76844650D02*
X149065477Y-75544650D01*
X149065477Y-75544650D02*
X148632143Y-75544650D01*
X148632143Y-75544650D02*
X148508334Y-75606555D01*
X148508334Y-75606555D02*
X148446429Y-75668460D01*
X148446429Y-75668460D02*
X148384524Y-75792269D01*
X148384524Y-75792269D02*
X148384524Y-75916079D01*
X148384524Y-75916079D02*
X148446429Y-76039888D01*
X148446429Y-76039888D02*
X148508334Y-76101793D01*
X148508334Y-76101793D02*
X148632143Y-76163698D01*
X148632143Y-76163698D02*
X149065477Y-76163698D01*
X185248805Y-78256625D02*
X185682139Y-78256625D01*
X185682139Y-78937577D02*
X185682139Y-77637577D01*
X185682139Y-77637577D02*
X185063091Y-77637577D01*
X184382138Y-78937577D02*
X184505948Y-78875673D01*
X184505948Y-78875673D02*
X184567853Y-78813768D01*
X184567853Y-78813768D02*
X184629757Y-78689958D01*
X184629757Y-78689958D02*
X184629757Y-78318530D01*
X184629757Y-78318530D02*
X184567853Y-78194720D01*
X184567853Y-78194720D02*
X184505948Y-78132815D01*
X184505948Y-78132815D02*
X184382138Y-78070911D01*
X184382138Y-78070911D02*
X184196424Y-78070911D01*
X184196424Y-78070911D02*
X184072615Y-78132815D01*
X184072615Y-78132815D02*
X184010710Y-78194720D01*
X184010710Y-78194720D02*
X183948805Y-78318530D01*
X183948805Y-78318530D02*
X183948805Y-78689958D01*
X183948805Y-78689958D02*
X184010710Y-78813768D01*
X184010710Y-78813768D02*
X184072615Y-78875673D01*
X184072615Y-78875673D02*
X184196424Y-78937577D01*
X184196424Y-78937577D02*
X184382138Y-78937577D01*
X183391663Y-78937577D02*
X183391663Y-78070911D01*
X183391663Y-78318530D02*
X183329758Y-78194720D01*
X183329758Y-78194720D02*
X183267853Y-78132815D01*
X183267853Y-78132815D02*
X183144044Y-78070911D01*
X183144044Y-78070911D02*
X183020234Y-78070911D01*
X181596425Y-78937577D02*
X181596425Y-77637577D01*
X181039282Y-78937577D02*
X181039282Y-78256625D01*
X181039282Y-78256625D02*
X181101187Y-78132815D01*
X181101187Y-78132815D02*
X181224996Y-78070911D01*
X181224996Y-78070911D02*
X181410710Y-78070911D01*
X181410710Y-78070911D02*
X181534520Y-78132815D01*
X181534520Y-78132815D02*
X181596425Y-78194720D01*
X179924997Y-78875673D02*
X180048806Y-78937577D01*
X180048806Y-78937577D02*
X180296425Y-78937577D01*
X180296425Y-78937577D02*
X180420235Y-78875673D01*
X180420235Y-78875673D02*
X180482139Y-78751863D01*
X180482139Y-78751863D02*
X180482139Y-78256625D01*
X180482139Y-78256625D02*
X180420235Y-78132815D01*
X180420235Y-78132815D02*
X180296425Y-78070911D01*
X180296425Y-78070911D02*
X180048806Y-78070911D01*
X180048806Y-78070911D02*
X179924997Y-78132815D01*
X179924997Y-78132815D02*
X179863092Y-78256625D01*
X179863092Y-78256625D02*
X179863092Y-78380434D01*
X179863092Y-78380434D02*
X180482139Y-78504244D01*
X179120234Y-78937577D02*
X179244044Y-78875673D01*
X179244044Y-78875673D02*
X179305949Y-78751863D01*
X179305949Y-78751863D02*
X179305949Y-77637577D01*
X178624997Y-78070911D02*
X178624997Y-79370911D01*
X178624997Y-78132815D02*
X178501187Y-78070911D01*
X178501187Y-78070911D02*
X178253568Y-78070911D01*
X178253568Y-78070911D02*
X178129759Y-78132815D01*
X178129759Y-78132815D02*
X178067854Y-78194720D01*
X178067854Y-78194720D02*
X178005949Y-78318530D01*
X178005949Y-78318530D02*
X178005949Y-78689958D01*
X178005949Y-78689958D02*
X178067854Y-78813768D01*
X178067854Y-78813768D02*
X178129759Y-78875673D01*
X178129759Y-78875673D02*
X178253568Y-78937577D01*
X178253568Y-78937577D02*
X178501187Y-78937577D01*
X178501187Y-78937577D02*
X178624997Y-78875673D01*
X175901188Y-78937577D02*
X175901188Y-78256625D01*
X175901188Y-78256625D02*
X175963093Y-78132815D01*
X175963093Y-78132815D02*
X176086902Y-78070911D01*
X176086902Y-78070911D02*
X176334521Y-78070911D01*
X176334521Y-78070911D02*
X176458331Y-78132815D01*
X175901188Y-78875673D02*
X176024997Y-78937577D01*
X176024997Y-78937577D02*
X176334521Y-78937577D01*
X176334521Y-78937577D02*
X176458331Y-78875673D01*
X176458331Y-78875673D02*
X176520235Y-78751863D01*
X176520235Y-78751863D02*
X176520235Y-78628053D01*
X176520235Y-78628053D02*
X176458331Y-78504244D01*
X176458331Y-78504244D02*
X176334521Y-78442339D01*
X176334521Y-78442339D02*
X176024997Y-78442339D01*
X176024997Y-78442339D02*
X175901188Y-78380434D01*
X175282141Y-78070911D02*
X175282141Y-78937577D01*
X175282141Y-78194720D02*
X175220236Y-78132815D01*
X175220236Y-78132815D02*
X175096426Y-78070911D01*
X175096426Y-78070911D02*
X174910712Y-78070911D01*
X174910712Y-78070911D02*
X174786903Y-78132815D01*
X174786903Y-78132815D02*
X174724998Y-78256625D01*
X174724998Y-78256625D02*
X174724998Y-78937577D01*
X173548808Y-78937577D02*
X173548808Y-77637577D01*
X173548808Y-78875673D02*
X173672617Y-78937577D01*
X173672617Y-78937577D02*
X173920236Y-78937577D01*
X173920236Y-78937577D02*
X174044046Y-78875673D01*
X174044046Y-78875673D02*
X174105951Y-78813768D01*
X174105951Y-78813768D02*
X174167855Y-78689958D01*
X174167855Y-78689958D02*
X174167855Y-78318530D01*
X174167855Y-78318530D02*
X174105951Y-78194720D01*
X174105951Y-78194720D02*
X174044046Y-78132815D01*
X174044046Y-78132815D02*
X173920236Y-78070911D01*
X173920236Y-78070911D02*
X173672617Y-78070911D01*
X173672617Y-78070911D02*
X173548808Y-78132815D01*
X171939285Y-78937577D02*
X171939285Y-78070911D01*
X171939285Y-77637577D02*
X172001189Y-77699482D01*
X172001189Y-77699482D02*
X171939285Y-77761387D01*
X171939285Y-77761387D02*
X171877380Y-77699482D01*
X171877380Y-77699482D02*
X171939285Y-77637577D01*
X171939285Y-77637577D02*
X171939285Y-77761387D01*
X171320237Y-78070911D02*
X171320237Y-78937577D01*
X171320237Y-78194720D02*
X171258332Y-78132815D01*
X171258332Y-78132815D02*
X171134522Y-78070911D01*
X171134522Y-78070911D02*
X170948808Y-78070911D01*
X170948808Y-78070911D02*
X170824999Y-78132815D01*
X170824999Y-78132815D02*
X170763094Y-78256625D01*
X170763094Y-78256625D02*
X170763094Y-78937577D01*
X170205951Y-78875673D02*
X170082142Y-78937577D01*
X170082142Y-78937577D02*
X169834523Y-78937577D01*
X169834523Y-78937577D02*
X169710713Y-78875673D01*
X169710713Y-78875673D02*
X169648809Y-78751863D01*
X169648809Y-78751863D02*
X169648809Y-78689958D01*
X169648809Y-78689958D02*
X169710713Y-78566149D01*
X169710713Y-78566149D02*
X169834523Y-78504244D01*
X169834523Y-78504244D02*
X170020237Y-78504244D01*
X170020237Y-78504244D02*
X170144047Y-78442339D01*
X170144047Y-78442339D02*
X170205951Y-78318530D01*
X170205951Y-78318530D02*
X170205951Y-78256625D01*
X170205951Y-78256625D02*
X170144047Y-78132815D01*
X170144047Y-78132815D02*
X170020237Y-78070911D01*
X170020237Y-78070911D02*
X169834523Y-78070911D01*
X169834523Y-78070911D02*
X169710713Y-78132815D01*
X169277380Y-78070911D02*
X168782142Y-78070911D01*
X169091666Y-77637577D02*
X169091666Y-78751863D01*
X169091666Y-78751863D02*
X169029761Y-78875673D01*
X169029761Y-78875673D02*
X168905951Y-78937577D01*
X168905951Y-78937577D02*
X168782142Y-78937577D01*
X168348809Y-78937577D02*
X168348809Y-78070911D01*
X168348809Y-78318530D02*
X168286904Y-78194720D01*
X168286904Y-78194720D02*
X168224999Y-78132815D01*
X168224999Y-78132815D02*
X168101190Y-78070911D01*
X168101190Y-78070911D02*
X167977380Y-78070911D01*
X166986904Y-78070911D02*
X166986904Y-78937577D01*
X167544047Y-78070911D02*
X167544047Y-78751863D01*
X167544047Y-78751863D02*
X167482142Y-78875673D01*
X167482142Y-78875673D02*
X167358332Y-78937577D01*
X167358332Y-78937577D02*
X167172618Y-78937577D01*
X167172618Y-78937577D02*
X167048809Y-78875673D01*
X167048809Y-78875673D02*
X166986904Y-78813768D01*
X165810714Y-78875673D02*
X165934523Y-78937577D01*
X165934523Y-78937577D02*
X166182142Y-78937577D01*
X166182142Y-78937577D02*
X166305952Y-78875673D01*
X166305952Y-78875673D02*
X166367857Y-78813768D01*
X166367857Y-78813768D02*
X166429761Y-78689958D01*
X166429761Y-78689958D02*
X166429761Y-78318530D01*
X166429761Y-78318530D02*
X166367857Y-78194720D01*
X166367857Y-78194720D02*
X166305952Y-78132815D01*
X166305952Y-78132815D02*
X166182142Y-78070911D01*
X166182142Y-78070911D02*
X165934523Y-78070911D01*
X165934523Y-78070911D02*
X165810714Y-78132815D01*
X165439285Y-78070911D02*
X164944047Y-78070911D01*
X165253571Y-77637577D02*
X165253571Y-78751863D01*
X165253571Y-78751863D02*
X165191666Y-78875673D01*
X165191666Y-78875673D02*
X165067856Y-78937577D01*
X165067856Y-78937577D02*
X164944047Y-78937577D01*
X164510714Y-78937577D02*
X164510714Y-78070911D01*
X164510714Y-77637577D02*
X164572618Y-77699482D01*
X164572618Y-77699482D02*
X164510714Y-77761387D01*
X164510714Y-77761387D02*
X164448809Y-77699482D01*
X164448809Y-77699482D02*
X164510714Y-77637577D01*
X164510714Y-77637577D02*
X164510714Y-77761387D01*
X163705951Y-78937577D02*
X163829761Y-78875673D01*
X163829761Y-78875673D02*
X163891666Y-78813768D01*
X163891666Y-78813768D02*
X163953570Y-78689958D01*
X163953570Y-78689958D02*
X163953570Y-78318530D01*
X163953570Y-78318530D02*
X163891666Y-78194720D01*
X163891666Y-78194720D02*
X163829761Y-78132815D01*
X163829761Y-78132815D02*
X163705951Y-78070911D01*
X163705951Y-78070911D02*
X163520237Y-78070911D01*
X163520237Y-78070911D02*
X163396428Y-78132815D01*
X163396428Y-78132815D02*
X163334523Y-78194720D01*
X163334523Y-78194720D02*
X163272618Y-78318530D01*
X163272618Y-78318530D02*
X163272618Y-78689958D01*
X163272618Y-78689958D02*
X163334523Y-78813768D01*
X163334523Y-78813768D02*
X163396428Y-78875673D01*
X163396428Y-78875673D02*
X163520237Y-78937577D01*
X163520237Y-78937577D02*
X163705951Y-78937577D01*
X162715476Y-78070911D02*
X162715476Y-78937577D01*
X162715476Y-78194720D02*
X162653571Y-78132815D01*
X162653571Y-78132815D02*
X162529761Y-78070911D01*
X162529761Y-78070911D02*
X162344047Y-78070911D01*
X162344047Y-78070911D02*
X162220238Y-78132815D01*
X162220238Y-78132815D02*
X162158333Y-78256625D01*
X162158333Y-78256625D02*
X162158333Y-78937577D01*
X161601190Y-78875673D02*
X161477381Y-78937577D01*
X161477381Y-78937577D02*
X161229762Y-78937577D01*
X161229762Y-78937577D02*
X161105952Y-78875673D01*
X161105952Y-78875673D02*
X161044048Y-78751863D01*
X161044048Y-78751863D02*
X161044048Y-78689958D01*
X161044048Y-78689958D02*
X161105952Y-78566149D01*
X161105952Y-78566149D02*
X161229762Y-78504244D01*
X161229762Y-78504244D02*
X161415476Y-78504244D01*
X161415476Y-78504244D02*
X161539286Y-78442339D01*
X161539286Y-78442339D02*
X161601190Y-78318530D01*
X161601190Y-78318530D02*
X161601190Y-78256625D01*
X161601190Y-78256625D02*
X161539286Y-78132815D01*
X161539286Y-78132815D02*
X161415476Y-78070911D01*
X161415476Y-78070911D02*
X161229762Y-78070911D01*
X161229762Y-78070911D02*
X161105952Y-78132815D01*
X159620238Y-78070911D02*
X159310714Y-78937577D01*
X159310714Y-78937577D02*
X159001191Y-78070911D01*
X158505953Y-78937577D02*
X158505953Y-78070911D01*
X158505953Y-77637577D02*
X158567857Y-77699482D01*
X158567857Y-77699482D02*
X158505953Y-77761387D01*
X158505953Y-77761387D02*
X158444048Y-77699482D01*
X158444048Y-77699482D02*
X158505953Y-77637577D01*
X158505953Y-77637577D02*
X158505953Y-77761387D01*
X157948809Y-78875673D02*
X157825000Y-78937577D01*
X157825000Y-78937577D02*
X157577381Y-78937577D01*
X157577381Y-78937577D02*
X157453571Y-78875673D01*
X157453571Y-78875673D02*
X157391667Y-78751863D01*
X157391667Y-78751863D02*
X157391667Y-78689958D01*
X157391667Y-78689958D02*
X157453571Y-78566149D01*
X157453571Y-78566149D02*
X157577381Y-78504244D01*
X157577381Y-78504244D02*
X157763095Y-78504244D01*
X157763095Y-78504244D02*
X157886905Y-78442339D01*
X157886905Y-78442339D02*
X157948809Y-78318530D01*
X157948809Y-78318530D02*
X157948809Y-78256625D01*
X157948809Y-78256625D02*
X157886905Y-78132815D01*
X157886905Y-78132815D02*
X157763095Y-78070911D01*
X157763095Y-78070911D02*
X157577381Y-78070911D01*
X157577381Y-78070911D02*
X157453571Y-78132815D01*
X156834524Y-78937577D02*
X156834524Y-78070911D01*
X156834524Y-77637577D02*
X156896428Y-77699482D01*
X156896428Y-77699482D02*
X156834524Y-77761387D01*
X156834524Y-77761387D02*
X156772619Y-77699482D01*
X156772619Y-77699482D02*
X156834524Y-77637577D01*
X156834524Y-77637577D02*
X156834524Y-77761387D01*
X156401190Y-78070911D02*
X155905952Y-78070911D01*
X156215476Y-77637577D02*
X156215476Y-78751863D01*
X156215476Y-78751863D02*
X156153571Y-78875673D01*
X156153571Y-78875673D02*
X156029761Y-78937577D01*
X156029761Y-78937577D02*
X155905952Y-78937577D01*
X154482143Y-78937577D02*
X154482143Y-78070911D01*
X154482143Y-78194720D02*
X154420238Y-78132815D01*
X154420238Y-78132815D02*
X154296428Y-78070911D01*
X154296428Y-78070911D02*
X154110714Y-78070911D01*
X154110714Y-78070911D02*
X153986905Y-78132815D01*
X153986905Y-78132815D02*
X153925000Y-78256625D01*
X153925000Y-78256625D02*
X153925000Y-78937577D01*
X153925000Y-78256625D02*
X153863095Y-78132815D01*
X153863095Y-78132815D02*
X153739286Y-78070911D01*
X153739286Y-78070911D02*
X153553571Y-78070911D01*
X153553571Y-78070911D02*
X153429762Y-78132815D01*
X153429762Y-78132815D02*
X153367857Y-78256625D01*
X153367857Y-78256625D02*
X153367857Y-78937577D01*
X152872619Y-78070911D02*
X152563095Y-78937577D01*
X152253572Y-78070911D02*
X152563095Y-78937577D01*
X152563095Y-78937577D02*
X152686905Y-79247101D01*
X152686905Y-79247101D02*
X152748810Y-79309006D01*
X152748810Y-79309006D02*
X152872619Y-79370911D01*
X150210715Y-78070911D02*
X150210715Y-79123292D01*
X150210715Y-79123292D02*
X150272620Y-79247101D01*
X150272620Y-79247101D02*
X150334524Y-79309006D01*
X150334524Y-79309006D02*
X150458334Y-79370911D01*
X150458334Y-79370911D02*
X150644048Y-79370911D01*
X150644048Y-79370911D02*
X150767858Y-79309006D01*
X150210715Y-78875673D02*
X150334524Y-78937577D01*
X150334524Y-78937577D02*
X150582143Y-78937577D01*
X150582143Y-78937577D02*
X150705953Y-78875673D01*
X150705953Y-78875673D02*
X150767858Y-78813768D01*
X150767858Y-78813768D02*
X150829762Y-78689958D01*
X150829762Y-78689958D02*
X150829762Y-78318530D01*
X150829762Y-78318530D02*
X150767858Y-78194720D01*
X150767858Y-78194720D02*
X150705953Y-78132815D01*
X150705953Y-78132815D02*
X150582143Y-78070911D01*
X150582143Y-78070911D02*
X150334524Y-78070911D01*
X150334524Y-78070911D02*
X150210715Y-78132815D01*
X149591668Y-78937577D02*
X149591668Y-78070911D01*
X149591668Y-77637577D02*
X149653572Y-77699482D01*
X149653572Y-77699482D02*
X149591668Y-77761387D01*
X149591668Y-77761387D02*
X149529763Y-77699482D01*
X149529763Y-77699482D02*
X149591668Y-77637577D01*
X149591668Y-77637577D02*
X149591668Y-77761387D01*
X149158334Y-78070911D02*
X148663096Y-78070911D01*
X148972620Y-77637577D02*
X148972620Y-78751863D01*
X148972620Y-78751863D02*
X148910715Y-78875673D01*
X148910715Y-78875673D02*
X148786905Y-78937577D01*
X148786905Y-78937577D02*
X148663096Y-78937577D01*
X148229763Y-78937577D02*
X148229763Y-77637577D01*
X147672620Y-78937577D02*
X147672620Y-78256625D01*
X147672620Y-78256625D02*
X147734525Y-78132815D01*
X147734525Y-78132815D02*
X147858334Y-78070911D01*
X147858334Y-78070911D02*
X148044048Y-78070911D01*
X148044048Y-78070911D02*
X148167858Y-78132815D01*
X148167858Y-78132815D02*
X148229763Y-78194720D01*
X146496430Y-78070911D02*
X146496430Y-78937577D01*
X147053573Y-78070911D02*
X147053573Y-78751863D01*
X147053573Y-78751863D02*
X146991668Y-78875673D01*
X146991668Y-78875673D02*
X146867858Y-78937577D01*
X146867858Y-78937577D02*
X146682144Y-78937577D01*
X146682144Y-78937577D02*
X146558335Y-78875673D01*
X146558335Y-78875673D02*
X146496430Y-78813768D01*
X145877383Y-78937577D02*
X145877383Y-77637577D01*
X145877383Y-78132815D02*
X145753573Y-78070911D01*
X145753573Y-78070911D02*
X145505954Y-78070911D01*
X145505954Y-78070911D02*
X145382145Y-78132815D01*
X145382145Y-78132815D02*
X145320240Y-78194720D01*
X145320240Y-78194720D02*
X145258335Y-78318530D01*
X145258335Y-78318530D02*
X145258335Y-78689958D01*
X145258335Y-78689958D02*
X145320240Y-78813768D01*
X145320240Y-78813768D02*
X145382145Y-78875673D01*
X145382145Y-78875673D02*
X145505954Y-78937577D01*
X145505954Y-78937577D02*
X145753573Y-78937577D01*
X145753573Y-78937577D02*
X145877383Y-78875673D01*
X143710717Y-78070911D02*
X143710717Y-79370911D01*
X143710717Y-78132815D02*
X143586907Y-78070911D01*
X143586907Y-78070911D02*
X143339288Y-78070911D01*
X143339288Y-78070911D02*
X143215479Y-78132815D01*
X143215479Y-78132815D02*
X143153574Y-78194720D01*
X143153574Y-78194720D02*
X143091669Y-78318530D01*
X143091669Y-78318530D02*
X143091669Y-78689958D01*
X143091669Y-78689958D02*
X143153574Y-78813768D01*
X143153574Y-78813768D02*
X143215479Y-78875673D01*
X143215479Y-78875673D02*
X143339288Y-78937577D01*
X143339288Y-78937577D02*
X143586907Y-78937577D01*
X143586907Y-78937577D02*
X143710717Y-78875673D01*
X141977384Y-78937577D02*
X141977384Y-78256625D01*
X141977384Y-78256625D02*
X142039289Y-78132815D01*
X142039289Y-78132815D02*
X142163098Y-78070911D01*
X142163098Y-78070911D02*
X142410717Y-78070911D01*
X142410717Y-78070911D02*
X142534527Y-78132815D01*
X141977384Y-78875673D02*
X142101193Y-78937577D01*
X142101193Y-78937577D02*
X142410717Y-78937577D01*
X142410717Y-78937577D02*
X142534527Y-78875673D01*
X142534527Y-78875673D02*
X142596431Y-78751863D01*
X142596431Y-78751863D02*
X142596431Y-78628053D01*
X142596431Y-78628053D02*
X142534527Y-78504244D01*
X142534527Y-78504244D02*
X142410717Y-78442339D01*
X142410717Y-78442339D02*
X142101193Y-78442339D01*
X142101193Y-78442339D02*
X141977384Y-78380434D01*
X140801194Y-78070911D02*
X140801194Y-79123292D01*
X140801194Y-79123292D02*
X140863099Y-79247101D01*
X140863099Y-79247101D02*
X140925003Y-79309006D01*
X140925003Y-79309006D02*
X141048813Y-79370911D01*
X141048813Y-79370911D02*
X141234527Y-79370911D01*
X141234527Y-79370911D02*
X141358337Y-79309006D01*
X140801194Y-78875673D02*
X140925003Y-78937577D01*
X140925003Y-78937577D02*
X141172622Y-78937577D01*
X141172622Y-78937577D02*
X141296432Y-78875673D01*
X141296432Y-78875673D02*
X141358337Y-78813768D01*
X141358337Y-78813768D02*
X141420241Y-78689958D01*
X141420241Y-78689958D02*
X141420241Y-78318530D01*
X141420241Y-78318530D02*
X141358337Y-78194720D01*
X141358337Y-78194720D02*
X141296432Y-78132815D01*
X141296432Y-78132815D02*
X141172622Y-78070911D01*
X141172622Y-78070911D02*
X140925003Y-78070911D01*
X140925003Y-78070911D02*
X140801194Y-78132815D01*
X139686909Y-78875673D02*
X139810718Y-78937577D01*
X139810718Y-78937577D02*
X140058337Y-78937577D01*
X140058337Y-78937577D02*
X140182147Y-78875673D01*
X140182147Y-78875673D02*
X140244051Y-78751863D01*
X140244051Y-78751863D02*
X140244051Y-78256625D01*
X140244051Y-78256625D02*
X140182147Y-78132815D01*
X140182147Y-78132815D02*
X140058337Y-78070911D01*
X140058337Y-78070911D02*
X139810718Y-78070911D01*
X139810718Y-78070911D02*
X139686909Y-78132815D01*
X139686909Y-78132815D02*
X139625004Y-78256625D01*
X139625004Y-78256625D02*
X139625004Y-78380434D01*
X139625004Y-78380434D02*
X140244051Y-78504244D01*
X139067861Y-78813768D02*
X139005956Y-78875673D01*
X139005956Y-78875673D02*
X139067861Y-78937577D01*
X139067861Y-78937577D02*
X139129765Y-78875673D01*
X139129765Y-78875673D02*
X139067861Y-78813768D01*
X139067861Y-78813768D02*
X139067861Y-78937577D01*
X139067861Y-78132815D02*
X139005956Y-78194720D01*
X139005956Y-78194720D02*
X139067861Y-78256625D01*
X139067861Y-78256625D02*
X139129765Y-78194720D01*
X139129765Y-78194720D02*
X139067861Y-78132815D01*
X139067861Y-78132815D02*
X139067861Y-78256625D01*
X186982141Y-81030504D02*
X186982141Y-79730504D01*
X186424998Y-81030504D02*
X186424998Y-80349552D01*
X186424998Y-80349552D02*
X186486903Y-80225742D01*
X186486903Y-80225742D02*
X186610712Y-80163838D01*
X186610712Y-80163838D02*
X186796426Y-80163838D01*
X186796426Y-80163838D02*
X186920236Y-80225742D01*
X186920236Y-80225742D02*
X186982141Y-80287647D01*
X185991665Y-80163838D02*
X185496427Y-80163838D01*
X185805951Y-79730504D02*
X185805951Y-80844790D01*
X185805951Y-80844790D02*
X185744046Y-80968600D01*
X185744046Y-80968600D02*
X185620236Y-81030504D01*
X185620236Y-81030504D02*
X185496427Y-81030504D01*
X185248808Y-80163838D02*
X184753570Y-80163838D01*
X185063094Y-79730504D02*
X185063094Y-80844790D01*
X185063094Y-80844790D02*
X185001189Y-80968600D01*
X185001189Y-80968600D02*
X184877379Y-81030504D01*
X184877379Y-81030504D02*
X184753570Y-81030504D01*
X184320237Y-80163838D02*
X184320237Y-81463838D01*
X184320237Y-80225742D02*
X184196427Y-80163838D01*
X184196427Y-80163838D02*
X183948808Y-80163838D01*
X183948808Y-80163838D02*
X183824999Y-80225742D01*
X183824999Y-80225742D02*
X183763094Y-80287647D01*
X183763094Y-80287647D02*
X183701189Y-80411457D01*
X183701189Y-80411457D02*
X183701189Y-80782885D01*
X183701189Y-80782885D02*
X183763094Y-80906695D01*
X183763094Y-80906695D02*
X183824999Y-80968600D01*
X183824999Y-80968600D02*
X183948808Y-81030504D01*
X183948808Y-81030504D02*
X184196427Y-81030504D01*
X184196427Y-81030504D02*
X184320237Y-80968600D01*
X183205951Y-80968600D02*
X183082142Y-81030504D01*
X183082142Y-81030504D02*
X182834523Y-81030504D01*
X182834523Y-81030504D02*
X182710713Y-80968600D01*
X182710713Y-80968600D02*
X182648809Y-80844790D01*
X182648809Y-80844790D02*
X182648809Y-80782885D01*
X182648809Y-80782885D02*
X182710713Y-80659076D01*
X182710713Y-80659076D02*
X182834523Y-80597171D01*
X182834523Y-80597171D02*
X183020237Y-80597171D01*
X183020237Y-80597171D02*
X183144047Y-80535266D01*
X183144047Y-80535266D02*
X183205951Y-80411457D01*
X183205951Y-80411457D02*
X183205951Y-80349552D01*
X183205951Y-80349552D02*
X183144047Y-80225742D01*
X183144047Y-80225742D02*
X183020237Y-80163838D01*
X183020237Y-80163838D02*
X182834523Y-80163838D01*
X182834523Y-80163838D02*
X182710713Y-80225742D01*
X182091666Y-80906695D02*
X182029761Y-80968600D01*
X182029761Y-80968600D02*
X182091666Y-81030504D01*
X182091666Y-81030504D02*
X182153570Y-80968600D01*
X182153570Y-80968600D02*
X182091666Y-80906695D01*
X182091666Y-80906695D02*
X182091666Y-81030504D01*
X182091666Y-80225742D02*
X182029761Y-80287647D01*
X182029761Y-80287647D02*
X182091666Y-80349552D01*
X182091666Y-80349552D02*
X182153570Y-80287647D01*
X182153570Y-80287647D02*
X182091666Y-80225742D01*
X182091666Y-80225742D02*
X182091666Y-80349552D01*
X180544046Y-79668600D02*
X181658332Y-81340028D01*
X179182141Y-79668600D02*
X180296427Y-81340028D01*
X178191665Y-80163838D02*
X178191665Y-81216219D01*
X178191665Y-81216219D02*
X178253570Y-81340028D01*
X178253570Y-81340028D02*
X178315474Y-81401933D01*
X178315474Y-81401933D02*
X178439284Y-81463838D01*
X178439284Y-81463838D02*
X178624998Y-81463838D01*
X178624998Y-81463838D02*
X178748808Y-81401933D01*
X178191665Y-80968600D02*
X178315474Y-81030504D01*
X178315474Y-81030504D02*
X178563093Y-81030504D01*
X178563093Y-81030504D02*
X178686903Y-80968600D01*
X178686903Y-80968600D02*
X178748808Y-80906695D01*
X178748808Y-80906695D02*
X178810712Y-80782885D01*
X178810712Y-80782885D02*
X178810712Y-80411457D01*
X178810712Y-80411457D02*
X178748808Y-80287647D01*
X178748808Y-80287647D02*
X178686903Y-80225742D01*
X178686903Y-80225742D02*
X178563093Y-80163838D01*
X178563093Y-80163838D02*
X178315474Y-80163838D01*
X178315474Y-80163838D02*
X178191665Y-80225742D01*
X177572618Y-81030504D02*
X177572618Y-80163838D01*
X177572618Y-79730504D02*
X177634522Y-79792409D01*
X177634522Y-79792409D02*
X177572618Y-79854314D01*
X177572618Y-79854314D02*
X177510713Y-79792409D01*
X177510713Y-79792409D02*
X177572618Y-79730504D01*
X177572618Y-79730504D02*
X177572618Y-79854314D01*
X177139284Y-80163838D02*
X176644046Y-80163838D01*
X176953570Y-79730504D02*
X176953570Y-80844790D01*
X176953570Y-80844790D02*
X176891665Y-80968600D01*
X176891665Y-80968600D02*
X176767855Y-81030504D01*
X176767855Y-81030504D02*
X176644046Y-81030504D01*
X176210713Y-81030504D02*
X176210713Y-79730504D01*
X175653570Y-81030504D02*
X175653570Y-80349552D01*
X175653570Y-80349552D02*
X175715475Y-80225742D01*
X175715475Y-80225742D02*
X175839284Y-80163838D01*
X175839284Y-80163838D02*
X176024998Y-80163838D01*
X176024998Y-80163838D02*
X176148808Y-80225742D01*
X176148808Y-80225742D02*
X176210713Y-80287647D01*
X174477380Y-80163838D02*
X174477380Y-81030504D01*
X175034523Y-80163838D02*
X175034523Y-80844790D01*
X175034523Y-80844790D02*
X174972618Y-80968600D01*
X174972618Y-80968600D02*
X174848808Y-81030504D01*
X174848808Y-81030504D02*
X174663094Y-81030504D01*
X174663094Y-81030504D02*
X174539285Y-80968600D01*
X174539285Y-80968600D02*
X174477380Y-80906695D01*
X173858333Y-81030504D02*
X173858333Y-79730504D01*
X173858333Y-80225742D02*
X173734523Y-80163838D01*
X173734523Y-80163838D02*
X173486904Y-80163838D01*
X173486904Y-80163838D02*
X173363095Y-80225742D01*
X173363095Y-80225742D02*
X173301190Y-80287647D01*
X173301190Y-80287647D02*
X173239285Y-80411457D01*
X173239285Y-80411457D02*
X173239285Y-80782885D01*
X173239285Y-80782885D02*
X173301190Y-80906695D01*
X173301190Y-80906695D02*
X173363095Y-80968600D01*
X173363095Y-80968600D02*
X173486904Y-81030504D01*
X173486904Y-81030504D02*
X173734523Y-81030504D01*
X173734523Y-81030504D02*
X173858333Y-80968600D01*
X172682143Y-80906695D02*
X172620238Y-80968600D01*
X172620238Y-80968600D02*
X172682143Y-81030504D01*
X172682143Y-81030504D02*
X172744047Y-80968600D01*
X172744047Y-80968600D02*
X172682143Y-80906695D01*
X172682143Y-80906695D02*
X172682143Y-81030504D01*
X171505952Y-80968600D02*
X171629761Y-81030504D01*
X171629761Y-81030504D02*
X171877380Y-81030504D01*
X171877380Y-81030504D02*
X172001190Y-80968600D01*
X172001190Y-80968600D02*
X172063095Y-80906695D01*
X172063095Y-80906695D02*
X172124999Y-80782885D01*
X172124999Y-80782885D02*
X172124999Y-80411457D01*
X172124999Y-80411457D02*
X172063095Y-80287647D01*
X172063095Y-80287647D02*
X172001190Y-80225742D01*
X172001190Y-80225742D02*
X171877380Y-80163838D01*
X171877380Y-80163838D02*
X171629761Y-80163838D01*
X171629761Y-80163838D02*
X171505952Y-80225742D01*
X170763094Y-81030504D02*
X170886904Y-80968600D01*
X170886904Y-80968600D02*
X170948809Y-80906695D01*
X170948809Y-80906695D02*
X171010713Y-80782885D01*
X171010713Y-80782885D02*
X171010713Y-80411457D01*
X171010713Y-80411457D02*
X170948809Y-80287647D01*
X170948809Y-80287647D02*
X170886904Y-80225742D01*
X170886904Y-80225742D02*
X170763094Y-80163838D01*
X170763094Y-80163838D02*
X170577380Y-80163838D01*
X170577380Y-80163838D02*
X170453571Y-80225742D01*
X170453571Y-80225742D02*
X170391666Y-80287647D01*
X170391666Y-80287647D02*
X170329761Y-80411457D01*
X170329761Y-80411457D02*
X170329761Y-80782885D01*
X170329761Y-80782885D02*
X170391666Y-80906695D01*
X170391666Y-80906695D02*
X170453571Y-80968600D01*
X170453571Y-80968600D02*
X170577380Y-81030504D01*
X170577380Y-81030504D02*
X170763094Y-81030504D01*
X169772619Y-81030504D02*
X169772619Y-80163838D01*
X169772619Y-80287647D02*
X169710714Y-80225742D01*
X169710714Y-80225742D02*
X169586904Y-80163838D01*
X169586904Y-80163838D02*
X169401190Y-80163838D01*
X169401190Y-80163838D02*
X169277381Y-80225742D01*
X169277381Y-80225742D02*
X169215476Y-80349552D01*
X169215476Y-80349552D02*
X169215476Y-81030504D01*
X169215476Y-80349552D02*
X169153571Y-80225742D01*
X169153571Y-80225742D02*
X169029762Y-80163838D01*
X169029762Y-80163838D02*
X168844047Y-80163838D01*
X168844047Y-80163838D02*
X168720238Y-80225742D01*
X168720238Y-80225742D02*
X168658333Y-80349552D01*
X168658333Y-80349552D02*
X168658333Y-81030504D01*
X167110714Y-79668600D02*
X168225000Y-81340028D01*
X166739285Y-80659076D02*
X166120238Y-80659076D01*
X166863095Y-81030504D02*
X166429762Y-79730504D01*
X166429762Y-79730504D02*
X165996428Y-81030504D01*
X165563095Y-81030504D02*
X165563095Y-79730504D01*
X165563095Y-79730504D02*
X164820238Y-81030504D01*
X164820238Y-81030504D02*
X164820238Y-79730504D01*
X164386904Y-79730504D02*
X163644047Y-79730504D01*
X164015475Y-81030504D02*
X164015475Y-79730504D01*
X163334523Y-80163838D02*
X162653571Y-80163838D01*
X162653571Y-80163838D02*
X163334523Y-81030504D01*
X163334523Y-81030504D02*
X162653571Y-81030504D01*
X161601190Y-81030504D02*
X161601190Y-80349552D01*
X161601190Y-80349552D02*
X161663095Y-80225742D01*
X161663095Y-80225742D02*
X161786904Y-80163838D01*
X161786904Y-80163838D02*
X162034523Y-80163838D01*
X162034523Y-80163838D02*
X162158333Y-80225742D01*
X161601190Y-80968600D02*
X161724999Y-81030504D01*
X161724999Y-81030504D02*
X162034523Y-81030504D01*
X162034523Y-81030504D02*
X162158333Y-80968600D01*
X162158333Y-80968600D02*
X162220237Y-80844790D01*
X162220237Y-80844790D02*
X162220237Y-80720980D01*
X162220237Y-80720980D02*
X162158333Y-80597171D01*
X162158333Y-80597171D02*
X162034523Y-80535266D01*
X162034523Y-80535266D02*
X161724999Y-80535266D01*
X161724999Y-80535266D02*
X161601190Y-80473361D01*
X160425000Y-80968600D02*
X160548809Y-81030504D01*
X160548809Y-81030504D02*
X160796428Y-81030504D01*
X160796428Y-81030504D02*
X160920238Y-80968600D01*
X160920238Y-80968600D02*
X160982143Y-80906695D01*
X160982143Y-80906695D02*
X161044047Y-80782885D01*
X161044047Y-80782885D02*
X161044047Y-80411457D01*
X161044047Y-80411457D02*
X160982143Y-80287647D01*
X160982143Y-80287647D02*
X160920238Y-80225742D01*
X160920238Y-80225742D02*
X160796428Y-80163838D01*
X160796428Y-80163838D02*
X160548809Y-80163838D01*
X160548809Y-80163838D02*
X160425000Y-80225742D01*
X159310714Y-81030504D02*
X159310714Y-80349552D01*
X159310714Y-80349552D02*
X159372619Y-80225742D01*
X159372619Y-80225742D02*
X159496428Y-80163838D01*
X159496428Y-80163838D02*
X159744047Y-80163838D01*
X159744047Y-80163838D02*
X159867857Y-80225742D01*
X159310714Y-80968600D02*
X159434523Y-81030504D01*
X159434523Y-81030504D02*
X159744047Y-81030504D01*
X159744047Y-81030504D02*
X159867857Y-80968600D01*
X159867857Y-80968600D02*
X159929761Y-80844790D01*
X159929761Y-80844790D02*
X159929761Y-80720980D01*
X159929761Y-80720980D02*
X159867857Y-80597171D01*
X159867857Y-80597171D02*
X159744047Y-80535266D01*
X159744047Y-80535266D02*
X159434523Y-80535266D01*
X159434523Y-80535266D02*
X159310714Y-80473361D01*
X158505952Y-81030504D02*
X158629762Y-80968600D01*
X158629762Y-80968600D02*
X158691667Y-80844790D01*
X158691667Y-80844790D02*
X158691667Y-79730504D01*
X158010715Y-81030504D02*
X158010715Y-80163838D01*
X158010715Y-79730504D02*
X158072619Y-79792409D01*
X158072619Y-79792409D02*
X158010715Y-79854314D01*
X158010715Y-79854314D02*
X157948810Y-79792409D01*
X157948810Y-79792409D02*
X158010715Y-79730504D01*
X158010715Y-79730504D02*
X158010715Y-79854314D01*
X156896429Y-80968600D02*
X157020238Y-81030504D01*
X157020238Y-81030504D02*
X157267857Y-81030504D01*
X157267857Y-81030504D02*
X157391667Y-80968600D01*
X157391667Y-80968600D02*
X157453571Y-80844790D01*
X157453571Y-80844790D02*
X157453571Y-80349552D01*
X157453571Y-80349552D02*
X157391667Y-80225742D01*
X157391667Y-80225742D02*
X157267857Y-80163838D01*
X157267857Y-80163838D02*
X157020238Y-80163838D01*
X157020238Y-80163838D02*
X156896429Y-80225742D01*
X156896429Y-80225742D02*
X156834524Y-80349552D01*
X156834524Y-80349552D02*
X156834524Y-80473361D01*
X156834524Y-80473361D02*
X157453571Y-80597171D01*
X155348809Y-79668600D02*
X156463095Y-81340028D01*
X155101190Y-80163838D02*
X154605952Y-80163838D01*
X154915476Y-79730504D02*
X154915476Y-80844790D01*
X154915476Y-80844790D02*
X154853571Y-80968600D01*
X154853571Y-80968600D02*
X154729761Y-81030504D01*
X154729761Y-81030504D02*
X154605952Y-81030504D01*
X153677381Y-80968600D02*
X153801190Y-81030504D01*
X153801190Y-81030504D02*
X154048809Y-81030504D01*
X154048809Y-81030504D02*
X154172619Y-80968600D01*
X154172619Y-80968600D02*
X154234523Y-80844790D01*
X154234523Y-80844790D02*
X154234523Y-80349552D01*
X154234523Y-80349552D02*
X154172619Y-80225742D01*
X154172619Y-80225742D02*
X154048809Y-80163838D01*
X154048809Y-80163838D02*
X153801190Y-80163838D01*
X153801190Y-80163838D02*
X153677381Y-80225742D01*
X153677381Y-80225742D02*
X153615476Y-80349552D01*
X153615476Y-80349552D02*
X153615476Y-80473361D01*
X153615476Y-80473361D02*
X154234523Y-80597171D01*
X153058333Y-81030504D02*
X153058333Y-80163838D01*
X153058333Y-80411457D02*
X152996428Y-80287647D01*
X152996428Y-80287647D02*
X152934523Y-80225742D01*
X152934523Y-80225742D02*
X152810714Y-80163838D01*
X152810714Y-80163838D02*
X152686904Y-80163838D01*
X152253571Y-81030504D02*
X152253571Y-80163838D01*
X152253571Y-80287647D02*
X152191666Y-80225742D01*
X152191666Y-80225742D02*
X152067856Y-80163838D01*
X152067856Y-80163838D02*
X151882142Y-80163838D01*
X151882142Y-80163838D02*
X151758333Y-80225742D01*
X151758333Y-80225742D02*
X151696428Y-80349552D01*
X151696428Y-80349552D02*
X151696428Y-81030504D01*
X151696428Y-80349552D02*
X151634523Y-80225742D01*
X151634523Y-80225742D02*
X151510714Y-80163838D01*
X151510714Y-80163838D02*
X151324999Y-80163838D01*
X151324999Y-80163838D02*
X151201190Y-80225742D01*
X151201190Y-80225742D02*
X151139285Y-80349552D01*
X151139285Y-80349552D02*
X151139285Y-81030504D01*
X150334523Y-81030504D02*
X150458333Y-80968600D01*
X150458333Y-80968600D02*
X150520238Y-80906695D01*
X150520238Y-80906695D02*
X150582142Y-80782885D01*
X150582142Y-80782885D02*
X150582142Y-80411457D01*
X150582142Y-80411457D02*
X150520238Y-80287647D01*
X150520238Y-80287647D02*
X150458333Y-80225742D01*
X150458333Y-80225742D02*
X150334523Y-80163838D01*
X150334523Y-80163838D02*
X150148809Y-80163838D01*
X150148809Y-80163838D02*
X150025000Y-80225742D01*
X150025000Y-80225742D02*
X149963095Y-80287647D01*
X149963095Y-80287647D02*
X149901190Y-80411457D01*
X149901190Y-80411457D02*
X149901190Y-80782885D01*
X149901190Y-80782885D02*
X149963095Y-80906695D01*
X149963095Y-80906695D02*
X150025000Y-80968600D01*
X150025000Y-80968600D02*
X150148809Y-81030504D01*
X150148809Y-81030504D02*
X150334523Y-81030504D01*
X149344048Y-80535266D02*
X148353572Y-80535266D01*
X147734524Y-80163838D02*
X147734524Y-81463838D01*
X147734524Y-80225742D02*
X147610714Y-80163838D01*
X147610714Y-80163838D02*
X147363095Y-80163838D01*
X147363095Y-80163838D02*
X147239286Y-80225742D01*
X147239286Y-80225742D02*
X147177381Y-80287647D01*
X147177381Y-80287647D02*
X147115476Y-80411457D01*
X147115476Y-80411457D02*
X147115476Y-80782885D01*
X147115476Y-80782885D02*
X147177381Y-80906695D01*
X147177381Y-80906695D02*
X147239286Y-80968600D01*
X147239286Y-80968600D02*
X147363095Y-81030504D01*
X147363095Y-81030504D02*
X147610714Y-81030504D01*
X147610714Y-81030504D02*
X147734524Y-80968600D01*
X146558334Y-81030504D02*
X146558334Y-80163838D01*
X146558334Y-80411457D02*
X146496429Y-80287647D01*
X146496429Y-80287647D02*
X146434524Y-80225742D01*
X146434524Y-80225742D02*
X146310715Y-80163838D01*
X146310715Y-80163838D02*
X146186905Y-80163838D01*
X145567857Y-81030504D02*
X145691667Y-80968600D01*
X145691667Y-80968600D02*
X145753572Y-80906695D01*
X145753572Y-80906695D02*
X145815476Y-80782885D01*
X145815476Y-80782885D02*
X145815476Y-80411457D01*
X145815476Y-80411457D02*
X145753572Y-80287647D01*
X145753572Y-80287647D02*
X145691667Y-80225742D01*
X145691667Y-80225742D02*
X145567857Y-80163838D01*
X145567857Y-80163838D02*
X145382143Y-80163838D01*
X145382143Y-80163838D02*
X145258334Y-80225742D01*
X145258334Y-80225742D02*
X145196429Y-80287647D01*
X145196429Y-80287647D02*
X145134524Y-80411457D01*
X145134524Y-80411457D02*
X145134524Y-80782885D01*
X145134524Y-80782885D02*
X145196429Y-80906695D01*
X145196429Y-80906695D02*
X145258334Y-80968600D01*
X145258334Y-80968600D02*
X145382143Y-81030504D01*
X145382143Y-81030504D02*
X145567857Y-81030504D01*
X144577382Y-80535266D02*
X143586906Y-80535266D01*
X142472620Y-80968600D02*
X142596429Y-81030504D01*
X142596429Y-81030504D02*
X142844048Y-81030504D01*
X142844048Y-81030504D02*
X142967858Y-80968600D01*
X142967858Y-80968600D02*
X143029762Y-80844790D01*
X143029762Y-80844790D02*
X143029762Y-80349552D01*
X143029762Y-80349552D02*
X142967858Y-80225742D01*
X142967858Y-80225742D02*
X142844048Y-80163838D01*
X142844048Y-80163838D02*
X142596429Y-80163838D01*
X142596429Y-80163838D02*
X142472620Y-80225742D01*
X142472620Y-80225742D02*
X142410715Y-80349552D01*
X142410715Y-80349552D02*
X142410715Y-80473361D01*
X142410715Y-80473361D02*
X143029762Y-80597171D01*
X141915476Y-80968600D02*
X141791667Y-81030504D01*
X141791667Y-81030504D02*
X141544048Y-81030504D01*
X141544048Y-81030504D02*
X141420238Y-80968600D01*
X141420238Y-80968600D02*
X141358334Y-80844790D01*
X141358334Y-80844790D02*
X141358334Y-80782885D01*
X141358334Y-80782885D02*
X141420238Y-80659076D01*
X141420238Y-80659076D02*
X141544048Y-80597171D01*
X141544048Y-80597171D02*
X141729762Y-80597171D01*
X141729762Y-80597171D02*
X141853572Y-80535266D01*
X141853572Y-80535266D02*
X141915476Y-80411457D01*
X141915476Y-80411457D02*
X141915476Y-80349552D01*
X141915476Y-80349552D02*
X141853572Y-80225742D01*
X141853572Y-80225742D02*
X141729762Y-80163838D01*
X141729762Y-80163838D02*
X141544048Y-80163838D01*
X141544048Y-80163838D02*
X141420238Y-80225742D01*
X140801191Y-80163838D02*
X140801191Y-81463838D01*
X140801191Y-80225742D02*
X140677381Y-80163838D01*
X140677381Y-80163838D02*
X140429762Y-80163838D01*
X140429762Y-80163838D02*
X140305953Y-80225742D01*
X140305953Y-80225742D02*
X140244048Y-80287647D01*
X140244048Y-80287647D02*
X140182143Y-80411457D01*
X140182143Y-80411457D02*
X140182143Y-80782885D01*
X140182143Y-80782885D02*
X140244048Y-80906695D01*
X140244048Y-80906695D02*
X140305953Y-80968600D01*
X140305953Y-80968600D02*
X140429762Y-81030504D01*
X140429762Y-81030504D02*
X140677381Y-81030504D01*
X140677381Y-81030504D02*
X140801191Y-80968600D01*
X139748810Y-79730504D02*
X138944048Y-79730504D01*
X138944048Y-79730504D02*
X139377382Y-80225742D01*
X139377382Y-80225742D02*
X139191667Y-80225742D01*
X139191667Y-80225742D02*
X139067858Y-80287647D01*
X139067858Y-80287647D02*
X139005953Y-80349552D01*
X139005953Y-80349552D02*
X138944048Y-80473361D01*
X138944048Y-80473361D02*
X138944048Y-80782885D01*
X138944048Y-80782885D02*
X139005953Y-80906695D01*
X139005953Y-80906695D02*
X139067858Y-80968600D01*
X139067858Y-80968600D02*
X139191667Y-81030504D01*
X139191667Y-81030504D02*
X139563096Y-81030504D01*
X139563096Y-81030504D02*
X139686905Y-80968600D01*
X139686905Y-80968600D02*
X139748810Y-80906695D01*
X138448810Y-79854314D02*
X138386906Y-79792409D01*
X138386906Y-79792409D02*
X138263096Y-79730504D01*
X138263096Y-79730504D02*
X137953572Y-79730504D01*
X137953572Y-79730504D02*
X137829763Y-79792409D01*
X137829763Y-79792409D02*
X137767858Y-79854314D01*
X137767858Y-79854314D02*
X137705953Y-79978123D01*
X137705953Y-79978123D02*
X137705953Y-80101933D01*
X137705953Y-80101933D02*
X137767858Y-80287647D01*
X137767858Y-80287647D02*
X138510715Y-81030504D01*
X138510715Y-81030504D02*
X137705953Y-81030504D01*
D10*
G36*
X113346127Y-103082449D02*
G01*
X113892620Y-103082449D01*
X114360980Y-103057153D01*
X114763681Y-102986536D01*
X115035325Y-102896234D01*
X115275560Y-102771310D01*
X115470347Y-102624347D01*
X115644545Y-102443393D01*
X115948956Y-101954822D01*
X116230138Y-101193332D01*
X116300244Y-100940439D01*
X116902302Y-100940439D01*
X116552424Y-104300000D01*
X112296493Y-104300000D01*
X112296493Y-102830268D01*
X112660285Y-102622716D01*
X112986518Y-102388739D01*
X113256875Y-102145677D01*
X113496393Y-101876140D01*
X113877701Y-101267665D01*
X114154566Y-100523562D01*
X114331347Y-99585014D01*
X114396371Y-98350854D01*
X114376154Y-97698150D01*
X114312798Y-97136994D01*
X114226318Y-96734922D01*
X114106205Y-96372900D01*
X113783470Y-95770530D01*
X113696615Y-95649528D01*
X113494474Y-95412538D01*
X113267775Y-95207270D01*
X112747895Y-94894184D01*
X112124921Y-94703222D01*
X111428210Y-94641416D01*
X111026053Y-94660957D01*
X110650656Y-94719587D01*
X110322024Y-94810612D01*
X110018329Y-94936361D01*
X109750835Y-95089714D01*
X109507343Y-95275069D01*
X109160415Y-95649528D01*
X108953753Y-95958799D01*
X108786526Y-96287563D01*
X108573655Y-96979721D01*
X108471017Y-97880663D01*
X108460659Y-98364898D01*
X108480474Y-99073412D01*
X108541023Y-99715372D01*
X108629442Y-100228732D01*
X108751896Y-100695771D01*
X108894695Y-101084587D01*
X109067794Y-101438644D01*
X109261263Y-101744788D01*
X109483651Y-102022887D01*
X110013419Y-102498104D01*
X110560537Y-102830268D01*
X110560537Y-104300000D01*
X106304605Y-104300000D01*
X105954727Y-100940439D01*
X106556175Y-100940439D01*
X106727887Y-101512360D01*
X106919695Y-101980054D01*
X107083601Y-102269503D01*
X107268351Y-102508166D01*
X107452023Y-102679654D01*
X107657867Y-102817033D01*
X108142963Y-102998765D01*
X108817536Y-103079241D01*
X108964410Y-103082449D01*
X109510293Y-103082449D01*
X109510293Y-102844312D01*
X108762210Y-102456690D01*
X108096188Y-101939413D01*
X107531727Y-101306053D01*
X107293734Y-100951392D01*
X107088683Y-100575684D01*
X106918492Y-100182102D01*
X106784218Y-99772058D01*
X106688242Y-99352330D01*
X106630470Y-98920851D01*
X106612351Y-98504727D01*
X106631654Y-98070621D01*
X106688614Y-97650953D01*
X106912070Y-96854404D01*
X107275040Y-96126442D01*
X107769427Y-95480313D01*
X108385607Y-94930847D01*
X108736089Y-94697001D01*
X109111658Y-94493531D01*
X109511512Y-94321635D01*
X109933327Y-94183251D01*
X110374718Y-94080033D01*
X110834782Y-94013220D01*
X111428210Y-93983182D01*
X111905168Y-94002477D01*
X112365722Y-94059389D01*
X112810917Y-94153119D01*
X113236339Y-94281950D01*
X113641844Y-94445049D01*
X114024220Y-94640499D01*
X114381995Y-94866890D01*
X114713404Y-95122642D01*
X115015878Y-95405260D01*
X115288968Y-95714053D01*
X115529567Y-96045218D01*
X115738042Y-96399272D01*
X115911420Y-96771303D01*
X116050191Y-97162955D01*
X116152024Y-97568773D01*
X116216947Y-97991056D01*
X116244068Y-98504727D01*
X116167777Y-99354541D01*
X115941052Y-100173838D01*
X115569690Y-100939809D01*
X115332731Y-101295150D01*
X115064357Y-101627261D01*
X114766779Y-101933283D01*
X114441042Y-102211679D01*
X114092512Y-102457776D01*
X113719449Y-102672449D01*
X113346127Y-102844312D01*
X113346127Y-103082449D01*
G37*
D11*
X156166666Y-105609580D02*
X156214285Y-105657200D01*
X156214285Y-105657200D02*
X156357142Y-105704819D01*
X156357142Y-105704819D02*
X156452380Y-105704819D01*
X156452380Y-105704819D02*
X156595237Y-105657200D01*
X156595237Y-105657200D02*
X156690475Y-105561961D01*
X156690475Y-105561961D02*
X156738094Y-105466723D01*
X156738094Y-105466723D02*
X156785713Y-105276247D01*
X156785713Y-105276247D02*
X156785713Y-105133390D01*
X156785713Y-105133390D02*
X156738094Y-104942914D01*
X156738094Y-104942914D02*
X156690475Y-104847676D01*
X156690475Y-104847676D02*
X156595237Y-104752438D01*
X156595237Y-104752438D02*
X156452380Y-104704819D01*
X156452380Y-104704819D02*
X156357142Y-104704819D01*
X156357142Y-104704819D02*
X156214285Y-104752438D01*
X156214285Y-104752438D02*
X156166666Y-104800057D01*
X155785713Y-104800057D02*
X155738094Y-104752438D01*
X155738094Y-104752438D02*
X155642856Y-104704819D01*
X155642856Y-104704819D02*
X155404761Y-104704819D01*
X155404761Y-104704819D02*
X155309523Y-104752438D01*
X155309523Y-104752438D02*
X155261904Y-104800057D01*
X155261904Y-104800057D02*
X155214285Y-104895295D01*
X155214285Y-104895295D02*
X155214285Y-104990533D01*
X155214285Y-104990533D02*
X155261904Y-105133390D01*
X155261904Y-105133390D02*
X155833332Y-105704819D01*
X155833332Y-105704819D02*
X155214285Y-105704819D01*
X159357143Y-112204819D02*
X159833333Y-112204819D01*
X159833333Y-112204819D02*
X159880952Y-112681009D01*
X159880952Y-112681009D02*
X159833333Y-112633390D01*
X159833333Y-112633390D02*
X159738095Y-112585771D01*
X159738095Y-112585771D02*
X159500000Y-112585771D01*
X159500000Y-112585771D02*
X159404762Y-112633390D01*
X159404762Y-112633390D02*
X159357143Y-112681009D01*
X159357143Y-112681009D02*
X159309524Y-112776247D01*
X159309524Y-112776247D02*
X159309524Y-113014342D01*
X159309524Y-113014342D02*
X159357143Y-113109580D01*
X159357143Y-113109580D02*
X159404762Y-113157200D01*
X159404762Y-113157200D02*
X159500000Y-113204819D01*
X159500000Y-113204819D02*
X159738095Y-113204819D01*
X159738095Y-113204819D02*
X159833333Y-113157200D01*
X159833333Y-113157200D02*
X159880952Y-113109580D01*
X158690476Y-112204819D02*
X158595238Y-112204819D01*
X158595238Y-112204819D02*
X158500000Y-112252438D01*
X158500000Y-112252438D02*
X158452381Y-112300057D01*
X158452381Y-112300057D02*
X158404762Y-112395295D01*
X158404762Y-112395295D02*
X158357143Y-112585771D01*
X158357143Y-112585771D02*
X158357143Y-112823866D01*
X158357143Y-112823866D02*
X158404762Y-113014342D01*
X158404762Y-113014342D02*
X158452381Y-113109580D01*
X158452381Y-113109580D02*
X158500000Y-113157200D01*
X158500000Y-113157200D02*
X158595238Y-113204819D01*
X158595238Y-113204819D02*
X158690476Y-113204819D01*
X158690476Y-113204819D02*
X158785714Y-113157200D01*
X158785714Y-113157200D02*
X158833333Y-113109580D01*
X158833333Y-113109580D02*
X158880952Y-113014342D01*
X158880952Y-113014342D02*
X158928571Y-112823866D01*
X158928571Y-112823866D02*
X158928571Y-112585771D01*
X158928571Y-112585771D02*
X158880952Y-112395295D01*
X158880952Y-112395295D02*
X158833333Y-112300057D01*
X158833333Y-112300057D02*
X158785714Y-112252438D01*
X158785714Y-112252438D02*
X158690476Y-112204819D01*
X158071428Y-112204819D02*
X157738095Y-113204819D01*
X157738095Y-113204819D02*
X157404762Y-112204819D01*
X156357142Y-112300057D02*
X156309523Y-112252438D01*
X156309523Y-112252438D02*
X156214285Y-112204819D01*
X156214285Y-112204819D02*
X155976190Y-112204819D01*
X155976190Y-112204819D02*
X155880952Y-112252438D01*
X155880952Y-112252438D02*
X155833333Y-112300057D01*
X155833333Y-112300057D02*
X155785714Y-112395295D01*
X155785714Y-112395295D02*
X155785714Y-112490533D01*
X155785714Y-112490533D02*
X155833333Y-112633390D01*
X155833333Y-112633390D02*
X156404761Y-113204819D01*
X156404761Y-113204819D02*
X155785714Y-113204819D01*
X155404761Y-112300057D02*
X155357142Y-112252438D01*
X155357142Y-112252438D02*
X155261904Y-112204819D01*
X155261904Y-112204819D02*
X155023809Y-112204819D01*
X155023809Y-112204819D02*
X154928571Y-112252438D01*
X154928571Y-112252438D02*
X154880952Y-112300057D01*
X154880952Y-112300057D02*
X154833333Y-112395295D01*
X154833333Y-112395295D02*
X154833333Y-112490533D01*
X154833333Y-112490533D02*
X154880952Y-112633390D01*
X154880952Y-112633390D02*
X155452380Y-113204819D01*
X155452380Y-113204819D02*
X154833333Y-113204819D01*
X154214285Y-112204819D02*
X154119047Y-112204819D01*
X154119047Y-112204819D02*
X154023809Y-112252438D01*
X154023809Y-112252438D02*
X153976190Y-112300057D01*
X153976190Y-112300057D02*
X153928571Y-112395295D01*
X153928571Y-112395295D02*
X153880952Y-112585771D01*
X153880952Y-112585771D02*
X153880952Y-112823866D01*
X153880952Y-112823866D02*
X153928571Y-113014342D01*
X153928571Y-113014342D02*
X153976190Y-113109580D01*
X153976190Y-113109580D02*
X154023809Y-113157200D01*
X154023809Y-113157200D02*
X154119047Y-113204819D01*
X154119047Y-113204819D02*
X154214285Y-113204819D01*
X154214285Y-113204819D02*
X154309523Y-113157200D01*
X154309523Y-113157200D02*
X154357142Y-113109580D01*
X154357142Y-113109580D02*
X154404761Y-113014342D01*
X154404761Y-113014342D02*
X154452380Y-112823866D01*
X154452380Y-112823866D02*
X154452380Y-112585771D01*
X154452380Y-112585771D02*
X154404761Y-112395295D01*
X154404761Y-112395295D02*
X154357142Y-112300057D01*
X154357142Y-112300057D02*
X154309523Y-112252438D01*
X154309523Y-112252438D02*
X154214285Y-112204819D01*
X153452380Y-112538152D02*
X153452380Y-113204819D01*
X153452380Y-112633390D02*
X153404761Y-112585771D01*
X153404761Y-112585771D02*
X153309523Y-112538152D01*
X153309523Y-112538152D02*
X153166666Y-112538152D01*
X153166666Y-112538152D02*
X153071428Y-112585771D01*
X153071428Y-112585771D02*
X153023809Y-112681009D01*
X153023809Y-112681009D02*
X153023809Y-113204819D01*
X152214285Y-112681009D02*
X152547618Y-112681009D01*
X152547618Y-113204819D02*
X152547618Y-112204819D01*
X152547618Y-112204819D02*
X152071428Y-112204819D01*
X212504819Y-95211905D02*
X211504819Y-95211905D01*
X212504819Y-95783333D02*
X211933390Y-95354762D01*
X211504819Y-95783333D02*
X212076247Y-95211905D01*
X212504819Y-96735714D02*
X212504819Y-96164286D01*
X212504819Y-96450000D02*
X211504819Y-96450000D01*
X211504819Y-96450000D02*
X211647676Y-96354762D01*
X211647676Y-96354762D02*
X211742914Y-96259524D01*
X211742914Y-96259524D02*
X211790533Y-96164286D01*
X119191666Y-75009580D02*
X119239285Y-75057200D01*
X119239285Y-75057200D02*
X119382142Y-75104819D01*
X119382142Y-75104819D02*
X119477380Y-75104819D01*
X119477380Y-75104819D02*
X119620237Y-75057200D01*
X119620237Y-75057200D02*
X119715475Y-74961961D01*
X119715475Y-74961961D02*
X119763094Y-74866723D01*
X119763094Y-74866723D02*
X119810713Y-74676247D01*
X119810713Y-74676247D02*
X119810713Y-74533390D01*
X119810713Y-74533390D02*
X119763094Y-74342914D01*
X119763094Y-74342914D02*
X119715475Y-74247676D01*
X119715475Y-74247676D02*
X119620237Y-74152438D01*
X119620237Y-74152438D02*
X119477380Y-74104819D01*
X119477380Y-74104819D02*
X119382142Y-74104819D01*
X119382142Y-74104819D02*
X119239285Y-74152438D01*
X119239285Y-74152438D02*
X119191666Y-74200057D01*
X118239285Y-75104819D02*
X118810713Y-75104819D01*
X118524999Y-75104819D02*
X118524999Y-74104819D01*
X118524999Y-74104819D02*
X118620237Y-74247676D01*
X118620237Y-74247676D02*
X118715475Y-74342914D01*
X118715475Y-74342914D02*
X118810713Y-74390533D01*
X157934580Y-97258333D02*
X157982200Y-97210714D01*
X157982200Y-97210714D02*
X158029819Y-97067857D01*
X158029819Y-97067857D02*
X158029819Y-96972619D01*
X158029819Y-96972619D02*
X157982200Y-96829762D01*
X157982200Y-96829762D02*
X157886961Y-96734524D01*
X157886961Y-96734524D02*
X157791723Y-96686905D01*
X157791723Y-96686905D02*
X157601247Y-96639286D01*
X157601247Y-96639286D02*
X157458390Y-96639286D01*
X157458390Y-96639286D02*
X157267914Y-96686905D01*
X157267914Y-96686905D02*
X157172676Y-96734524D01*
X157172676Y-96734524D02*
X157077438Y-96829762D01*
X157077438Y-96829762D02*
X157029819Y-96972619D01*
X157029819Y-96972619D02*
X157029819Y-97067857D01*
X157029819Y-97067857D02*
X157077438Y-97210714D01*
X157077438Y-97210714D02*
X157125057Y-97258333D01*
X157029819Y-97591667D02*
X157029819Y-98210714D01*
X157029819Y-98210714D02*
X157410771Y-97877381D01*
X157410771Y-97877381D02*
X157410771Y-98020238D01*
X157410771Y-98020238D02*
X157458390Y-98115476D01*
X157458390Y-98115476D02*
X157506009Y-98163095D01*
X157506009Y-98163095D02*
X157601247Y-98210714D01*
X157601247Y-98210714D02*
X157839342Y-98210714D01*
X157839342Y-98210714D02*
X157934580Y-98163095D01*
X157934580Y-98163095D02*
X157982200Y-98115476D01*
X157982200Y-98115476D02*
X158029819Y-98020238D01*
X158029819Y-98020238D02*
X158029819Y-97734524D01*
X158029819Y-97734524D02*
X157982200Y-97639286D01*
X157982200Y-97639286D02*
X157934580Y-97591667D01*
%TO.C,C2*%
D13*
X150380000Y-106380000D02*
X150380000Y-111620000D01*
X150380000Y-111620000D02*
X161620000Y-111620000D01*
X161620000Y-106380000D02*
X150380000Y-106380000D01*
X161620000Y-111620000D02*
X161620000Y-106380000D01*
%TO.C,K1*%
X198200000Y-83600000D02*
X198200000Y-103400000D01*
X198200000Y-83600000D02*
X204800000Y-83600000D01*
X198200000Y-103400000D02*
X213800000Y-103400000D01*
X200050000Y-91050000D02*
X200050000Y-88550000D01*
X200050000Y-91050000D02*
X204250000Y-91050000D01*
X201800000Y-99150000D02*
X204300000Y-99150000D01*
X204250000Y-89050000D02*
X204250000Y-93050000D01*
X204250000Y-93050000D02*
X207850000Y-93050000D01*
X206050000Y-87650000D02*
X206050000Y-86850000D01*
X206050000Y-87650000D02*
X209650000Y-87650000D01*
X206050000Y-94450000D02*
X206050000Y-95950000D01*
X206050000Y-94450000D02*
X209650000Y-94450000D01*
X206050000Y-95950000D02*
X203550000Y-100550000D01*
X207200000Y-83600000D02*
X213800000Y-83600000D01*
X207850000Y-89050000D02*
X204250000Y-89050000D01*
X207850000Y-91050000D02*
X212050000Y-91050000D01*
X207850000Y-93050000D02*
X204250000Y-89050000D01*
X207850000Y-93050000D02*
X207850000Y-89050000D01*
X209650000Y-94450000D02*
X209650000Y-87650000D01*
X210200000Y-99150000D02*
X207750000Y-99150000D01*
X212050000Y-88550000D02*
X212050000Y-91050000D01*
X213800000Y-103400000D02*
X213800000Y-83600000D01*
%TO.C,C1*%
X120090302Y-77315000D02*
X120890302Y-77315000D01*
X120490302Y-77715000D02*
X120490302Y-76915000D01*
X124500000Y-79080000D02*
X124500000Y-70920000D01*
X124540000Y-79080000D02*
X124540000Y-70920000D01*
X124580000Y-79079000D02*
X124580000Y-70921000D01*
X124620000Y-79078000D02*
X124620000Y-70922000D01*
X124660000Y-79077000D02*
X124660000Y-70923000D01*
X124700000Y-79075000D02*
X124700000Y-70925000D01*
X124740000Y-79073000D02*
X124740000Y-70927000D01*
X124780000Y-79070000D02*
X124780000Y-70930000D01*
X124820000Y-79068000D02*
X124820000Y-70932000D01*
X124860000Y-79064000D02*
X124860000Y-70936000D01*
X124900000Y-79061000D02*
X124900000Y-70939000D01*
X124940000Y-79056000D02*
X124940000Y-70944000D01*
X124980000Y-79052000D02*
X124980000Y-70948000D01*
X125020000Y-79047000D02*
X125020000Y-70953000D01*
X125060000Y-79042000D02*
X125060000Y-70958000D01*
X125100000Y-79036000D02*
X125100000Y-70964000D01*
X125140000Y-79030000D02*
X125140000Y-70970000D01*
X125180000Y-79023000D02*
X125180000Y-70977000D01*
X125220000Y-79017000D02*
X125220000Y-70983000D01*
X125260000Y-79009000D02*
X125260000Y-70991000D01*
X125300000Y-79002000D02*
X125300000Y-70998000D01*
X125340000Y-78993000D02*
X125340000Y-71007000D01*
X125380000Y-78985000D02*
X125380000Y-71015000D01*
X125420000Y-78976000D02*
X125420000Y-71024000D01*
X125460000Y-78967000D02*
X125460000Y-71033000D01*
X125500000Y-78957000D02*
X125500000Y-71043000D01*
X125540000Y-78947000D02*
X125540000Y-71053000D01*
X125580000Y-78936000D02*
X125580000Y-71064000D01*
X125620000Y-78925000D02*
X125620000Y-71075000D01*
X125660000Y-78913000D02*
X125660000Y-71087000D01*
X125700000Y-78901000D02*
X125700000Y-71099000D01*
X125740000Y-78889000D02*
X125740000Y-71111000D01*
X125780000Y-78876000D02*
X125780000Y-71124000D01*
X125820000Y-78863000D02*
X125820000Y-71137000D01*
X125860000Y-78849000D02*
X125860000Y-71151000D01*
X125900000Y-78835000D02*
X125900000Y-71165000D01*
X125940000Y-78820000D02*
X125940000Y-71180000D01*
X125980000Y-73960000D02*
X125980000Y-71195000D01*
X125980000Y-78805000D02*
X125980000Y-76040000D01*
X126020000Y-73960000D02*
X126020000Y-71211000D01*
X126020000Y-78789000D02*
X126020000Y-76040000D01*
X126060000Y-73960000D02*
X126060000Y-71227000D01*
X126060000Y-78773000D02*
X126060000Y-76040000D01*
X126100000Y-73960000D02*
X126100000Y-71243000D01*
X126100000Y-78757000D02*
X126100000Y-76040000D01*
X126140000Y-73960000D02*
X126140000Y-71260000D01*
X126140000Y-78740000D02*
X126140000Y-76040000D01*
X126180000Y-73960000D02*
X126180000Y-71278000D01*
X126180000Y-78722000D02*
X126180000Y-76040000D01*
X126220000Y-73960000D02*
X126220000Y-71296000D01*
X126220000Y-78704000D02*
X126220000Y-76040000D01*
X126260000Y-73960000D02*
X126260000Y-71315000D01*
X126260000Y-78685000D02*
X126260000Y-76040000D01*
X126300000Y-73960000D02*
X126300000Y-71334000D01*
X126300000Y-78666000D02*
X126300000Y-76040000D01*
X126340000Y-73960000D02*
X126340000Y-71354000D01*
X126340000Y-78646000D02*
X126340000Y-76040000D01*
X126380000Y-73960000D02*
X126380000Y-71374000D01*
X126380000Y-78626000D02*
X126380000Y-76040000D01*
X126420000Y-73960000D02*
X126420000Y-71395000D01*
X126420000Y-78605000D02*
X126420000Y-76040000D01*
X126460000Y-73960000D02*
X126460000Y-71416000D01*
X126460000Y-78584000D02*
X126460000Y-76040000D01*
X126500000Y-73960000D02*
X126500000Y-71438000D01*
X126500000Y-78562000D02*
X126500000Y-76040000D01*
X126540000Y-73960000D02*
X126540000Y-71461000D01*
X126540000Y-78539000D02*
X126540000Y-76040000D01*
X126580000Y-73960000D02*
X126580000Y-71484000D01*
X126580000Y-78516000D02*
X126580000Y-76040000D01*
X126620000Y-73960000D02*
X126620000Y-71507000D01*
X126620000Y-78493000D02*
X126620000Y-76040000D01*
X126660000Y-73960000D02*
X126660000Y-71532000D01*
X126660000Y-78468000D02*
X126660000Y-76040000D01*
X126700000Y-73960000D02*
X126700000Y-71557000D01*
X126700000Y-78443000D02*
X126700000Y-76040000D01*
X126740000Y-73960000D02*
X126740000Y-71582000D01*
X126740000Y-78418000D02*
X126740000Y-76040000D01*
X126780000Y-73960000D02*
X126780000Y-71608000D01*
X126780000Y-78392000D02*
X126780000Y-76040000D01*
X126820000Y-73960000D02*
X126820000Y-71635000D01*
X126820000Y-78365000D02*
X126820000Y-76040000D01*
X126860000Y-73960000D02*
X126860000Y-71663000D01*
X126860000Y-78337000D02*
X126860000Y-76040000D01*
X126900000Y-73960000D02*
X126900000Y-71691000D01*
X126900000Y-78309000D02*
X126900000Y-76040000D01*
X126940000Y-73960000D02*
X126940000Y-71720000D01*
X126940000Y-78280000D02*
X126940000Y-76040000D01*
X126980000Y-73960000D02*
X126980000Y-71750000D01*
X126980000Y-78250000D02*
X126980000Y-76040000D01*
X127020000Y-73960000D02*
X127020000Y-71781000D01*
X127020000Y-78219000D02*
X127020000Y-76040000D01*
X127060000Y-73960000D02*
X127060000Y-71812000D01*
X127060000Y-78188000D02*
X127060000Y-76040000D01*
X127100000Y-73960000D02*
X127100000Y-71844000D01*
X127100000Y-78156000D02*
X127100000Y-76040000D01*
X127140000Y-73960000D02*
X127140000Y-71877000D01*
X127140000Y-78123000D02*
X127140000Y-76040000D01*
X127180000Y-73960000D02*
X127180000Y-71911000D01*
X127180000Y-78089000D02*
X127180000Y-76040000D01*
X127220000Y-73960000D02*
X127220000Y-71945000D01*
X127220000Y-78055000D02*
X127220000Y-76040000D01*
X127260000Y-73960000D02*
X127260000Y-71981000D01*
X127260000Y-78019000D02*
X127260000Y-76040000D01*
X127300000Y-73960000D02*
X127300000Y-72018000D01*
X127300000Y-77982000D02*
X127300000Y-76040000D01*
X127340000Y-73960000D02*
X127340000Y-72055000D01*
X127340000Y-77945000D02*
X127340000Y-76040000D01*
X127380000Y-73960000D02*
X127380000Y-72094000D01*
X127380000Y-77906000D02*
X127380000Y-76040000D01*
X127420000Y-73960000D02*
X127420000Y-72133000D01*
X127420000Y-77867000D02*
X127420000Y-76040000D01*
X127460000Y-73960000D02*
X127460000Y-72174000D01*
X127460000Y-77826000D02*
X127460000Y-76040000D01*
X127500000Y-73960000D02*
X127500000Y-72216000D01*
X127500000Y-77784000D02*
X127500000Y-76040000D01*
X127540000Y-73960000D02*
X127540000Y-72259000D01*
X127540000Y-77741000D02*
X127540000Y-76040000D01*
X127580000Y-73960000D02*
X127580000Y-72304000D01*
X127580000Y-77696000D02*
X127580000Y-76040000D01*
X127620000Y-73960000D02*
X127620000Y-72349000D01*
X127620000Y-77651000D02*
X127620000Y-76040000D01*
X127660000Y-73960000D02*
X127660000Y-72396000D01*
X127660000Y-77604000D02*
X127660000Y-76040000D01*
X127700000Y-73960000D02*
X127700000Y-72445000D01*
X127700000Y-77555000D02*
X127700000Y-76040000D01*
X127740000Y-73960000D02*
X127740000Y-72495000D01*
X127740000Y-77505000D02*
X127740000Y-76040000D01*
X127780000Y-73960000D02*
X127780000Y-72547000D01*
X127780000Y-77453000D02*
X127780000Y-76040000D01*
X127820000Y-73960000D02*
X127820000Y-72600000D01*
X127820000Y-77400000D02*
X127820000Y-76040000D01*
X127860000Y-73960000D02*
X127860000Y-72656000D01*
X127860000Y-77344000D02*
X127860000Y-76040000D01*
X127900000Y-73960000D02*
X127900000Y-72713000D01*
X127900000Y-77287000D02*
X127900000Y-76040000D01*
X127940000Y-73960000D02*
X127940000Y-72773000D01*
X127940000Y-77227000D02*
X127940000Y-76040000D01*
X127980000Y-73960000D02*
X127980000Y-72835000D01*
X127980000Y-77165000D02*
X127980000Y-76040000D01*
X128020000Y-73960000D02*
X128020000Y-72899000D01*
X128020000Y-77101000D02*
X128020000Y-76040000D01*
X128060000Y-77034000D02*
X128060000Y-72966000D01*
X128100000Y-76964000D02*
X128100000Y-73036000D01*
X128140000Y-76890000D02*
X128140000Y-73110000D01*
X128180000Y-76813000D02*
X128180000Y-73187000D01*
X128220000Y-76731000D02*
X128220000Y-73269000D01*
X128260000Y-76644000D02*
X128260000Y-73356000D01*
X128300000Y-76552000D02*
X128300000Y-73448000D01*
X128340000Y-76453000D02*
X128340000Y-73547000D01*
X128380000Y-76346000D02*
X128380000Y-73654000D01*
X128420000Y-76228000D02*
X128420000Y-73772000D01*
X128460000Y-76097000D02*
X128460000Y-73903000D01*
X128500000Y-75947000D02*
X128500000Y-74053000D01*
X128540000Y-75768000D02*
X128540000Y-74232000D01*
X128580000Y-75533000D02*
X128580000Y-74467000D01*
X128620000Y-75000000D02*
G75*
G02*
X120380000Y-75000000I-4120000J0D01*
G01*
X120380000Y-75000000D02*
G75*
G02*
X128620000Y-75000000I4120000J0D01*
G01*
%TO.C,C3*%
X147920000Y-97097349D02*
X156080000Y-97097349D01*
X147920000Y-97137349D02*
X156080000Y-97137349D01*
X147921000Y-97177349D02*
X156079000Y-97177349D01*
X147922000Y-97217349D02*
X156078000Y-97217349D01*
X147923000Y-97257349D02*
X156077000Y-97257349D01*
X147925000Y-97297349D02*
X156075000Y-97297349D01*
X147927000Y-97337349D02*
X156073000Y-97337349D01*
X147930000Y-97377349D02*
X156070000Y-97377349D01*
X147932000Y-97417349D02*
X156068000Y-97417349D01*
X147936000Y-97457349D02*
X156064000Y-97457349D01*
X147939000Y-97497349D02*
X156061000Y-97497349D01*
X147944000Y-97537349D02*
X156056000Y-97537349D01*
X147948000Y-97577349D02*
X156052000Y-97577349D01*
X147953000Y-97617349D02*
X156047000Y-97617349D01*
X147958000Y-97657349D02*
X156042000Y-97657349D01*
X147964000Y-97697349D02*
X156036000Y-97697349D01*
X147970000Y-97737349D02*
X156030000Y-97737349D01*
X147977000Y-97777349D02*
X156023000Y-97777349D01*
X147983000Y-97817349D02*
X156017000Y-97817349D01*
X147991000Y-97857349D02*
X156009000Y-97857349D01*
X147998000Y-97897349D02*
X156002000Y-97897349D01*
X148007000Y-97937349D02*
X155993000Y-97937349D01*
X148015000Y-97977349D02*
X155985000Y-97977349D01*
X148024000Y-98017349D02*
X155976000Y-98017349D01*
X148033000Y-98057349D02*
X155967000Y-98057349D01*
X148043000Y-98097349D02*
X155957000Y-98097349D01*
X148053000Y-98137349D02*
X155947000Y-98137349D01*
X148064000Y-98177349D02*
X155936000Y-98177349D01*
X148075000Y-98217349D02*
X155925000Y-98217349D01*
X148087000Y-98257349D02*
X155913000Y-98257349D01*
X148099000Y-98297349D02*
X155901000Y-98297349D01*
X148111000Y-98337349D02*
X155889000Y-98337349D01*
X148124000Y-98377349D02*
X155876000Y-98377349D01*
X148137000Y-98417349D02*
X155863000Y-98417349D01*
X148151000Y-98457349D02*
X155849000Y-98457349D01*
X148165000Y-98497349D02*
X155835000Y-98497349D01*
X148180000Y-98537349D02*
X155820000Y-98537349D01*
X148195000Y-98577349D02*
X150960000Y-98577349D01*
X148211000Y-98617349D02*
X150960000Y-98617349D01*
X148227000Y-98657349D02*
X150960000Y-98657349D01*
X148243000Y-98697349D02*
X150960000Y-98697349D01*
X148260000Y-98737349D02*
X150960000Y-98737349D01*
X148278000Y-98777349D02*
X150960000Y-98777349D01*
X148296000Y-98817349D02*
X150960000Y-98817349D01*
X148315000Y-98857349D02*
X150960000Y-98857349D01*
X148334000Y-98897349D02*
X150960000Y-98897349D01*
X148354000Y-98937349D02*
X150960000Y-98937349D01*
X148374000Y-98977349D02*
X150960000Y-98977349D01*
X148395000Y-99017349D02*
X150960000Y-99017349D01*
X148416000Y-99057349D02*
X150960000Y-99057349D01*
X148438000Y-99097349D02*
X150960000Y-99097349D01*
X148461000Y-99137349D02*
X150960000Y-99137349D01*
X148484000Y-99177349D02*
X150960000Y-99177349D01*
X148507000Y-99217349D02*
X150960000Y-99217349D01*
X148532000Y-99257349D02*
X150960000Y-99257349D01*
X148557000Y-99297349D02*
X150960000Y-99297349D01*
X148582000Y-99337349D02*
X150960000Y-99337349D01*
X148608000Y-99377349D02*
X150960000Y-99377349D01*
X148635000Y-99417349D02*
X150960000Y-99417349D01*
X148663000Y-99457349D02*
X150960000Y-99457349D01*
X148691000Y-99497349D02*
X150960000Y-99497349D01*
X148720000Y-99537349D02*
X150960000Y-99537349D01*
X148750000Y-99577349D02*
X150960000Y-99577349D01*
X148781000Y-99617349D02*
X150960000Y-99617349D01*
X148812000Y-99657349D02*
X150960000Y-99657349D01*
X148844000Y-99697349D02*
X150960000Y-99697349D01*
X148877000Y-99737349D02*
X150960000Y-99737349D01*
X148911000Y-99777349D02*
X150960000Y-99777349D01*
X148945000Y-99817349D02*
X150960000Y-99817349D01*
X148981000Y-99857349D02*
X150960000Y-99857349D01*
X149018000Y-99897349D02*
X150960000Y-99897349D01*
X149055000Y-99937349D02*
X150960000Y-99937349D01*
X149094000Y-99977349D02*
X150960000Y-99977349D01*
X149133000Y-100017349D02*
X150960000Y-100017349D01*
X149174000Y-100057349D02*
X150960000Y-100057349D01*
X149216000Y-100097349D02*
X150960000Y-100097349D01*
X149259000Y-100137349D02*
X150960000Y-100137349D01*
X149285000Y-93087651D02*
X150085000Y-93087651D01*
X149304000Y-100177349D02*
X150960000Y-100177349D01*
X149349000Y-100217349D02*
X150960000Y-100217349D01*
X149396000Y-100257349D02*
X150960000Y-100257349D01*
X149445000Y-100297349D02*
X150960000Y-100297349D01*
X149495000Y-100337349D02*
X150960000Y-100337349D01*
X149547000Y-100377349D02*
X150960000Y-100377349D01*
X149600000Y-100417349D02*
X150960000Y-100417349D01*
X149656000Y-100457349D02*
X150960000Y-100457349D01*
X149685000Y-92687651D02*
X149685000Y-93487651D01*
X149713000Y-100497349D02*
X150960000Y-100497349D01*
X149773000Y-100537349D02*
X150960000Y-100537349D01*
X149835000Y-100577349D02*
X150960000Y-100577349D01*
X149899000Y-100617349D02*
X150960000Y-100617349D01*
X149966000Y-100657349D02*
X154034000Y-100657349D01*
X150036000Y-100697349D02*
X153964000Y-100697349D01*
X150110000Y-100737349D02*
X153890000Y-100737349D01*
X150187000Y-100777349D02*
X153813000Y-100777349D01*
X150269000Y-100817349D02*
X153731000Y-100817349D01*
X150356000Y-100857349D02*
X153644000Y-100857349D01*
X150448000Y-100897349D02*
X153552000Y-100897349D01*
X150547000Y-100937349D02*
X153453000Y-100937349D01*
X150654000Y-100977349D02*
X153346000Y-100977349D01*
X150772000Y-101017349D02*
X153228000Y-101017349D01*
X150903000Y-101057349D02*
X153097000Y-101057349D01*
X151053000Y-101097349D02*
X152947000Y-101097349D01*
X151232000Y-101137349D02*
X152768000Y-101137349D01*
X151467000Y-101177349D02*
X152533000Y-101177349D01*
X153040000Y-98577349D02*
X155805000Y-98577349D01*
X153040000Y-98617349D02*
X155789000Y-98617349D01*
X153040000Y-98657349D02*
X155773000Y-98657349D01*
X153040000Y-98697349D02*
X155757000Y-98697349D01*
X153040000Y-98737349D02*
X155740000Y-98737349D01*
X153040000Y-98777349D02*
X155722000Y-98777349D01*
X153040000Y-98817349D02*
X155704000Y-98817349D01*
X153040000Y-98857349D02*
X155685000Y-98857349D01*
X153040000Y-98897349D02*
X155666000Y-98897349D01*
X153040000Y-98937349D02*
X155646000Y-98937349D01*
X153040000Y-98977349D02*
X155626000Y-98977349D01*
X153040000Y-99017349D02*
X155605000Y-99017349D01*
X153040000Y-99057349D02*
X155584000Y-99057349D01*
X153040000Y-99097349D02*
X155562000Y-99097349D01*
X153040000Y-99137349D02*
X155539000Y-99137349D01*
X153040000Y-99177349D02*
X155516000Y-99177349D01*
X153040000Y-99217349D02*
X155493000Y-99217349D01*
X153040000Y-99257349D02*
X155468000Y-99257349D01*
X153040000Y-99297349D02*
X155443000Y-99297349D01*
X153040000Y-99337349D02*
X155418000Y-99337349D01*
X153040000Y-99377349D02*
X155392000Y-99377349D01*
X153040000Y-99417349D02*
X155365000Y-99417349D01*
X153040000Y-99457349D02*
X155337000Y-99457349D01*
X153040000Y-99497349D02*
X155309000Y-99497349D01*
X153040000Y-99537349D02*
X155280000Y-99537349D01*
X153040000Y-99577349D02*
X155250000Y-99577349D01*
X153040000Y-99617349D02*
X155219000Y-99617349D01*
X153040000Y-99657349D02*
X155188000Y-99657349D01*
X153040000Y-99697349D02*
X155156000Y-99697349D01*
X153040000Y-99737349D02*
X155123000Y-99737349D01*
X153040000Y-99777349D02*
X155089000Y-99777349D01*
X153040000Y-99817349D02*
X155055000Y-99817349D01*
X153040000Y-99857349D02*
X155019000Y-99857349D01*
X153040000Y-99897349D02*
X154982000Y-99897349D01*
X153040000Y-99937349D02*
X154945000Y-99937349D01*
X153040000Y-99977349D02*
X154906000Y-99977349D01*
X153040000Y-100017349D02*
X154867000Y-100017349D01*
X153040000Y-100057349D02*
X154826000Y-100057349D01*
X153040000Y-100097349D02*
X154784000Y-100097349D01*
X153040000Y-100137349D02*
X154741000Y-100137349D01*
X153040000Y-100177349D02*
X154696000Y-100177349D01*
X153040000Y-100217349D02*
X154651000Y-100217349D01*
X153040000Y-100257349D02*
X154604000Y-100257349D01*
X153040000Y-100297349D02*
X154555000Y-100297349D01*
X153040000Y-100337349D02*
X154505000Y-100337349D01*
X153040000Y-100377349D02*
X154453000Y-100377349D01*
X153040000Y-100417349D02*
X154400000Y-100417349D01*
X153040000Y-100457349D02*
X154344000Y-100457349D01*
X153040000Y-100497349D02*
X154287000Y-100497349D01*
X153040000Y-100537349D02*
X154227000Y-100537349D01*
X153040000Y-100577349D02*
X154165000Y-100577349D01*
X153040000Y-100617349D02*
X154101000Y-100617349D01*
X156120000Y-97097349D02*
G75*
G02*
X147880000Y-97097349I-4120000J0D01*
G01*
X147880000Y-97097349D02*
G75*
G02*
X156120000Y-97097349I4120000J0D01*
G01*
%TD*%
M02*
