%TF.GenerationSoftware,KiCad,Pcbnew,10.0.2*%
%TF.CreationDate,2026-05-14T17:39:16+03:00*%
%TF.ProjectId,starting_module-v2,73746172-7469-46e6-975f-6d6f64756c65,rev?*%
%TF.SameCoordinates,Original*%
%TF.FileFunction,Soldermask,Bot*%
%TF.FilePolarity,Negative*%
%FSLAX46Y46*%
G04 Gerber Fmt 4.6, Leading zero omitted, Abs format (unit mm)*
G04 Created by KiCad (PCBNEW 10.0.2) date 2026-05-14 17:39:16*
%MOMM*%
%LPD*%
G01*
G04 APERTURE LIST*
G04 Aperture macros list*
%AMRoundRect*
0 Rectangle with rounded corners*
0 $1 Rounding radius*
0 $2 $3 $4 $5 $6 $7 $8 $9 X,Y pos of 4 corners*
0 Add a 4 corners polygon primitive as box body*
4,1,4,$2,$3,$4,$5,$6,$7,$8,$9,$2,$3,0*
0 Add four circle primitives for the rounded corners*
1,1,$1+$1,$2,$3*
1,1,$1+$1,$4,$5*
1,1,$1+$1,$6,$7*
1,1,$1+$1,$8,$9*
0 Add four rect primitives between the rounded corners*
20,1,$1+$1,$2,$3,$4,$5,0*
20,1,$1+$1,$4,$5,$6,$7,0*
20,1,$1+$1,$6,$7,$8,$9,0*
20,1,$1+$1,$8,$9,$2,$3,0*%
G04 Aperture macros list end*
%ADD10RoundRect,0.250001X0.799999X0.799999X-0.799999X0.799999X-0.799999X-0.799999X0.799999X-0.799999X0*%
%ADD11C,2.100000*%
%ADD12C,1.600000*%
%ADD13C,1.552000*%
%ADD14RoundRect,0.250001X-0.799999X-0.799999X0.799999X-0.799999X0.799999X0.799999X-0.799999X0.799999X0*%
%ADD15C,3.500000*%
%ADD16O,3.200000X1.900000*%
%ADD17RoundRect,0.635000X-0.635000X-0.000010X0.635000X-0.000010X0.635000X0.000010X-0.635000X0.000010X0*%
%ADD18R,1.800000X1.800000*%
%ADD19C,1.800000*%
%ADD20R,1.050000X1.500000*%
%ADD21O,1.050000X1.500000*%
%ADD22R,1.700000X1.700000*%
%ADD23C,1.700000*%
%ADD24RoundRect,0.249999X-0.850001X-0.850001X0.850001X-0.850001X0.850001X0.850001X-0.850001X0.850001X0*%
%ADD25C,2.200000*%
%ADD26C,2.000000*%
%ADD27C,3.000000*%
%ADD28C,2.500000*%
%ADD29RoundRect,0.250000X-0.550000X-0.550000X0.550000X-0.550000X0.550000X0.550000X-0.550000X0.550000X0*%
%ADD30RoundRect,0.250000X-0.550000X0.550000X-0.550000X-0.550000X0.550000X-0.550000X0.550000X0.550000X0*%
G04 APERTURE END LIST*
D10*
%TO.C,J1*%
X198000000Y-110000000D03*
D11*
X192920000Y-110000000D03*
%TD*%
D12*
%TO.C,R4*%
X110300000Y-55000000D03*
X120460000Y-55000000D03*
%TD*%
D13*
%TO.C,U2*%
X160380000Y-83120000D03*
X160380000Y-85660000D03*
X160380000Y-88200000D03*
X160380000Y-90740000D03*
X160380000Y-95820000D03*
X160380000Y-93280000D03*
X175620000Y-100900000D03*
X160380000Y-100900000D03*
X175620000Y-98360000D03*
X175620000Y-95820000D03*
X175620000Y-93280000D03*
X175620000Y-90740000D03*
X175620000Y-88200000D03*
X175620000Y-85660000D03*
X175620000Y-83120000D03*
X160380000Y-98360000D03*
%TD*%
D12*
%TO.C,R2*%
X208000000Y-60500000D03*
X208000000Y-70660000D03*
%TD*%
D14*
%TO.C,J2*%
X126000000Y-55000000D03*
D11*
X131080000Y-55000000D03*
%TD*%
D15*
%TO.C,REF\u002A\u002A*%
X216000000Y-54000000D03*
%TD*%
D12*
%TO.C,R5*%
X146000000Y-110000000D03*
X135840000Y-110000000D03*
%TD*%
D16*
%TO.C,SW1*%
X130000000Y-95000000D03*
X142500000Y-95000000D03*
X130000000Y-100000000D03*
X142500000Y-100000000D03*
D17*
X136250000Y-91000000D03*
X136250000Y-104000000D03*
%TD*%
D18*
%TO.C,D2*%
X195000000Y-63000000D03*
D19*
X195000000Y-60460000D03*
%TD*%
D15*
%TO.C,REF\u002A\u002A*%
X104000000Y-54000000D03*
%TD*%
D20*
%TO.C,Q1*%
X190000000Y-82000000D03*
D21*
X191270000Y-82000000D03*
X192540000Y-82000000D03*
%TD*%
D22*
%TO.C,J3*%
X110000000Y-84000000D03*
D23*
X110000000Y-81460000D03*
X110000000Y-78920000D03*
X110000000Y-76380000D03*
X110000000Y-73840000D03*
X110000000Y-71300000D03*
X110000000Y-68760000D03*
X110000000Y-66220000D03*
%TD*%
D12*
%TO.C,R1*%
X167000000Y-60500000D03*
X167000000Y-70660000D03*
%TD*%
%TO.C,R3*%
X192000000Y-91000000D03*
X181840000Y-91000000D03*
%TD*%
D15*
%TO.C,REF\u002A\u002A*%
X216000000Y-111000000D03*
%TD*%
D24*
%TO.C,D3*%
X201000000Y-80000000D03*
D25*
X211160000Y-80000000D03*
%TD*%
D15*
%TO.C,REF\u002A\u002A*%
X104000000Y-111000000D03*
%TD*%
D18*
%TO.C,D1*%
X180000000Y-63000000D03*
D19*
X180000000Y-60460000D03*
%TD*%
D26*
%TO.C,C2*%
X158500000Y-109000000D03*
X153500000Y-109000000D03*
%TD*%
D27*
%TO.C,K1*%
X206000000Y-85000000D03*
D28*
X212050000Y-86950000D03*
D27*
X212050000Y-99150000D03*
X200000000Y-99200000D03*
D28*
X200050000Y-86950000D03*
%TD*%
D29*
%TO.C,C1*%
X122000000Y-75000000D03*
D12*
X127000000Y-75000000D03*
%TD*%
D30*
%TO.C,C3*%
X152000000Y-94597349D03*
D12*
X152000000Y-99597349D03*
%TD*%
M02*
