%TF.GenerationSoftware,KiCad,Pcbnew,10.0.1*%
%TF.CreationDate,2026-05-10T21:38:50+03:00*%
%TF.ProjectId,starting_module-v2,73746172-7469-46e6-975f-6d6f64756c65,rev?*%
%TF.SameCoordinates,Original*%
%TF.FileFunction,Copper,L2,Bot*%
%TF.FilePolarity,Positive*%
%FSLAX46Y46*%
G04 Gerber Fmt 4.6, Leading zero omitted, Abs format (unit mm)*
G04 Created by KiCad (PCBNEW 10.0.1) date 2026-05-10 21:38:50*
%MOMM*%
%LPD*%
G01*
G04 APERTURE LIST*
G04 Aperture macros list*
%AMRoundRect*
0 Rectangle with rounded corners*
0 $1 Rounding radius*
0 $2 $3 $4 $5 $6 $7 $8 $9 X,Y pos of 4 corners*
0 Add a 4 corners polygon primitive as box body*
4,1,4,$2,$3,$4,$5,$6,$7,$8,$9,$2,$3,0*
0 Add four circle primitives for the rounded corners*
1,1,$1+$1,$2,$3*
1,1,$1+$1,$4,$5*
1,1,$1+$1,$6,$7*
1,1,$1+$1,$8,$9*
0 Add four rect primitives between the rounded corners*
20,1,$1+$1,$2,$3,$4,$5,0*
20,1,$1+$1,$4,$5,$6,$7,0*
20,1,$1+$1,$6,$7,$8,$9,0*
20,1,$1+$1,$8,$9,$2,$3,0*%
G04 Aperture macros list end*
%TA.AperFunction,ComponentPad*%
%ADD10C,3.000000*%
%TD*%
%TA.AperFunction,ComponentPad*%
%ADD11C,2.500000*%
%TD*%
%TA.AperFunction,ComponentPad*%
%ADD12RoundRect,0.250001X0.799999X0.799999X-0.799999X0.799999X-0.799999X-0.799999X0.799999X-0.799999X0*%
%TD*%
%TA.AperFunction,ComponentPad*%
%ADD13C,2.100000*%
%TD*%
%TA.AperFunction,ComponentPad*%
%ADD14C,1.600000*%
%TD*%
%TA.AperFunction,ComponentPad*%
%ADD15C,1.348000*%
%TD*%
%TA.AperFunction,ComponentPad*%
%ADD16RoundRect,0.250001X-0.799999X-0.799999X0.799999X-0.799999X0.799999X0.799999X-0.799999X0.799999X0*%
%TD*%
%TA.AperFunction,ComponentPad*%
%ADD17C,2.000000*%
%TD*%
%TA.AperFunction,ComponentPad*%
%ADD18O,3.200000X1.900000*%
%TD*%
%TA.AperFunction,ComponentPad*%
%ADD19RoundRect,0.635000X-0.635000X-0.000010X0.635000X-0.000010X0.635000X0.000010X-0.635000X0.000010X0*%
%TD*%
%TA.AperFunction,ComponentPad*%
%ADD20R,1.800000X1.800000*%
%TD*%
%TA.AperFunction,ComponentPad*%
%ADD21C,1.800000*%
%TD*%
%TA.AperFunction,ComponentPad*%
%ADD22R,1.050000X1.500000*%
%TD*%
%TA.AperFunction,ComponentPad*%
%ADD23O,1.050000X1.500000*%
%TD*%
%TA.AperFunction,ComponentPad*%
%ADD24R,1.700000X1.700000*%
%TD*%
%TA.AperFunction,ComponentPad*%
%ADD25C,1.700000*%
%TD*%
%TA.AperFunction,ComponentPad*%
%ADD26RoundRect,0.250000X-0.550000X-0.550000X0.550000X-0.550000X0.550000X0.550000X-0.550000X0.550000X0*%
%TD*%
%TA.AperFunction,ComponentPad*%
%ADD27RoundRect,0.249999X-0.850001X-0.850001X0.850001X-0.850001X0.850001X0.850001X-0.850001X0.850001X0*%
%TD*%
%TA.AperFunction,ComponentPad*%
%ADD28C,2.200000*%
%TD*%
%TA.AperFunction,ComponentPad*%
%ADD29RoundRect,0.250000X-0.550000X0.550000X-0.550000X-0.550000X0.550000X-0.550000X0.550000X0.550000X0*%
%TD*%
%TA.AperFunction,Conductor*%
%ADD30C,0.400000*%
%TD*%
%TA.AperFunction,Conductor*%
%ADD31C,0.200000*%
%TD*%
G04 APERTURE END LIST*
D10*
%TO.P,K1,1*%
%TO.N,Net-(J1-Pin_2)*%
X206000000Y-85000000D03*
D11*
%TO.P,K1,2*%
%TO.N,Net-(D3-A)*%
X212050000Y-86950000D03*
D10*
%TO.P,K1,3*%
%TO.N,Net-(J1-Pin_1)*%
X212050000Y-99150000D03*
%TO.P,K1,4*%
%TO.N,unconnected-(K1-Pad4)*%
X200000000Y-99200000D03*
D11*
%TO.P,K1,5*%
%TO.N,/+VDC*%
X200050000Y-86950000D03*
%TD*%
D12*
%TO.P,J1,1,Pin_1_1*%
%TO.N,Net-(J1-Pin_1)*%
X198000000Y-110000000D03*
D13*
%TO.P,J1,2,Pin_2_2*%
%TO.N,Net-(J1-Pin_2)*%
X192920000Y-110000000D03*
%TD*%
D14*
%TO.P,R4,1*%
%TO.N,GND*%
X110300000Y-55000000D03*
%TO.P,R4,2*%
%TO.N,Net-(J2-Pin_1)*%
X120460000Y-55000000D03*
%TD*%
D15*
%TO.P,U2,0,GPIO0_0*%
%TO.N,Net-(J2-Pin_1)*%
X160380000Y-83120000D03*
%TO.P,U2,1,GPIO1_1*%
%TO.N,unconnected-(U2-GPIO1-Pad1)*%
X160380000Y-85660000D03*
%TO.P,U2,2,GPIO2_2*%
%TO.N,unconnected-(U2-GPIO2-Pad2)*%
X160380000Y-88200000D03*
%TO.P,U2,3,GPIO3_3*%
%TO.N,Net-(U2-GPIO3)*%
X160380000Y-90740000D03*
%TO.P,U2,3.3,3V3_3.3*%
%TO.N,/V(3.3)*%
X160380000Y-95820000D03*
%TO.P,U2,4,GPIO4_4*%
%TO.N,Net-(U2-GPIO4)*%
X160380000Y-93280000D03*
%TO.P,U2,5,GPIO5_5*%
%TO.N,Net-(U2-GPIO5)*%
X175620000Y-100900000D03*
%TO.P,U2,5V,5V_5V*%
%TO.N,/+VDC*%
X160380000Y-100900000D03*
%TO.P,U2,6,GPIO6_6*%
%TO.N,Net-(U2-GPIO6)*%
X175620000Y-98360000D03*
%TO.P,U2,7,GPIO7_7*%
%TO.N,Net-(U2-GPIO7)*%
X175620000Y-95820000D03*
%TO.P,U2,8,GPIO8_8*%
%TO.N,unconnected-(U2-GPIO8-Pad8)*%
X175620000Y-93280000D03*
%TO.P,U2,9,GPIO9_9*%
%TO.N,unconnected-(U2-GPIO9-Pad9)*%
X175620000Y-90740000D03*
%TO.P,U2,10,GPIO10_10*%
%TO.N,unconnected-(U2-GPIO10-Pad10)*%
X175620000Y-88200000D03*
%TO.P,U2,20,GPIO20_20*%
%TO.N,unconnected-(U2-GPIO20-Pad20)*%
X175620000Y-85660000D03*
%TO.P,U2,21,GPIO21_21*%
%TO.N,unconnected-(U2-GPIO21-Pad21)*%
X175620000Y-83120000D03*
%TO.P,U2,G,GND_G*%
%TO.N,GND*%
X160380000Y-98360000D03*
%TD*%
D14*
%TO.P,R2,1*%
%TO.N,Net-(D2-A)*%
X208000000Y-60500000D03*
%TO.P,R2,2*%
%TO.N,Net-(U2-GPIO5)*%
X208000000Y-70660000D03*
%TD*%
D16*
%TO.P,J2,1,Pin_1_1*%
%TO.N,Net-(J2-Pin_1)*%
X126000000Y-55000000D03*
D13*
%TO.P,J2,2,Pin_2_2*%
%TO.N,/V(3.3)*%
X131080000Y-55000000D03*
%TD*%
D14*
%TO.P,R5,1*%
%TO.N,Net-(U2-GPIO3)*%
X146000000Y-110000000D03*
%TO.P,R5,2*%
%TO.N,Net-(SW1-A)*%
X135840000Y-110000000D03*
%TD*%
D17*
%TO.P,C2,1*%
%TO.N,/+VDC*%
X158500000Y-109000000D03*
%TO.P,C2,2*%
%TO.N,GND*%
X153500000Y-109000000D03*
%TD*%
D18*
%TO.P,SW1,1,1_1*%
%TO.N,Net-(U2-GPIO4)*%
X130000000Y-95000000D03*
X142500000Y-95000000D03*
%TO.P,SW1,2,2_2*%
%TO.N,GND*%
X130000000Y-100000000D03*
X142500000Y-100000000D03*
D19*
%TO.P,SW1,3,K_3*%
X136250000Y-91000000D03*
%TO.P,SW1,4,A_4*%
%TO.N,Net-(SW1-A)*%
X136250000Y-104000000D03*
%TD*%
D20*
%TO.P,D2,1,K_1*%
%TO.N,GND*%
X195000000Y-63000000D03*
D21*
%TO.P,D2,2,A_2*%
%TO.N,Net-(D2-A)*%
X195000000Y-60460000D03*
%TD*%
D22*
%TO.P,Q1,1,E_1*%
%TO.N,GND*%
X190000000Y-82000000D03*
D23*
%TO.P,Q1,2,B_2*%
%TO.N,Net-(Q1-B)*%
X191270000Y-82000000D03*
%TO.P,Q1,3,C_3*%
%TO.N,Net-(D3-A)*%
X192540000Y-82000000D03*
%TD*%
D24*
%TO.P,J3,1,Pin_1_1*%
%TO.N,unconnected-(J3-Pin_1-Pad1)*%
X110000000Y-84000000D03*
D25*
%TO.P,J3,2,Pin_2_2*%
%TO.N,unconnected-(J3-Pin_2-Pad2)*%
X110000000Y-81460000D03*
%TO.P,J3,3,Pin_3_3*%
%TO.N,unconnected-(J3-Pin_3-Pad3)*%
X110000000Y-78920000D03*
%TO.P,J3,4,Pin_4_4*%
%TO.N,unconnected-(J3-Pin_4-Pad4)*%
X110000000Y-76380000D03*
%TO.P,J3,5,Pin_5_5*%
%TO.N,unconnected-(J3-Pin_5-Pad5)*%
X110000000Y-73840000D03*
%TO.P,J3,6,Pin_6_6*%
%TO.N,unconnected-(J3-Pin_6-Pad6)*%
X110000000Y-71300000D03*
%TO.P,J3,7,Pin_7_7*%
%TO.N,/+VDC*%
X110000000Y-68760000D03*
%TO.P,J3,8,Pin_8_8*%
%TO.N,GND*%
X110000000Y-66220000D03*
%TD*%
D14*
%TO.P,R1,1*%
%TO.N,Net-(D1-A)*%
X167000000Y-60500000D03*
%TO.P,R1,2*%
%TO.N,Net-(U2-GPIO6)*%
X167000000Y-70660000D03*
%TD*%
D26*
%TO.P,C1,1*%
%TO.N,/+VDC*%
X122000000Y-75000000D03*
D14*
%TO.P,C1,2*%
%TO.N,GND*%
X127000000Y-75000000D03*
%TD*%
%TO.P,R3,1*%
%TO.N,Net-(Q1-B)*%
X192000000Y-91000000D03*
%TO.P,R3,2*%
%TO.N,Net-(U2-GPIO7)*%
X181840000Y-91000000D03*
%TD*%
D27*
%TO.P,D3,1,K_1*%
%TO.N,/+VDC*%
X201000000Y-80000000D03*
D28*
%TO.P,D3,2,A_2*%
%TO.N,Net-(D3-A)*%
X211160000Y-80000000D03*
%TD*%
D20*
%TO.P,D1,1,K_1*%
%TO.N,GND*%
X180000000Y-63000000D03*
D21*
%TO.P,D1,2,A_2*%
%TO.N,Net-(D1-A)*%
X180000000Y-60460000D03*
%TD*%
D29*
%TO.P,C3,1*%
%TO.N,/+VDC*%
X152000000Y-94597349D03*
D14*
%TO.P,C3,2*%
%TO.N,GND*%
X152000000Y-99597349D03*
%TD*%
%TO.N,/+VDC*%
D30*
X160380000Y-100900000D02*
X163900000Y-100900000D01*
X163900000Y-100900000D02*
X165000000Y-102000000D01*
X165000000Y-109000000D02*
X166000000Y-110000000D01*
X186000000Y-110000000D02*
X188000000Y-108000000D01*
X165000000Y-102000000D02*
X165000000Y-109000000D01*
X166000000Y-110000000D02*
X186000000Y-110000000D01*
X188000000Y-108000000D02*
X188000000Y-102000000D01*
X188000000Y-102000000D02*
X200050000Y-89950000D01*
X200050000Y-89950000D02*
X200050000Y-86950000D01*
%TO.N,GND*%
X153237349Y-98360000D02*
X152000000Y-99597349D01*
X160380000Y-98360000D02*
X153237349Y-98360000D01*
%TO.N,Net-(U2-GPIO5)*%
D31*
X185340000Y-70660000D02*
X208000000Y-70660000D01*
X174000000Y-82000000D02*
X185340000Y-70660000D01*
X174000000Y-99280000D02*
X174000000Y-82000000D01*
X175620000Y-100900000D02*
X174000000Y-99280000D01*
%TO.N,/+VDC*%
D30*
X150000000Y-104000000D02*
X147000000Y-101000000D01*
X150402651Y-94597349D02*
X152000000Y-94597349D01*
X157100000Y-100900000D02*
X154000000Y-104000000D01*
X154000000Y-104000000D02*
X150000000Y-104000000D01*
X147000000Y-101000000D02*
X147000000Y-98000000D01*
X147000000Y-98000000D02*
X150402651Y-94597349D01*
X160380000Y-100900000D02*
X157100000Y-100900000D01*
%TD*%
M02*
